thinwide.ufo
<glyph name="exclam" format="1">
  <advance width="290"/>
  <unicode hex="0021"/>
  <outline>
    <contour>
      <point x="192.0" y="19.0"/>
      <point x="202.0" y="19.0"/>
      <point x="216.0" y="19.0" type="curve"/>
      <point x="216.0" y="30.0"/>
      <point x="208.0" y="37.0"/>
      <point x="196.0" y="37.0" type="curve"/>
      <point x="185.0" y="37.0"/>
      <point x="178.0" y="30.0"/>
      <point x="178.0" y="19.0" type="curve"/>
      <point x="192.0" y="19.0"/>
      <point x="202.0" y="19.0"/>
      <point x="216.0" y="19.0" type="curve"/>
      <point x="216.0" y="8.0"/>
      <point x="208.0" y="1.0"/>
      <point x="196.0" y="1.0" type="curve"/>
      <point x="185.0" y="1.0"/>
      <point x="178.0" y="8.0"/>
      <point x="178.0" y="19.0" type="curve"/>
    </contour>
    <contour>
      <point x="208.0" y="229.0"/>
      <point x="185.0" y="229.0"/>
      <point x="208.0" y="229.0" type="curve"/>
      <point x="208.0" y="393.0"/>
      <point x="208.0" y="558.0"/>
      <point x="208.0" y="722.0" type="curve"/>
      <point x="185.0" y="722.0"/>
      <point x="208.0" y="722.0"/>
      <point x="185.0" y="722.0" type="curve"/>
      <point x="185.0" y="558.0"/>
      <point x="185.0" y="393.0"/>
      <point x="185.0" y="229.0" type="curve"/>
    </contour>
  </outline>
</glyph>
<glyph name="quotedbl" format="1">
  <advance width="534"/>
  <unicode hex="0022"/>
  <outline>
    <contour>
      <point x="209.2" y="658.0"/>
      <point x="185.0" y="658.0"/>
      <point x="209.2" y="658.0" type="curve"/>
      <point x="209.2" y="720.66604"/>
      <point x="209.2" y="783.33396"/>
      <point x="209.2" y="846.0" type="curve"/>
      <point x="185.0" y="846.0"/>
      <point x="209.2" y="846.0"/>
      <point x="185.0" y="846.0" type="curve"/>
      <point x="185.0" y="783.33396"/>
      <point x="185.0" y="720.66604"/>
      <point x="185.0" y="658.0" type="curve"/>
    </contour>
    <contour>
      <point x="460.425" y="658.0"/>
      <point x="437.325" y="658.0"/>
      <point x="460.425" y="658.0" type="curve"/>
      <point x="460.425" y="720.66604"/>
      <point x="460.425" y="783.33396"/>
      <point x="460.425" y="846.0" type="curve"/>
      <point x="437.325" y="846.0"/>
      <point x="460.425" y="846.0"/>
      <point x="437.325" y="846.0" type="curve"/>
      <point x="437.325" y="783.33396"/>
      <point x="437.325" y="720.66604"/>
      <point x="437.325" y="658.0" type="curve"/>
    </contour>
  </outline>
</glyph>
<glyph name="dollar" format="1">
  <advance width="705"/>
  <unicode hex="0024"/>
  <outline>
    <contour>
      <point x="90.0" y="99.0"/>
      <point x="68.0" y="99.0"/>
      <point x="90.0" y="99.0" type="curve"/>
      <point x="90.0" y="219.0"/>
      <point x="90.0" y="99.0"/>
      <point x="90.0" y="219.0" type="curve"/>
      <point x="68.0" y="219.0"/>
      <point x="90.0" y="219.0"/>
      <point x="68.0" y="219.0" type="curve"/>
      <point x="68.0" y="99.0"/>
      <point x="68.0" y="219.0"/>
      <point x="68.0" y="99.0" type="curve"/>
    </contour>
    <contour>
      <point x="589.745" y="631.081888889"/>
      <point x="611.525" y="631.081888889"/>
      <point x="589.745" y="631.081888889" type="curve"/>
      <point x="589.745" y="511.081888889"/>
      <point x="589.745" y="631.081888889"/>
      <point x="589.745" y="511.081888889" type="curve"/>
      <point x="611.525" y="511.081888889"/>
      <point x="589.745" y="511.081888889"/>
      <point x="611.525" y="511.081888889" type="curve"/>
      <point x="611.525" y="631.081888889"/>
      <point x="611.525" y="511.081888889"/>
      <point x="611.525" y="631.081888889" type="curve"/>
    </contour>
    <contour>
      <point x="341.5" y="-43.1"/>
      <point x="317.3" y="-43.1"/>
      <point x="341.5" y="-43.1" type="curve"/>
      <point x="341.5" y="-9.1758948"/>
      <point x="341.5" y="24.7492281333"/>
      <point x="341.5" y="58.6733333333" type="curve"/>
      <point x="317.3" y="58.6733333333"/>
      <point x="341.5" y="58.6733333333"/>
      <point x="317.3" y="58.6733333333" type="curve"/>
      <point x="317.3" y="24.7492281333"/>
      <point x="317.3" y="-9.1758948"/>
      <point x="317.3" y="-43.1" type="curve"/>
    </contour>
    <contour>
      <point x="357.7" y="671.308888889"/>
      <point x="333.5" y="671.308888889"/>
      <point x="357.7" y="671.308888889" type="curve"/>
      <point x="357.7" y="705.232994089"/>
      <point x="357.7" y="739.158117022"/>
      <point x="357.7" y="773.082222222" type="curve"/>
      <point x="333.5" y="773.082222222"/>
      <point x="357.7" y="773.082222222"/>
      <point x="333.5" y="773.082222222" type="curve"/>
      <point x="333.5" y="739.158117022"/>
      <point x="333.5" y="705.232994089"/>
      <point x="333.5" y="671.308888889" type="curve"/>
    </contour>
    <contour>
      <point x="68.0" y="99.0"/>
      <point x="81.0" y="118.0"/>
      <point x="68.0" y="99.0" type="curve"/>
      <point x="142.0" y="71.0"/>
      <point x="230.0" y="48.0"/>
      <point x="328.0" y="48.0" type="curve"/>
      <point x="489.0" y="48.0"/>
      <point x="632.0" y="73.0"/>
      <point x="632.0" y="198.0" type="curve"/>
      <point x="632.0" y="320.0"/>
      <point x="491.0" y="342.0"/>
      <point x="356.0" y="385.0" type="curve"/>
      <point x="236.0" y="423.0"/>
      <point x="127.0" y="443.0"/>
      <point x="127.0" y="543.0" type="curve"/>
      <point x="127.0" y="635.0"/>
      <point x="231.0" y="662.0"/>
      <point x="352.0" y="662.0" type="curve"/>
      <point x="447.0" y="662.0"/>
      <point x="514.0" y="647.0"/>
      <point x="599.0" y="613.0" type="curve"/>
      <point x="612.0" y="631.0"/>
      <point x="599.0" y="613.0"/>
      <point x="612.0" y="631.0" type="curve"/>
      <point x="523.0" y="666.0"/>
      <point x="452.0" y="683.0"/>
      <point x="354.0" y="683.0" type="curve"/>
      <point x="216.0" y="683.0"/>
      <point x="103.0" y="651.0"/>
      <point x="103.0" y="543.0" type="curve"/>
      <point x="103.0" y="429.0"/>
      <point x="216.0" y="405.0"/>
      <point x="342.0" y="365.0" type="curve"/>
      <point x="470.0" y="326.0"/>
      <point x="608.0" y="304.0"/>
      <point x="608.0" y="197.0" type="curve"/>
      <point x="608.0" y="93.0"/>
      <point x="478.0" y="69.0"/>
      <point x="331.0" y="69.0" type="curve"/>
      <point x="236.0" y="69.0"/>
      <point x="152.0" y="93.0"/>
      <point x="81.0" y="118.0" type="curve"/>
    </contour>
  </outline>
</glyph>
<glyph name="quotesingle" format="1">
  <advance width="187"/>
  <unicode hex="0027"/>
  <outline>
    <contour>
      <point x="105.0" y="658.0"/>
      <point x="81.0" y="658.0"/>
      <point x="105.0" y="658.0" type="curve"/>
      <point x="105.0" y="721.0"/>
      <point x="105.0" y="783.0"/>
      <point x="105.0" y="846.0" type="curve"/>
      <point x="81.0" y="846.0"/>
      <point x="105.0" y="846.0"/>
      <point x="81.0" y="846.0" type="curve"/>
      <point x="81.0" y="783.0"/>
      <point x="81.0" y="721.0"/>
      <point x="81.0" y="658.0" type="curve"/>
    </contour>
  </outline>
</glyph>
<glyph name="parenleft" format="1">
  <advance width="475"/>
  <unicode hex="0028"/>
  <outline>
    <contour>
      <point x="425.0" y="-235.0"/>
      <point x="411.0" y="-251.0"/>
      <point x="425.0" y="-235.0" type="curve"/>
      <point x="220.0" y="-86.0"/>
      <point x="106.0" y="73.0"/>
      <point x="106.0" y="326.0" type="curve"/>
      <point x="106.0" y="578.0"/>
      <point x="221.0" y="735.0"/>
      <point x="423.0" y="888.0" type="curve"/>
      <point x="409.0" y="903.0"/>
      <point x="423.0" y="888.0"/>
      <point x="409.0" y="903.0" type="curve"/>
      <point x="198.0" y="749.0"/>
      <point x="81.0" y="586.0"/>
      <point x="81.0" y="326.0" type="curve"/>
      <point x="81.0" y="66.0"/>
      <point x="199.0" y="-96.0"/>
      <point x="411.0" y="-251.0" type="curve"/>
    </contour>
  </outline>
</glyph>
<glyph name="parenright" format="1">
  <advance width="537"/>
  <unicode hex="0029"/>
  <outline>
    <contour>
      <point x="130.0" y="-267.0"/>
      <point x="115.0" y="-252.0"/>
      <point x="130.0" y="-267.0" type="curve"/>
      <point x="346.0" y="-104.0"/>
      <point x="477.0" y="57.0"/>
      <point x="477.0" y="327.0" type="curve"/>
      <point x="477.0" y="591.0"/>
      <point x="353.0" y="751.0"/>
      <point x="135.0" y="903.0" type="curve"/>
      <point x="121.0" y="887.0"/>
      <point x="135.0" y="903.0"/>
      <point x="121.0" y="887.0" type="curve"/>
      <point x="330.0" y="736.0"/>
      <point x="451.0" y="582.0"/>
      <point x="451.0" y="326.0" type="curve"/>
      <point x="451.0" y="65.0"/>
      <point x="320.0" y="-89.0"/>
      <point x="115.0" y="-252.0" type="curve"/>
    </contour>
  </outline>
</glyph>
<glyph name="asterisk" format="1">
  <advance width="338"/>
  <unicode hex="002A"/>
  <outline>
    <contour>
      <point x="225.5" y="669.313333333"/>
      <point x="248.6" y="669.313333333"/>
      <point x="225.5" y="669.313333333" type="curve"/>
      <point x="226.165191236" y="618.758799405"/>
      <point x="227.034808764" y="568.20564504"/>
      <point x="227.7" y="517.651111111" type="curve"/>
      <point x="246.6" y="517.651111111"/>
      <point x="227.7" y="517.651111111"/>
      <point x="246.6" y="517.651111111" type="curve"/>
      <point x="247.26517879" y="568.204699167"/>
      <point x="247.93482121" y="618.759745278"/>
      <point x="248.6" y="669.313333333" type="curve"/>
    </contour>
    <contour>
      <point x="424.9" y="583.349"/>
      <point x="433.3" y="561.53"/>
      <point x="424.9" y="583.349" type="curve"/>
      <point x="361.427637501" y="564.123646655"/>
      <point x="297.772362499" y="545.500464456"/>
      <point x="234.3" y="526.275111111" type="curve"/>
      <point x="240.6" y="509.651111111"/>
      <point x="234.3" y="526.275111111"/>
      <point x="240.6" y="509.651111111" type="curve"/>
      <point x="304.906322842" y="526.669232483"/>
      <point x="368.993677158" y="544.511878628"/>
      <point x="433.3" y="561.53" type="curve"/>
    </contour>
    <contour>
      <point x="386.8" y="415.481666667"/>
      <point x="370.0" y="399.896666667"/>
      <point x="386.8" y="415.481666667" type="curve"/>
      <point x="339.609656713" y="451.66232208"/>
      <point x="292.490343287" y="487.938455698"/>
      <point x="245.3" y="524.119111111" type="curve"/>
      <point x="230.6" y="511.651111111"/>
      <point x="245.3" y="524.119111111"/>
      <point x="230.6" y="511.651111111" type="curve"/>
      <point x="277.010957767" y="474.331144024"/>
      <point x="323.589042233" y="437.216633754"/>
      <point x="370.0" y="399.896666667" type="curve"/>
    </contour>
    <contour>
      <point x="41.5" y="560.711"/>
      <point x="49.9" y="582.53"/>
      <point x="41.5" y="560.711" type="curve"/>
      <point x="105.821011503" y="543.688991399"/>
      <point x="169.978988497" y="526.049119712"/>
      <point x="234.3" y="509.027111111" type="curve"/>
      <point x="240.6" y="525.651111111"/>
      <point x="234.3" y="509.027111111"/>
      <point x="240.6" y="525.651111111" type="curve"/>
      <point x="177.114756932" y="544.880365894"/>
      <point x="113.385243068" y="563.300745217"/>
      <point x="49.9" y="582.53" type="curve"/>
    </contour>
    <contour>
      <point x="106.0" y="399.311666667"/>
      <point x="89.2" y="414.896666667"/>
      <point x="106.0" y="399.311666667" type="curve"/>
      <point x="152.409696713" y="436.630619716"/>
      <point x="198.890303287" y="473.864158062"/>
      <point x="245.3" y="511.183111111" type="curve"/>
      <point x="230.6" y="523.651111111"/>
      <point x="245.3" y="511.183111111"/>
      <point x="230.6" y="523.651111111" type="curve"/>
      <point x="183.411751305" y="487.472061613"/>
      <point x="136.388248695" y="451.075716165"/>
      <point x="89.2" y="414.896666667" type="curve"/>
    </contour>
  </outline>
</glyph>
<glyph name="plus" format="1">
  <advance width="875"/>
  <unicode hex="002B"/>
  <outline>
    <contour>
      <point x="156.0" y="297.0"/>
      <point x="156.0" y="321.0"/>
      <point x="156.0" y="297.0" type="curve"/>
      <point x="156.0" y="297.0"/>
      <point x="781.0" y="297.0"/>
      <point x="781.0" y="297.0" type="curve"/>
      <point x="781.0" y="321.0"/>
      <point x="781.0" y="297.0"/>
      <point x="781.0" y="321.0" type="curve"/>
      <point x="781.0" y="321.0"/>
      <point x="156.0" y="321.0"/>
      <point x="156.0" y="321.0" type="curve"/>
    </contour>
    <contour>
      <point x="475.15" y="18.0"/>
      <point x="450.95" y="18.0"/>
      <point x="475.15" y="18.0" type="curve"/>
      <point x="475.15" y="18.0"/>
      <point x="475.15" y="588.0"/>
      <point x="475.15" y="588.0" type="curve"/>
      <point x="450.95" y="588.0"/>
      <point x="475.15" y="588.0"/>
      <point x="450.95" y="588.0" type="curve"/>
      <point x="450.95" y="588.0"/>
      <point x="450.95" y="18.0"/>
      <point x="450.95" y="18.0" type="curve"/>
    </contour>
  </outline>
</glyph>
<glyph name="comma" format="1">
  <advance width="212"/>
  <unicode hex="002C"/>
  <outline>
    <contour>
      <point x="51" y="-149"/>
      <point x="27" y="-149"/>
      <point x="51" y="-149" type="curve"/>
      <point x="101" y="-89"/>
      <point x="150" y="-28"/>
      <point x="199" y="32" type="curve"/>
      <point x="168" y="32"/>
      <point x="199" y="32"/>
      <point x="168" y="32" type="curve"/>
      <point x="121" y="-28"/>
      <point x="74" y="-89"/>
      <point x="27" y="-149" type="curve"/>
    </contour>
    <contour>
      <point x="112" y="148" type="move" name="_bottom"/>
    </contour>
  </outline>
</glyph>
<glyph name="hyphen" format="1">
  <advance width="472"/>
  <unicode hex="002D"/>
  <outline>
    <contour>
      <point x="122.85" y="260.339777778"/>
      <point x="122.85" y="284.055777778"/>
      <point x="122.85" y="260.339777778" type="curve"/>
      <point x="253.7986905" y="260.339777778"/>
      <point x="384.7513095" y="260.339777778"/>
      <point x="515.7" y="260.339777778" type="curve"/>
      <point x="515.7" y="284.055777778"/>
      <point x="515.7" y="260.339777778"/>
      <point x="515.7" y="284.055777778" type="curve"/>
      <point x="384.7513095" y="284.055777778"/>
      <point x="253.7986905" y="284.055777778"/>
      <point x="122.85" y="284.055777778" type="curve"/>
    </contour>
  </outline>
</glyph>
<glyph name="period" format="1">
  <advance width="168"/>
  <unicode hex="002E"/>
  <outline>
    <contour>
      <point x="72.0" y="12.0"/>
      <point x="82.0" y="12.0"/>
      <point x="96.0" y="12.0" type="curve"/>
      <point x="96.0" y="23.0"/>
      <point x="88.0" y="30.0"/>
      <point x="76.0" y="30.0" type="curve"/>
      <point x="65.0" y="30.0"/>
      <point x="58.0" y="23.0"/>
      <point x="58.0" y="12.0" type="curve"/>
      <point x="72.0" y="12.0"/>
      <point x="82.0" y="12.0"/>
      <point x="96.0" y="12.0" type="curve"/>
      <point x="96.0" y="1.0"/>
      <point x="88.0" y="-6.0"/>
      <point x="76.0" y="-6.0" type="curve"/>
      <point x="65.0" y="-6.0"/>
      <point x="58.0" y="1.0"/>
      <point x="58.0" y="12.0" type="curve"/>
    </contour>
  </outline>
</glyph>
<glyph name="slash" format="1">
  <advance width="683"/>
  <unicode hex="002F"/>
  <outline>
    <contour>
      <point x="86.35" y="-67.0466666667"/>
      <point x="62.15" y="-67.0466666667"/>
      <point x="86.35" y="-67.0466666667" type="curve"/>
      <point x="278.048083" y="236.274744533"/>
      <point x="469.751917" y="539.605255467"/>
      <point x="661.45" y="842.926666667" type="curve"/>
      <point x="637.25" y="842.926666667"/>
      <point x="661.45" y="842.926666667"/>
      <point x="637.25" y="842.926666667" type="curve"/>
      <point x="445.551917" y="539.605255467"/>
      <point x="253.848083" y="236.274744533"/>
      <point x="62.15" y="-67.0466666667" type="curve"/>
    </contour>
  </outline>
</glyph>
<glyph name="one" format="1">
  <advance width="531"/>
  <unicode hex="0031"/>
  <outline>
    <contour>
      <point x="309.0" y="0.0"/>
      <point x="309.0" y="22.0"/>
      <point x="309.0" y="0.0" type="curve"/>
      <point x="375.0" y="0.0"/>
      <point x="441.0" y="0.0"/>
      <point x="508.0" y="0.0" type="curve"/>
      <point x="508.0" y="22.0"/>
      <point x="508.0" y="0.0"/>
      <point x="508.0" y="22.0" type="curve"/>
      <point x="309.0" y="22.0"/>
      <point x="508.0" y="22.0"/>
      <point x="309.0" y="22.0" type="curve"/>
    </contour>
    <contour>
      <point x="309.0" y="22.0"/>
      <point x="309.0" y="0.0"/>
      <point x="309.0" y="22.0" type="curve"/>
      <point x="110.0" y="22.0"/>
      <point x="309.0" y="22.0"/>
      <point x="110.0" y="22.0" type="curve"/>
      <point x="110.0" y="0.0"/>
      <point x="110.0" y="22.0"/>
      <point x="110.0" y="0.0" type="curve"/>
      <point x="176.0" y="0.0"/>
      <point x="242.0" y="0.0"/>
      <point x="309.0" y="0.0" type="curve"/>
    </contour>
    <contour>
      <point x="37.0" y="531.0"/>
      <point x="23.0" y="550.0"/>
      <point x="37.0" y="531.0" type="curve"/>
      <point x="314.0" y="705.0"/>
      <point x="37.0" y="531.0"/>
      <point x="314.0" y="705.0" type="curve"/>
      <point x="294.0" y="722.0"/>
      <point x="314.0" y="705.0"/>
      <point x="294.0" y="722.0" type="curve"/>
      <point x="23.0" y="550.0"/>
      <point x="294.0" y="722.0"/>
      <point x="23.0" y="550.0" type="curve"/>
    </contour>
    <contour>
      <point x="318.0" y="0.0"/>
      <point x="294.0" y="0.0"/>
      <point x="318.0" y="0.0" type="curve"/>
      <point x="318.0" y="241.0"/>
      <point x="318.0" y="481.0"/>
      <point x="318.0" y="722.0" type="curve"/>
      <point x="294.0" y="722.0"/>
      <point x="318.0" y="722.0"/>
      <point x="294.0" y="722.0" type="curve"/>
      <point x="294.0" y="481.0"/>
      <point x="294.0" y="241.0"/>
      <point x="294.0" y="0.0" type="curve"/>
    </contour>
  </outline>
</glyph>
<glyph name="two" format="1">
  <advance width="737"/>
  <unicode hex="0032"/>
  <outline>
    <contour>
      <point x="670.0" y="22.0"/>
      <point x="648.0" y="22.0"/>
      <point x="670.0" y="22.0" type="curve"/>
      <point x="670.0" y="142.0"/>
      <point x="670.0" y="22.0"/>
      <point x="670.0" y="142.0" type="curve"/>
      <point x="648.0" y="142.0"/>
      <point x="670.0" y="142.0"/>
      <point x="648.0" y="142.0" type="curve"/>
      <point x="648.0" y="22.0"/>
      <point x="648.0" y="142.0"/>
      <point x="648.0" y="22.0" type="curve"/>
    </contour>
    <contour>
      <point x="87.0" y="0.0"/>
      <point x="87.0" y="22.0"/>
      <point x="87.0" y="0.0" type="curve"/>
      <point x="287.0" y="0.0"/>
      <point x="469.0" y="0.0"/>
      <point x="670.0" y="0.0" type="curve"/>
      <point x="670.0" y="22.0"/>
      <point x="670.0" y="0.0"/>
      <point x="670.0" y="22.0" type="curve"/>
      <point x="465.0" y="22.0"/>
      <point x="291.0" y="22.0"/>
      <point x="87.0" y="22.0" type="curve"/>
    </contour>
    <contour>
      <point x="136.0" y="563.0"/>
      <point x="117.0" y="576.0"/>
      <point x="136.0" y="563.0" type="curve"/>
      <point x="203.0" y="656.0"/>
      <point x="280.0" y="702.0"/>
      <point x="394.0" y="702.0" type="curve"/>
      <point x="525.0" y="702.0"/>
      <point x="622.0" y="651.0"/>
      <point x="622.0" y="526.0" type="curve"/>
      <point x="622.0" y="380.0"/>
      <point x="520.0" y="319.0"/>
      <point x="395.0" y="237.0" type="curve"/>
      <point x="292.0" y="165.0"/>
      <point x="189.0" y="93.0"/>
      <point x="87.0" y="22.0" type="curve"/>
      <point x="98.0" y="0.0"/>
      <point x="87.0" y="22.0"/>
      <point x="98.0" y="0.0" type="curve"/>
      <point x="202.0" y="73.0"/>
      <point x="306.0" y="147.0"/>
      <point x="410.0" y="220.0" type="curve"/>
      <point x="541.0" y="305.0"/>
      <point x="646.0" y="373.0"/>
      <point x="646.0" y="527.0" type="curve"/>
      <point x="646.0" y="665.0"/>
      <point x="542.0" y="727.0"/>
      <point x="396.0" y="727.0" type="curve"/>
      <point x="273.0" y="727.0"/>
      <point x="182.0" y="675.0"/>
      <point x="117.0" y="576.0" type="curve"/>
    </contour>
  </outline>
</glyph>
<glyph name="three" format="1">
  <advance width="655"/>
  <unicode hex="0033"/>
  <outline>
    <contour>
      <point x="89.25" y="56.0761111111"/>
      <point x="102.45" y="72.2461111111"/>
      <point x="89.25" y="56.0761111111" type="curve"/>
      <point x="172.263318906" y="16.363547027"/>
      <point x="237.73191503" y="-5.0"/>
      <point x="330.875" y="-5.0" type="curve"/>
      <point x="501.559140617" y="-5.0"/>
      <point x="631.875" y="38.8060723233"/>
      <point x="631.875" y="195.409" type="curve"/>
      <point x="631.875" y="343.906563737"/>
      <point x="495.143597243" y="393.610777778"/>
      <point x="311.85" y="393.610777778" type="curve"/>
      <point x="311.85" y="375.284777778"/>
      <point x="311.85" y="393.610777778"/>
      <point x="311.85" y="375.284777778" type="curve"/>
      <point x="457.775850368" y="375.284777778"/>
      <point x="608.775" y="336.845803987"/>
      <point x="608.775" y="194.331" type="curve"/>
      <point x="608.775" y="55.044241071"/>
      <point x="471.285158516" y="21.56"/>
      <point x="331.975" y="21.56" type="curve"/>
      <point x="244.774855148" y="21.56"/>
      <point x="181.506310856" y="36.9729908048"/>
      <point x="102.45" y="72.2461111111" type="curve"/>
    </contour>
    <contour>
      <point x="114.35" y="624.889666667"/>
      <point x="98.95" y="638.903666667"/>
      <point x="114.35" y="624.889666667" type="curve"/>
      <point x="161.270930569" y="669.675094814"/>
      <point x="243.793742805" y="700.44"/>
      <point x="331.0" y="700.44" type="curve"/>
      <point x="462.219947159" y="700.44"/>
      <point x="564.225" y="667.727415575"/>
      <point x="564.225" y="549.539888889" type="curve"/>
      <point x="564.225" y="429.981791247"/>
      <point x="439.824513807" y="393.610777778"/>
      <point x="311.85" y="393.610777778" type="curve"/>
      <point x="311.85" y="375.284777778"/>
      <point x="311.85" y="393.610777778"/>
      <point x="311.85" y="375.284777778" type="curve"/>
      <point x="461.836291141" y="375.284777778"/>
      <point x="587.325" y="418.265496101"/>
      <point x="587.325" y="550.617888889" type="curve"/>
      <point x="587.325" y="681.6940948"/>
      <point x="476.944981826" y="727.0"/>
      <point x="333.2" y="727.0" type="curve"/>
      <point x="237.908715117" y="727.0"/>
      <point x="150.433513713" y="690.337754528"/>
      <point x="98.95" y="638.903666667" type="curve"/>
    </contour>
  </outline>
</glyph>
<glyph name="four" format="1">
  <advance width="798"/>
  <unicode hex="0034"/>
  <outline>
    <contour>
      <point x="505.0" y="22.0"/>
      <point x="505.0" y="0.0"/>
      <point x="505.0" y="22.0" type="curve"/>
      <point x="306.0" y="22.0"/>
      <point x="505.0" y="22.0"/>
      <point x="306.0" y="22.0" type="curve"/>
      <point x="306.0" y="0.0"/>
      <point x="306.0" y="22.0"/>
      <point x="306.0" y="0.0" type="curve"/>
      <point x="373.0" y="0.0"/>
      <point x="439.0" y="0.0"/>
      <point x="505.0" y="0.0" type="curve"/>
    </contour>
    <contour>
      <point x="505.0" y="0.0"/>
      <point x="505.0" y="22.0"/>
      <point x="505.0" y="0.0" type="curve"/>
      <point x="572.0" y="0.0"/>
      <point x="638.0" y="0.0"/>
      <point x="704.0" y="0.0" type="curve"/>
      <point x="704.0" y="22.0"/>
      <point x="704.0" y="0.0"/>
      <point x="704.0" y="22.0" type="curve"/>
      <point x="505.0" y="22.0"/>
      <point x="704.0" y="22.0"/>
      <point x="505.0" y="22.0" type="curve"/>
    </contour>
    <contour>
      <point x="62.0" y="264.0"/>
      <point x="49.0" y="288.0"/>
      <point x="62.0" y="264.0" type="curve"/>
      <point x="511.0" y="705.0"/>
      <point x="62.0" y="264.0"/>
      <point x="511.0" y="705.0" type="curve"/>
      <point x="495.0" y="722.0"/>
      <point x="511.0" y="705.0"/>
      <point x="495.0" y="722.0" type="curve"/>
      <point x="49.0" y="288.0"/>
      <point x="495.0" y="722.0"/>
      <point x="49.0" y="288.0" type="curve"/>
    </contour>
    <contour>
      <point x="773.0" y="288.0"/>
      <point x="773.0" y="264.0"/>
      <point x="773.0" y="288.0" type="curve"/>
      <point x="773.0" y="288.0"/>
      <point x="49.0" y="288.0"/>
      <point x="49.0" y="288.0" type="curve"/>
      <point x="62.0" y="264.0"/>
      <point x="49.0" y="288.0"/>
      <point x="62.0" y="264.0" type="curve"/>
      <point x="62.0" y="264.0"/>
      <point x="773.0" y="264.0"/>
      <point x="773.0" y="264.0" type="curve"/>
    </contour>
    <contour>
      <point x="495.0" y="722.0"/>
      <point x="519.0" y="722.0"/>
      <point x="495.0" y="722.0" type="curve"/>
      <point x="495.0" y="722.0"/>
      <point x="495.0" y="1.0"/>
      <point x="495.0" y="1.0" type="curve"/>
      <point x="519.0" y="1.0"/>
      <point x="495.0" y="1.0"/>
      <point x="519.0" y="1.0" type="curve"/>
      <point x="519.0" y="1.0"/>
      <point x="519.0" y="722.0"/>
      <point x="519.0" y="722.0" type="curve"/>
    </contour>
  </outline>
</glyph>
<glyph name="six" format="1">
  <advance width="646"/>
  <unicode hex="0036"/>
  <outline>
    <contour>
      <point x="56.0" y="230.0"/>
      <point x="39.0" y="241.0"/>
      <point x="56.0" y="230.0" type="curve"/>
      <point x="119.0" y="343.0"/>
      <point x="219.0" y="385.0"/>
      <point x="339.0" y="385.0" type="curve"/>
      <point x="482.0" y="385.0"/>
      <point x="587.0" y="332.0"/>
      <point x="587.0" y="202.0" type="curve"/>
      <point x="587.0" y="76.0"/>
      <point x="483.0" y="21.0"/>
      <point x="345.0" y="21.0" type="curve"/>
      <point x="180.0" y="21.0"/>
      <point x="60.0" y="91.0"/>
      <point x="60.0" y="242.0" type="curve"/>
      <point x="60.0" y="543.0"/>
      <point x="317.0" y="645.0"/>
      <point x="628.0" y="717.0" type="curve"/>
      <point x="624.0" y="734.0"/>
      <point x="628.0" y="717.0"/>
      <point x="624.0" y="734.0" type="curve"/>
      <point x="294.0" y="665.0"/>
      <point x="35.0" y="554.0"/>
      <point x="35.0" y="241.0" type="curve"/>
      <point x="35.0" y="75.0"/>
      <point x="166.0" y="-5.0"/>
      <point x="344.0" y="-5.0" type="curve"/>
      <point x="500.0" y="-5.0"/>
      <point x="613.0" y="61.0"/>
      <point x="613.0" y="203.0" type="curve"/>
      <point x="613.0" y="347.0"/>
      <point x="497.0" y="409.0"/>
      <point x="341.0" y="409.0" type="curve"/>
      <point x="202.0" y="409.0"/>
      <point x="97.0" y="357.0"/>
      <point x="39.0" y="241.0" type="curve"/>
    </contour>
  </outline>
</glyph>
<glyph name="seven" format="1">
  <advance width="729"/>
  <unicode hex="0037"/>
  <outline>
    <contour>
      <point x="81.0" y="580.0"/>
      <point x="59.0" y="580.0"/>
      <point x="81.0" y="580.0" type="curve"/>
      <point x="81.0" y="700.0"/>
      <point x="81.0" y="580.0"/>
      <point x="81.0" y="700.0" type="curve"/>
      <point x="59.0" y="700.0"/>
      <point x="81.0" y="700.0"/>
      <point x="59.0" y="700.0" type="curve"/>
      <point x="59.0" y="580.0"/>
      <point x="59.0" y="700.0"/>
      <point x="59.0" y="580.0" type="curve"/>
    </contour>
    <contour>
      <point x="59.0" y="700.0"/>
      <point x="59.0" y="722.0"/>
      <point x="59.0" y="700.0" type="curve"/>
      <point x="272.0" y="700.0"/>
      <point x="485.0" y="700.0"/>
      <point x="697.0" y="700.0" type="curve"/>
      <point x="697.0" y="722.0"/>
      <point x="697.0" y="700.0"/>
      <point x="697.0" y="722.0" type="curve"/>
      <point x="476.0" y="722.0"/>
      <point x="267.0" y="722.0"/>
      <point x="59.0" y="722.0" type="curve"/>
    </contour>
    <contour>
      <point x="684.0" y="722.0"/>
      <point x="697.0" y="700.0"/>
      <point x="684.0" y="722.0" type="curve"/>
      <point x="114.0" y="0.0"/>
      <point x="682.0" y="721.0"/>
      <point x="113.0" y="0.0" type="curve"/>
      <point x="140.0" y="0.0"/>
      <point x="129.0" y="0.0"/>
      <point x="144.0" y="0.0" type="curve"/>
      <point x="696.0" y="699.0"/>
      <point x="144.0" y="0.0"/>
      <point x="697.0" y="700.0" type="curve"/>
    </contour>
  </outline>
</glyph>
<glyph name="eight" format="1">
  <advance width="604"/>
  <unicode hex="0038"/>
  <outline>
    <contour>
      <point x="61.0" y="562.0"/>
      <point x="85.0" y="562.0"/>
      <point x="61.0" y="562.0" type="curve"/>
      <point x="61.0" y="434.0"/>
      <point x="174.0" y="415.0"/>
      <point x="300.0" y="369.0" type="curve"/>
      <point x="433.0" y="320.0"/>
      <point x="554.0" y="297.0"/>
      <point x="554.0" y="170.0" type="curve"/>
      <point x="554.0" y="47.0"/>
      <point x="445.0" y="19.0"/>
      <point x="304.0" y="19.0" type="curve"/>
      <point x="164.0" y="19.0"/>
      <point x="59.0" y="49.0"/>
      <point x="59.0" y="170.0" type="curve"/>
      <point x="59.0" y="301.0"/>
      <point x="182.0" y="319.0"/>
      <point x="317.0" y="369.0" type="curve"/>
      <point x="439.0" y="417.0"/>
      <point x="552.0" y="434.0"/>
      <point x="552.0" y="560.0" type="curve"/>
      <point x="552.0" y="688.0"/>
      <point x="449.0" y="727.0"/>
      <point x="304.0" y="727.0" type="curve"/>
      <point x="165.0" y="727.0"/>
      <point x="61.0" y="685.0"/>
      <point x="61.0" y="562.0" type="curve"/>
      <point x="85.0" y="562.0"/>
      <point x="61.0" y="562.0"/>
      <point x="85.0" y="562.0" type="curve"/>
      <point x="85.0" y="670.0"/>
      <point x="180.0" y="703.0"/>
      <point x="303.0" y="703.0" type="curve"/>
      <point x="433.0" y="703.0"/>
      <point x="528.0" y="674.0"/>
      <point x="528.0" y="560.0" type="curve"/>
      <point x="528.0" y="446.0"/>
      <point x="418.0" y="429.0"/>
      <point x="300.0" y="387.0" type="curve"/>
      <point x="160.0" y="334.0"/>
      <point x="35.0" y="313.0"/>
      <point x="35.0" y="170.0" type="curve"/>
      <point x="35.0" y="36.0"/>
      <point x="149.0" y="-5.0"/>
      <point x="303.0" y="-5.0" type="curve"/>
      <point x="459.0" y="-5.0"/>
      <point x="578.0" y="32.0"/>
      <point x="578.0" y="170.0" type="curve"/>
      <point x="578.0" y="310.0"/>
      <point x="454.0" y="335.0"/>
      <point x="317.0" y="387.0" type="curve"/>
      <point x="197.0" y="432.0"/>
      <point x="85.0" y="445.0"/>
      <point x="85.0" y="562.0" type="curve"/>
    </contour>
  </outline>
</glyph>
<glyph name="colon" format="1">
  <advance width="168"/>
  <unicode hex="003A"/>
  <outline>
    <contour>
      <point x="90.0" y="427.0"/>
      <point x="62.0" y="427.0"/>
      <point x="90.0" y="427.0" type="curve"/>
      <point x="90.0" y="436.0"/>
      <point x="84.0" y="441.0"/>
      <point x="75.0" y="441.0" type="curve"/>
      <point x="67.0" y="441.0"/>
      <point x="62.0" y="435.0"/>
      <point x="62.0" y="427.0" type="curve"/>
      <point x="90.0" y="427.0"/>
      <point x="62.0" y="427.0"/>
      <point x="90.0" y="427.0" type="curve"/>
      <point x="90.0" y="417.0"/>
      <point x="84.0" y="413.0"/>
      <point x="75.0" y="413.0" type="curve"/>
      <point x="67.0" y="413.0"/>
      <point x="62.0" y="419.0"/>
      <point x="62.0" y="427.0" type="curve"/>
    </contour>
    <contour>
      <point x="90.0" y="12.0"/>
      <point x="62.0" y="12.0"/>
      <point x="90.0" y="12.0" type="curve"/>
      <point x="90.0" y="21.0"/>
      <point x="84.0" y="26.0"/>
      <point x="75.0" y="26.0" type="curve"/>
      <point x="67.0" y="26.0"/>
      <point x="62.0" y="20.0"/>
      <point x="62.0" y="12.0" type="curve"/>
      <point x="90.0" y="12.0"/>
      <point x="62.0" y="12.0"/>
      <point x="90.0" y="12.0" type="curve"/>
      <point x="90.0" y="2.0"/>
      <point x="84.0" y="-2.0"/>
      <point x="75.0" y="-2.0" type="curve"/>
      <point x="67.0" y="-2.0"/>
      <point x="62.0" y="4.0"/>
      <point x="62.0" y="12.0" type="curve"/>
    </contour>
  </outline>
</glyph>
<glyph name="semicolon" format="1">
  <advance width="146"/>
  <unicode hex="003B"/>
  <outline>
    <contour>
      <point x="-44.0" y="-99.0"/>
      <point x="-68.0" y="-99.0"/>
      <point x="-44.0" y="-99.0" type="curve"/>
      <point x="6.0" y="-39.0"/>
      <point x="55.0" y="22.0"/>
      <point x="104.0" y="82.0" type="curve"/>
      <point x="73.0" y="82.0"/>
      <point x="104.0" y="82.0"/>
      <point x="73.0" y="82.0" type="curve"/>
      <point x="26.0" y="22.0"/>
      <point x="-21.0" y="-39.0"/>
      <point x="-68.0" y="-99.0" type="curve"/>
    </contour>
    <contour>
      <point x="90.0" y="427.0"/>
      <point x="62.0" y="427.0"/>
      <point x="90.0" y="427.0" type="curve"/>
      <point x="90.0" y="436.0"/>
      <point x="84.0" y="441.0"/>
      <point x="75.0" y="441.0" type="curve"/>
      <point x="67.0" y="441.0"/>
      <point x="62.0" y="435.0"/>
      <point x="62.0" y="427.0" type="curve"/>
      <point x="90.0" y="427.0"/>
      <point x="62.0" y="427.0"/>
      <point x="90.0" y="427.0" type="curve"/>
      <point x="90.0" y="417.0"/>
      <point x="84.0" y="413.0"/>
      <point x="75.0" y="413.0" type="curve"/>
      <point x="67.0" y="413.0"/>
      <point x="62.0" y="419.0"/>
      <point x="62.0" y="427.0" type="curve"/>
    </contour>
  </outline>
</glyph>
<glyph name="question" format="1">
  <advance width="479"/>
  <unicode hex="003F"/>
  <outline>
    <contour>
      <point x="164.0" y="334.0"/>
      <point x="189.0" y="334.0"/>
      <point x="164.0" y="334.0" type="curve"/>
      <point x="164.0" y="297.0"/>
      <point x="164.0" y="259.0"/>
      <point x="164.0" y="222.0" type="curve"/>
      <point x="189.0" y="222.0"/>
      <point x="164.0" y="222.0"/>
      <point x="189.0" y="222.0" type="curve"/>
      <point x="189.0" y="259.0"/>
      <point x="189.0" y="297.0"/>
      <point x="189.0" y="334.0" type="curve"/>
    </contour>
    <contour>
      <point x="83.0" y="672.0"/>
      <point x="75.0" y="694.0"/>
      <point x="83.0" y="672.0" type="curve"/>
      <point x="121.0" y="683.0"/>
      <point x="149.0" y="688.0"/>
      <point x="188.0" y="688.0" type="curve"/>
      <point x="320.0" y="688.0"/>
      <point x="427.0" y="637.0"/>
      <point x="427.0" y="519.0" type="curve"/>
      <point x="427.0" y="390.0"/>
      <point x="308.0" y="334.0"/>
      <point x="164.0" y="334.0" type="curve"/>
      <point x="164.0" y="311.0"/>
      <point x="164.0" y="334.0"/>
      <point x="164.0" y="311.0" type="curve"/>
      <point x="321.0" y="311.0"/>
      <point x="450.0" y="376.0"/>
      <point x="450.0" y="519.0" type="curve"/>
      <point x="450.0" y="649.0"/>
      <point x="332.0" y="710.0"/>
      <point x="190.0" y="710.0" type="curve"/>
      <point x="148.0" y="710.0"/>
      <point x="116.0" y="704.0"/>
      <point x="75.0" y="694.0" type="curve"/>
    </contour>
    <contour>
      <point x="191.0" y="11.0"/>
      <point x="163.0" y="11.0"/>
      <point x="191.0" y="11.0" type="curve"/>
      <point x="191.0" y="20.0"/>
      <point x="186.0" y="25.0"/>
      <point x="177.0" y="25.0" type="curve"/>
      <point x="168.0" y="25.0"/>
      <point x="163.0" y="19.0"/>
      <point x="163.0" y="11.0" type="curve"/>
      <point x="191.0" y="11.0"/>
      <point x="163.0" y="11.0"/>
      <point x="191.0" y="11.0" type="curve"/>
      <point x="191.0" y="2.0"/>
      <point x="186.0" y="-2.0"/>
      <point x="177.0" y="-2.0" type="curve"/>
      <point x="168.0" y="-2.0"/>
      <point x="163.0" y="3.0"/>
      <point x="163.0" y="11.0" type="curve"/>
    </contour>
  </outline>
</glyph>
<glyph name="at" format="1">
  <advance width="967"/>
  <unicode hex="0040"/>
  <outline>
    <contour>
      <point x="732.0" y="-74.0"/>
      <point x="743.0" y="-94.0"/>
      <point x="732.0" y="-74.0" type="curve"/>
      <point x="654.0" y="-107.0"/>
      <point x="599.0" y="-111.0"/>
      <point x="515.0" y="-111.0" type="curve"/>
      <point x="255.0" y="-111.0"/>
      <point x="68.0" y="-16.0"/>
      <point x="68.0" y="219.0" type="curve"/>
      <point x="68.0" y="451.0"/>
      <point x="257.0" y="545.0"/>
      <point x="513.0" y="545.0" type="curve"/>
      <point x="754.0" y="545.0"/>
      <point x="926.0" y="445.0"/>
      <point x="926.0" y="224.0" type="curve"/>
      <point x="926.0" y="136.0"/>
      <point x="891.0" y="73.0"/>
      <point x="810.0" y="73.0" type="curve"/>
      <point x="728.0" y="73.0"/>
      <point x="689.0" y="136.0"/>
      <point x="689.0" y="224.0" type="curve"/>
      <point x="689.0" y="337.0"/>
      <point x="610.0" y="397.0"/>
      <point x="493.0" y="397.0" type="curve"/>
      <point x="368.0" y="397.0"/>
      <point x="284.0" y="341.0"/>
      <point x="284.0" y="225.0" type="curve"/>
      <point x="284.0" y="105.0"/>
      <point x="365.0" y="41.0"/>
      <point x="489.0" y="41.0" type="curve"/>
      <point x="599.0" y="41.0"/>
      <point x="662.0" y="105.0"/>
      <point x="684.0" y="214.0" type="curve"/>
      <point x="669.0" y="219.0"/>
      <point x="684.0" y="214.0"/>
      <point x="669.0" y="219.0" type="curve"/>
      <point x="640.0" y="122.0"/>
      <point x="590.0" y="63.0"/>
      <point x="493.0" y="63.0" type="curve"/>
      <point x="380.0" y="63.0"/>
      <point x="307.0" y="119.0"/>
      <point x="307.0" y="226.0" type="curve"/>
      <point x="307.0" y="328.0"/>
      <point x="383.0" y="375.0"/>
      <point x="491.0" y="375.0" type="curve"/>
      <point x="596.0" y="375.0"/>
      <point x="667.0" y="324.0"/>
      <point x="667.0" y="223.0" type="curve"/>
      <point x="667.0" y="123.0"/>
      <point x="713.0" y="53.0"/>
      <point x="808.0" y="53.0" type="curve"/>
      <point x="904.0" y="53.0"/>
      <point x="949.0" y="123.0"/>
      <point x="949.0" y="225.0" type="curve"/>
      <point x="949.0" y="461.0"/>
      <point x="769.0" y="568.0"/>
      <point x="515.0" y="568.0" type="curve"/>
      <point x="242.0" y="568.0"/>
      <point x="45.0" y="467.0"/>
      <point x="45.0" y="218.0" type="curve"/>
      <point x="45.0" y="-30.0"/>
      <point x="241.0" y="-133.0"/>
      <point x="513.0" y="-133.0" type="curve"/>
      <point x="602.0" y="-133.0"/>
      <point x="661.0" y="-126.0"/>
      <point x="743.0" y="-94.0" type="curve"/>
    </contour>
  </outline>
</glyph>
<glyph name="A" format="1">
  <advance width="1156"/>
  <unicode hex="0041"/>
  <outline>
    <contour>
      <point x="214.0" y="22.0"/>
      <point x="214.0" y="0.0"/>
      <point x="214.0" y="22.0" type="curve"/>
      <point x="15.0" y="22.0"/>
      <point x="214.0" y="22.0"/>
      <point x="15.0" y="22.0" type="curve"/>
      <point x="15.0" y="0.0"/>
      <point x="15.0" y="22.0"/>
      <point x="15.0" y="0.0" type="curve"/>
      <point x="81.0" y="0.0"/>
      <point x="148.0" y="0.0"/>
      <point x="214.0" y="0.0" type="curve"/>
    </contour>
    <contour>
      <point x="214.0" y="0.0"/>
      <point x="214.0" y="22.0"/>
      <point x="214.0" y="0.0" type="curve"/>
      <point x="282.0" y="0.0"/>
      <point x="214.0" y="0.0"/>
      <point x="418.0" y="0.0" type="curve"/>
      <point x="418.0" y="22.0"/>
      <point x="418.0" y="0.0"/>
      <point x="418.0" y="22.0" type="curve"/>
      <point x="214.0" y="22.0"/>
      <point x="418.0" y="22.0"/>
      <point x="214.0" y="22.0" type="curve"/>
    </contour>
    <contour>
      <point x="952.0" y="0.0"/>
      <point x="952.0" y="22.0"/>
      <point x="952.0" y="0.0" type="curve"/>
      <point x="1019.0" y="0.0"/>
      <point x="1085.0" y="0.0"/>
      <point x="1151.0" y="0.0" type="curve"/>
      <point x="1151.0" y="22.0"/>
      <point x="1151.0" y="0.0"/>
      <point x="1151.0" y="22.0" type="curve"/>
      <point x="952.0" y="22.0"/>
      <point x="1151.0" y="22.0"/>
      <point x="952.0" y="22.0" type="curve"/>
    </contour>
    <contour>
      <point x="952.0" y="22.0"/>
      <point x="952.0" y="0.0"/>
      <point x="952.0" y="22.0" type="curve"/>
      <point x="748.0" y="22.0"/>
      <point x="952.0" y="22.0"/>
      <point x="748.0" y="22.0" type="curve"/>
      <point x="748.0" y="0.0"/>
      <point x="748.0" y="22.0"/>
      <point x="748.0" y="0.0" type="curve"/>
      <point x="816.0" y="0.0"/>
      <point x="884.0" y="0.0"/>
      <point x="952.0" y="0.0" type="curve"/>
    </contour>
    <contour>
      <point x="832.0" y="277.0"/>
      <point x="839.0" y="254.0"/>
      <point x="832.0" y="277.0" type="curve"/>
      <point x="673.0" y="277.0"/>
      <point x="514.0" y="277.0"/>
      <point x="356.0" y="277.0" type="curve"/>
      <point x="346.0" y="254.0"/>
      <point x="356.0" y="277.0"/>
      <point x="346.0" y="254.0" type="curve"/>
      <point x="510.0" y="254.0"/>
      <point x="675.0" y="254.0"/>
      <point x="839.0" y="254.0" type="curve"/>
    </contour>
    <contour>
      <point x="981.0" y="0.0"/>
      <point x="955.0" y="0.0"/>
      <point x="981.0" y="0.0" type="curve"/>
      <point x="859.0" y="241.0"/>
      <point x="738.0" y="481.0"/>
      <point x="616.0" y="722.0" type="curve"/>
      <point x="594.0" y="722.0"/>
      <point x="616.0" y="722.0"/>
      <point x="594.0" y="722.0" type="curve"/>
      <point x="715.0" y="481.0"/>
      <point x="835.0" y="241.0"/>
      <point x="955.0" y="0.0" type="curve"/>
    </contour>
    <contour>
      <point x="211.0" y="0.0"/>
      <point x="185.0" y="0.0"/>
      <point x="211.0" y="0.0" type="curve"/>
      <point x="345.0" y="241.0"/>
      <point x="479.0" y="481.0"/>
      <point x="614.0" y="722.0" type="curve"/>
      <point x="592.0" y="722.0"/>
      <point x="614.0" y="722.0"/>
      <point x="592.0" y="722.0" type="curve"/>
      <point x="456.0" y="481.0"/>
      <point x="320.0" y="241.0"/>
      <point x="185.0" y="0.0" type="curve"/>
    </contour>
    <contour>
      <point x="602" y="855" type="move" name="top"/>
    </contour>
    <contour>
      <point x="971" y="5" type="move" name="bottom"/>
    </contour>
  </outline>
</glyph>
<glyph name="B" format="1">
  <advance width="787"/>
  <unicode hex="0042"/>
  <outline>
    <contour>
      <point x="216.0" y="722.0"/>
      <point x="216.0" y="700.0"/>
      <point x="216.0" y="722.0" type="curve"/>
      <point x="149.0" y="722.0"/>
      <point x="83.0" y="722.0"/>
      <point x="16.0" y="722.0" type="curve"/>
      <point x="16.0" y="700.0"/>
      <point x="16.0" y="722.0"/>
      <point x="16.0" y="700.0" type="curve"/>
      <point x="216.0" y="700.0"/>
      <point x="16.0" y="700.0"/>
      <point x="216.0" y="700.0" type="curve"/>
    </contour>
    <contour>
      <point x="214.0" y="22.0"/>
      <point x="214.0" y="0.0"/>
      <point x="214.0" y="22.0" type="curve"/>
      <point x="15.0" y="22.0"/>
      <point x="214.0" y="22.0"/>
      <point x="15.0" y="22.0" type="curve"/>
      <point x="15.0" y="0.0"/>
      <point x="15.0" y="22.0"/>
      <point x="15.0" y="0.0" type="curve"/>
      <point x="81.0" y="0.0"/>
      <point x="148.0" y="0.0"/>
      <point x="214.0" y="0.0" type="curve"/>
    </contour>
    <contour>
      <point x="201.0" y="700.0"/>
      <point x="201.0" y="722.0"/>
      <point x="201.0" y="700.0" type="curve"/>
      <point x="298.0" y="700.0"/>
      <point x="395.0" y="700.0"/>
      <point x="492.0" y="700.0" type="curve"/>
      <point x="597.0" y="700.0"/>
      <point x="679.0" y="656.0"/>
      <point x="679.0" y="555.0" type="curve"/>
      <point x="679.0" y="447.0"/>
      <point x="555.0" y="421.0"/>
      <point x="434.0" y="421.0" type="curve"/>
      <point x="356.0" y="421.0"/>
      <point x="278.0" y="421.0"/>
      <point x="201.0" y="421.0" type="curve"/>
      <point x="201.0" y="399.0"/>
      <point x="201.0" y="421.0"/>
      <point x="201.0" y="399.0" type="curve"/>
      <point x="274.0" y="399.0"/>
      <point x="348.0" y="399.0"/>
      <point x="422.0" y="399.0" type="curve"/>
      <point x="563.0" y="399.0"/>
      <point x="703.0" y="430.0"/>
      <point x="703.0" y="555.0" type="curve"/>
      <point x="703.0" y="669.0"/>
      <point x="615.0" y="722.0"/>
      <point x="492.0" y="722.0" type="curve"/>
      <point x="395.0" y="722.0"/>
      <point x="298.0" y="722.0"/>
      <point x="201.0" y="722.0" type="curve"/>
    </contour>
    <contour>
      <point x="223.0" y="0.0"/>
      <point x="198.0" y="0.0"/>
      <point x="223.0" y="0.0" type="curve"/>
      <point x="223.0" y="241.0"/>
      <point x="223.0" y="481.0"/>
      <point x="223.0" y="722.0" type="curve"/>
      <point x="198.0" y="722.0"/>
      <point x="223.0" y="722.0"/>
      <point x="198.0" y="722.0" type="curve"/>
      <point x="198.0" y="481.0"/>
      <point x="198.0" y="241.0"/>
      <point x="198.0" y="0.0" type="curve"/>
    </contour>
    <contour>
      <point x="201.0" y="399.0"/>
      <point x="201.0" y="421.0"/>
      <point x="201.0" y="399.0" type="curve"/>
      <point x="278.0" y="399.0"/>
      <point x="356.0" y="399.0"/>
      <point x="434.0" y="399.0" type="curve"/>
      <point x="599.0" y="399.0"/>
      <point x="742.0" y="355.0"/>
      <point x="742.0" y="204.0" type="curve"/>
      <point x="742.0" y="73.0"/>
      <point x="636.0" y="22.0"/>
      <point x="490.0" y="22.0" type="curve"/>
      <point x="393.0" y="22.0"/>
      <point x="297.0" y="22.0"/>
      <point x="201.0" y="22.0" type="curve"/>
      <point x="201.0" y="0.0"/>
      <point x="201.0" y="22.0"/>
      <point x="201.0" y="0.0" type="curve"/>
      <point x="297.0" y="0.0"/>
      <point x="393.0" y="0.0"/>
      <point x="490.0" y="0.0" type="curve"/>
      <point x="651.0" y="0.0"/>
      <point x="766.0" y="59.0"/>
      <point x="766.0" y="204.0" type="curve"/>
      <point x="766.0" y="372.0"/>
      <point x="607.0" y="421.0"/>
      <point x="422.0" y="421.0" type="curve"/>
      <point x="348.0" y="421.0"/>
      <point x="274.0" y="421.0"/>
      <point x="201.0" y="421.0" type="curve"/>
    </contour>
  </outline>
</glyph>
<glyph name="C" format="1">
  <advance width="874"/>
  <unicode hex="0043"/>
  <outline>
    <contour>
      <point x="792.0" y="655.0"/>
      <point x="814.0" y="655.0"/>
      <point x="792.0" y="655.0" type="curve"/>
      <point x="792.0" y="535.0"/>
      <point x="792.0" y="655.0"/>
      <point x="792.0" y="535.0" type="curve"/>
      <point x="814.0" y="535.0"/>
      <point x="792.0" y="535.0"/>
      <point x="814.0" y="535.0" type="curve"/>
      <point x="814.0" y="655.0"/>
      <point x="814.0" y="535.0"/>
      <point x="814.0" y="655.0" type="curve"/>
    </contour>
    <contour>
      <point x="814.0" y="655.0"/>
      <point x="801.0" y="638.0"/>
      <point x="814.0" y="655.0" type="curve"/>
      <point x="721.0" y="697.0"/>
      <point x="622.0" y="727.0"/>
      <point x="512.0" y="727.0" type="curve"/>
      <point x="254.0" y="727.0"/>
      <point x="81.0" y="594.0"/>
      <point x="81.0" y="344.0" type="curve"/>
      <point x="81.0" y="113.0"/>
      <point x="243.0" y="-5.0"/>
      <point x="484.0" y="-5.0" type="curve"/>
      <point x="626.0" y="-5.0"/>
      <point x="720.0" y="25.0"/>
      <point x="839.0" y="96.0" type="curve"/>
      <point x="824.0" y="113.0"/>
      <point x="839.0" y="96.0"/>
      <point x="824.0" y="113.0" type="curve"/>
      <point x="713.0" y="43.0"/>
      <point x="619.0" y="19.0"/>
      <point x="485.0" y="19.0" type="curve"/>
      <point x="259.0" y="19.0"/>
      <point x="105.0" y="130.0"/>
      <point x="105.0" y="345.0" type="curve"/>
      <point x="105.0" y="578.0"/>
      <point x="269.0" y="704.0"/>
      <point x="511.0" y="704.0" type="curve"/>
      <point x="616.0" y="704.0"/>
      <point x="713.0" y="680.0"/>
      <point x="801.0" y="638.0" type="curve"/>
    </contour>
    <contour>
      <point x="513.0" y="855.0" type="move" name="top"/>
    </contour>
    <contour>
      <point x="477.0" y="10.0" type="move" name="bottom"/>
    </contour>
  </outline>
</glyph>
<glyph name="D" format="1">
  <advance width="946"/>
  <unicode hex="0044"/>
  <outline>
    <contour>
      <point x="221.0" y="22.0"/>
      <point x="221.0" y="0.0"/>
      <point x="221.0" y="22.0" type="curve"/>
      <point x="22.0" y="22.0"/>
      <point x="221.0" y="22.0"/>
      <point x="22.0" y="22.0" type="curve"/>
      <point x="22.0" y="0.0"/>
      <point x="22.0" y="22.0"/>
      <point x="22.0" y="0.0" type="curve"/>
      <point x="88.0" y="0.0"/>
      <point x="155.0" y="0.0"/>
      <point x="221.0" y="0.0" type="curve"/>
    </contour>
    <contour>
      <point x="221.0" y="722.0"/>
      <point x="221.0" y="700.0"/>
      <point x="221.0" y="722.0" type="curve"/>
      <point x="155.0" y="722.0"/>
      <point x="88.0" y="722.0"/>
      <point x="22.0" y="722.0" type="curve"/>
      <point x="22.0" y="700.0"/>
      <point x="22.0" y="722.0"/>
      <point x="22.0" y="700.0" type="curve"/>
      <point x="221.0" y="700.0"/>
      <point x="22.0" y="700.0"/>
      <point x="221.0" y="700.0" type="curve"/>
    </contour>
    <contour>
      <point x="206.0" y="722.0"/>
      <point x="231.0" y="722.0"/>
      <point x="206.0" y="722.0" type="curve"/>
      <point x="206.0" y="481.0"/>
      <point x="206.0" y="241.0"/>
      <point x="206.0" y="0.0" type="curve"/>
      <point x="231.0" y="0.0"/>
      <point x="206.0" y="0.0"/>
      <point x="231.0" y="0.0" type="curve"/>
      <point x="231.0" y="241.0"/>
      <point x="231.0" y="481.0"/>
      <point x="231.0" y="722.0" type="curve"/>
    </contour>
    <contour>
      <point x="221.0" y="0.0"/>
      <point x="221.0" y="22.0"/>
      <point x="221.0" y="0.0" type="curve"/>
      <point x="311.0" y="0.0"/>
      <point x="401.0" y="0.0"/>
      <point x="491.0" y="0.0" type="curve"/>
      <point x="751.0" y="0.0"/>
      <point x="912.0" y="106.0"/>
      <point x="912.0" y="350.0" type="curve"/>
      <point x="912.0" y="608.0"/>
      <point x="746.0" y="722.0"/>
      <point x="474.0" y="722.0" type="curve"/>
      <point x="389.0" y="722.0"/>
      <point x="305.0" y="722.0"/>
      <point x="221.0" y="722.0" type="curve"/>
      <point x="221.0" y="700.0"/>
      <point x="221.0" y="722.0"/>
      <point x="221.0" y="700.0" type="curve"/>
      <point x="305.0" y="700.0"/>
      <point x="389.0" y="700.0"/>
      <point x="472.0" y="700.0" type="curve"/>
      <point x="730.0" y="700.0"/>
      <point x="889.0" y="593.0"/>
      <point x="889.0" y="350.0" type="curve"/>
      <point x="889.0" y="121.0"/>
      <point x="738.0" y="22.0"/>
      <point x="494.0" y="22.0" type="curve"/>
      <point x="403.0" y="22.0"/>
      <point x="312.0" y="22.0"/>
      <point x="221.0" y="22.0" type="curve"/>
    </contour>
    <contour>
      <point x="446" y="854" type="move" name="top"/>
    </contour>
  </outline>
</glyph>
<glyph name="E" format="1">
  <advance width="814"/>
  <unicode hex="0045"/>
  <outline>
    <contour>
      <point x="792.0" y="11.0"/>
      <point x="771.0" y="11.0"/>
      <point x="792.0" y="11.0" type="curve"/>
      <point x="792.0" y="131.0"/>
      <point x="792.0" y="11.0"/>
      <point x="792.0" y="131.0" type="curve"/>
      <point x="771.0" y="131.0"/>
      <point x="792.0" y="131.0"/>
      <point x="771.0" y="131.0" type="curve"/>
      <point x="771.0" y="11.0"/>
      <point x="771.0" y="131.0"/>
      <point x="771.0" y="11.0" type="curve"/>
    </contour>
    <contour>
      <point x="725.0" y="711.0"/>
      <point x="747.0" y="711.0"/>
      <point x="725.0" y="711.0" type="curve"/>
      <point x="725.0" y="591.0"/>
      <point x="725.0" y="711.0"/>
      <point x="725.0" y="591.0" type="curve"/>
      <point x="747.0" y="591.0"/>
      <point x="725.0" y="591.0"/>
      <point x="747.0" y="591.0" type="curve"/>
      <point x="747.0" y="711.0"/>
      <point x="747.0" y="591.0"/>
      <point x="747.0" y="711.0" type="curve"/>
    </contour>
    <contour>
      <point x="215.0" y="22.0"/>
      <point x="215.0" y="0.0"/>
      <point x="215.0" y="22.0" type="curve"/>
      <point x="16.0" y="22.0"/>
      <point x="215.0" y="22.0"/>
      <point x="16.0" y="22.0" type="curve"/>
      <point x="16.0" y="0.0"/>
      <point x="16.0" y="22.0"/>
      <point x="16.0" y="0.0" type="curve"/>
      <point x="82.0" y="0.0"/>
      <point x="148.0" y="0.0"/>
      <point x="215.0" y="0.0" type="curve"/>
    </contour>
    <contour>
      <point x="215.0" y="722.0"/>
      <point x="215.0" y="700.0"/>
      <point x="215.0" y="722.0" type="curve"/>
      <point x="148.0" y="722.0"/>
      <point x="82.0" y="722.0"/>
      <point x="16.0" y="722.0" type="curve"/>
      <point x="16.0" y="700.0"/>
      <point x="16.0" y="722.0"/>
      <point x="16.0" y="700.0" type="curve"/>
      <point x="215.0" y="700.0"/>
      <point x="16.0" y="700.0"/>
      <point x="215.0" y="700.0" type="curve"/>
    </contour>
    <contour>
      <point x="219.0" y="363.0"/>
      <point x="219.0" y="385.0"/>
      <point x="219.0" y="363.0" type="curve"/>
      <point x="366.0" y="363.0"/>
      <point x="514.0" y="363.0"/>
      <point x="662.0" y="363.0" type="curve"/>
      <point x="662.0" y="385.0"/>
      <point x="662.0" y="363.0"/>
      <point x="662.0" y="385.0" type="curve"/>
      <point x="514.0" y="385.0"/>
      <point x="366.0" y="385.0"/>
      <point x="219.0" y="385.0" type="curve"/>
    </contour>
    <contour>
      <point x="198.0" y="700.0"/>
      <point x="198.0" y="722.0"/>
      <point x="198.0" y="700.0" type="curve"/>
      <point x="381.0" y="700.0"/>
      <point x="564.0" y="700.0"/>
      <point x="747.0" y="700.0" type="curve"/>
      <point x="747.0" y="722.0"/>
      <point x="747.0" y="700.0"/>
      <point x="747.0" y="722.0" type="curve"/>
      <point x="564.0" y="722.0"/>
      <point x="381.0" y="722.0"/>
      <point x="198.0" y="722.0" type="curve"/>
    </contour>
    <contour>
      <point x="225.0" y="0.0"/>
      <point x="201.0" y="0.0"/>
      <point x="225.0" y="0.0" type="curve"/>
      <point x="225.0" y="0.0"/>
      <point x="225.0" y="722.0"/>
      <point x="225.0" y="722.0" type="curve"/>
      <point x="201.0" y="722.0"/>
      <point x="225.0" y="722.0"/>
      <point x="201.0" y="722.0" type="curve"/>
      <point x="201.0" y="481.0"/>
      <point x="201.0" y="241.0"/>
      <point x="201.0" y="0.0" type="curve"/>
    </contour>
    <contour>
      <point x="198.0" y="0.0"/>
      <point x="198.0" y="22.0"/>
      <point x="198.0" y="0.0" type="curve"/>
      <point x="396.0" y="0.0"/>
      <point x="594.0" y="0.0"/>
      <point x="792.0" y="0.0" type="curve"/>
      <point x="792.0" y="22.0"/>
      <point x="792.0" y="0.0"/>
      <point x="792.0" y="22.0" type="curve"/>
      <point x="594.0" y="22.0"/>
      <point x="396.0" y="22.0"/>
      <point x="198.0" y="22.0" type="curve"/>
    </contour>
    <contour>
      <point x="450.0" y="855.0" type="move" name="top"/>
    </contour>
    <contour>
      <point x="780.0" y="7.0" type="move" name="bottom"/>
    </contour>
  </outline>
</glyph>
<glyph name="F" format="1">
  <advance width="814"/>
  <unicode hex="0046"/>
  <outline>
    <contour>
      <point x="244.0" y="0.0"/>
      <point x="244.0" y="22.0"/>
      <point x="244.0" y="0.0" type="curve"/>
      <point x="310.0" y="0.0"/>
      <point x="244.0" y="0.0"/>
      <point x="443.0" y="0.0" type="curve"/>
      <point x="443.0" y="22.0"/>
      <point x="443.0" y="0.0"/>
      <point x="443.0" y="22.0" type="curve"/>
      <point x="244.0" y="22.0"/>
      <point x="443.0" y="22.0"/>
      <point x="244.0" y="22.0" type="curve"/>
    </contour>
    <contour>
      <point x="244.0" y="722.0"/>
      <point x="244.0" y="700.0"/>
      <point x="244.0" y="722.0" type="curve"/>
      <point x="178.0" y="722.0"/>
      <point x="111.0" y="722.0"/>
      <point x="45.0" y="722.0" type="curve"/>
      <point x="45.0" y="700.0"/>
      <point x="45.0" y="722.0"/>
      <point x="45.0" y="700.0" type="curve"/>
      <point x="244.0" y="700.0"/>
      <point x="45.0" y="700.0"/>
      <point x="244.0" y="700.0" type="curve"/>
    </contour>
    <contour>
      <point x="244.0" y="22.0"/>
      <point x="244.0" y="0.0"/>
      <point x="244.0" y="22.0" type="curve"/>
      <point x="45.0" y="22.0"/>
      <point x="244.0" y="22.0"/>
      <point x="45.0" y="22.0" type="curve"/>
      <point x="45.0" y="0.0"/>
      <point x="45.0" y="22.0"/>
      <point x="45.0" y="0.0" type="curve"/>
      <point x="111.0" y="0.0"/>
      <point x="178.0" y="0.0"/>
      <point x="244.0" y="0.0" type="curve"/>
    </contour>
    <contour>
      <point x="761.0" y="711.0"/>
      <point x="783.0" y="711.0"/>
      <point x="761.0" y="711.0" type="curve"/>
      <point x="761.0" y="591.0"/>
      <point x="761.0" y="711.0"/>
      <point x="761.0" y="591.0" type="curve"/>
      <point x="783.0" y="591.0"/>
      <point x="761.0" y="591.0"/>
      <point x="783.0" y="591.0" type="curve"/>
      <point x="783.0" y="711.0"/>
      <point x="783.0" y="591.0"/>
      <point x="783.0" y="711.0" type="curve"/>
    </contour>
    <contour>
      <point x="249.0" y="363.0"/>
      <point x="249.0" y="385.0"/>
      <point x="249.0" y="363.0" type="curve"/>
      <point x="394.0" y="363.0"/>
      <point x="539.0" y="363.0"/>
      <point x="684.0" y="363.0" type="curve"/>
      <point x="684.0" y="385.0"/>
      <point x="684.0" y="363.0"/>
      <point x="684.0" y="385.0" type="curve"/>
      <point x="539.0" y="385.0"/>
      <point x="394.0" y="385.0"/>
      <point x="249.0" y="385.0" type="curve"/>
    </contour>
    <contour>
      <point x="256.0" y="0.0"/>
      <point x="232.0" y="0.0"/>
      <point x="256.0" y="0.0" type="curve"/>
      <point x="256.0" y="0.0"/>
      <point x="256.0" y="722.0"/>
      <point x="256.0" y="722.0" type="curve"/>
      <point x="232.0" y="722.0"/>
      <point x="256.0" y="722.0"/>
      <point x="232.0" y="722.0" type="curve"/>
      <point x="232.0" y="481.0"/>
      <point x="232.0" y="241.0"/>
      <point x="232.0" y="0.0" type="curve"/>
    </contour>
    <contour>
      <point x="229.0" y="700.0"/>
      <point x="229.0" y="722.0"/>
      <point x="229.0" y="700.0" type="curve"/>
      <point x="413.0" y="700.0"/>
      <point x="598.0" y="700.0"/>
      <point x="783.0" y="700.0" type="curve"/>
      <point x="783.0" y="722.0"/>
      <point x="783.0" y="700.0"/>
      <point x="783.0" y="722.0" type="curve"/>
      <point x="598.0" y="722.0"/>
      <point x="413.0" y="722.0"/>
      <point x="229.0" y="722.0" type="curve"/>
    </contour>
  </outline>
</glyph>
<glyph name="H" format="1">
  <advance width="1117"/>
  <unicode hex="0048"/>
  <outline>
    <contour>
      <point x="906.0" y="700.0"/>
      <point x="906.0" y="722.0"/>
      <point x="906.0" y="700.0" type="curve"/>
      <point x="1105.0" y="700.0"/>
      <point x="906.0" y="700.0"/>
      <point x="1105.0" y="700.0" type="curve"/>
      <point x="1105.0" y="722.0"/>
      <point x="1105.0" y="700.0"/>
      <point x="1105.0" y="722.0" type="curve"/>
      <point x="1039.0" y="722.0"/>
      <point x="972.0" y="722.0"/>
      <point x="906.0" y="722.0" type="curve"/>
    </contour>
    <contour>
      <point x="906.0" y="0.0"/>
      <point x="906.0" y="22.0"/>
      <point x="906.0" y="0.0" type="curve"/>
      <point x="972.0" y="0.0"/>
      <point x="1039.0" y="0.0"/>
      <point x="1105.0" y="0.0" type="curve"/>
      <point x="1105.0" y="22.0"/>
      <point x="1105.0" y="0.0"/>
      <point x="1105.0" y="22.0" type="curve"/>
      <point x="906.0" y="22.0"/>
      <point x="1105.0" y="22.0"/>
      <point x="906.0" y="22.0" type="curve"/>
    </contour>
    <contour>
      <point x="906.0" y="22.0"/>
      <point x="906.0" y="0.0"/>
      <point x="906.0" y="22.0" type="curve"/>
      <point x="707.0" y="22.0"/>
      <point x="906.0" y="22.0"/>
      <point x="707.0" y="22.0" type="curve"/>
      <point x="707.0" y="0.0"/>
      <point x="707.0" y="22.0"/>
      <point x="707.0" y="0.0" type="curve"/>
      <point x="773.0" y="0.0"/>
      <point x="840.0" y="0.0"/>
      <point x="906.0" y="0.0" type="curve"/>
    </contour>
    <contour>
      <point x="906.0" y="722.0"/>
      <point x="906.0" y="700.0"/>
      <point x="906.0" y="722.0" type="curve"/>
      <point x="840.0" y="722.0"/>
      <point x="773.0" y="722.0"/>
      <point x="707.0" y="722.0" type="curve"/>
      <point x="707.0" y="700.0"/>
      <point x="707.0" y="722.0"/>
      <point x="707.0" y="700.0" type="curve"/>
      <point x="906.0" y="700.0"/>
      <point x="707.0" y="700.0"/>
      <point x="906.0" y="700.0" type="curve"/>
    </contour>
    <contour>
      <point x="223.0" y="700.0"/>
      <point x="223.0" y="722.0"/>
      <point x="223.0" y="700.0" type="curve"/>
      <point x="422.0" y="700.0"/>
      <point x="223.0" y="700.0"/>
      <point x="422.0" y="700.0" type="curve"/>
      <point x="422.0" y="722.0"/>
      <point x="422.0" y="700.0"/>
      <point x="422.0" y="722.0" type="curve"/>
      <point x="356.0" y="722.0"/>
      <point x="289.0" y="722.0"/>
      <point x="223.0" y="722.0" type="curve"/>
    </contour>
    <contour>
      <point x="223.0" y="722.0"/>
      <point x="223.0" y="700.0"/>
      <point x="223.0" y="722.0" type="curve"/>
      <point x="157.0" y="722.0"/>
      <point x="90.0" y="722.0"/>
      <point x="24.0" y="722.0" type="curve"/>
      <point x="24.0" y="700.0"/>
      <point x="24.0" y="722.0"/>
      <point x="24.0" y="700.0" type="curve"/>
      <point x="223.0" y="700.0"/>
      <point x="24.0" y="700.0"/>
      <point x="223.0" y="700.0" type="curve"/>
    </contour>
    <contour>
      <point x="223.0" y="0.0"/>
      <point x="223.0" y="22.0"/>
      <point x="223.0" y="0.0" type="curve"/>
      <point x="289.0" y="0.0"/>
      <point x="223.0" y="0.0"/>
      <point x="422.0" y="0.0" type="curve"/>
      <point x="422.0" y="22.0"/>
      <point x="422.0" y="0.0"/>
      <point x="422.0" y="22.0" type="curve"/>
      <point x="223.0" y="22.0"/>
      <point x="422.0" y="22.0"/>
      <point x="223.0" y="22.0" type="curve"/>
    </contour>
    <contour>
      <point x="223.0" y="22.0"/>
      <point x="223.0" y="0.0"/>
      <point x="223.0" y="22.0" type="curve"/>
      <point x="24.0" y="22.0"/>
      <point x="223.0" y="22.0"/>
      <point x="24.0" y="22.0" type="curve"/>
      <point x="24.0" y="0.0"/>
      <point x="24.0" y="22.0"/>
      <point x="24.0" y="0.0" type="curve"/>
      <point x="90.0" y="0.0"/>
      <point x="157.0" y="0.0"/>
      <point x="223.0" y="0.0" type="curve"/>
    </contour>
    <contour>
      <point x="235.0" y="0.0"/>
      <point x="211.0" y="0.0"/>
      <point x="235.0" y="0.0" type="curve"/>
      <point x="235.0" y="0.0"/>
      <point x="235.0" y="722.0"/>
      <point x="235.0" y="722.0" type="curve"/>
      <point x="211.0" y="722.0"/>
      <point x="235.0" y="722.0"/>
      <point x="211.0" y="722.0" type="curve"/>
      <point x="211.0" y="481.0"/>
      <point x="211.0" y="241.0"/>
      <point x="211.0" y="0.0" type="curve"/>
    </contour>
    <contour>
      <point x="902.0" y="374.0"/>
      <point x="902.0" y="352.0"/>
      <point x="902.0" y="374.0" type="curve"/>
      <point x="676.0" y="374.0"/>
      <point x="449.0" y="374.0"/>
      <point x="223.0" y="374.0" type="curve"/>
      <point x="223.0" y="352.0"/>
      <point x="223.0" y="374.0"/>
      <point x="223.0" y="352.0" type="curve"/>
      <point x="449.0" y="352.0"/>
      <point x="676.0" y="352.0"/>
      <point x="902.0" y="352.0" type="curve"/>
    </contour>
    <contour>
      <point x="917.0" y="1.0"/>
      <point x="893.0" y="1.0"/>
      <point x="917.0" y="1.0" type="curve"/>
      <point x="917.0" y="241.0"/>
      <point x="917.0" y="481.0"/>
      <point x="917.0" y="721.0" type="curve"/>
      <point x="893.0" y="721.0"/>
      <point x="917.0" y="721.0"/>
      <point x="893.0" y="721.0" type="curve"/>
      <point x="893.0" y="721.0"/>
      <point x="893.0" y="1.0"/>
      <point x="893.0" y="1.0" type="curve"/>
    </contour>
  </outline>
</glyph>
<glyph name="I" format="1">
  <advance width="431"/>
  <unicode hex="0049"/>
  <outline>
    <contour>
      <point x="218.0" y="722.0"/>
      <point x="218.0" y="700.0"/>
      <point x="218.0" y="722.0" type="curve"/>
      <point x="151.0" y="722.0"/>
      <point x="85.0" y="722.0"/>
      <point x="19.0" y="722.0" type="curve"/>
      <point x="19.0" y="700.0"/>
      <point x="19.0" y="722.0"/>
      <point x="19.0" y="700.0" type="curve"/>
      <point x="218.0" y="700.0"/>
      <point x="19.0" y="700.0"/>
      <point x="218.0" y="700.0" type="curve"/>
    </contour>
    <contour>
      <point x="218.0" y="700.0"/>
      <point x="218.0" y="722.0"/>
      <point x="218.0" y="700.0" type="curve"/>
      <point x="417.0" y="700.0"/>
      <point x="218.0" y="700.0"/>
      <point x="417.0" y="700.0" type="curve"/>
      <point x="417.0" y="722.0"/>
      <point x="417.0" y="700.0"/>
      <point x="417.0" y="722.0" type="curve"/>
      <point x="350.0" y="722.0"/>
      <point x="284.0" y="722.0"/>
      <point x="218.0" y="722.0" type="curve"/>
    </contour>
    <contour>
      <point x="218.0" y="0.0"/>
      <point x="218.0" y="22.0"/>
      <point x="218.0" y="0.0" type="curve"/>
      <point x="284.0" y="0.0"/>
      <point x="350.0" y="0.0"/>
      <point x="417.0" y="0.0" type="curve"/>
      <point x="417.0" y="22.0"/>
      <point x="417.0" y="0.0"/>
      <point x="417.0" y="22.0" type="curve"/>
      <point x="218.0" y="22.0"/>
      <point x="417.0" y="22.0"/>
      <point x="218.0" y="22.0" type="curve"/>
    </contour>
    <contour>
      <point x="218.0" y="22.0"/>
      <point x="218.0" y="0.0"/>
      <point x="218.0" y="22.0" type="curve"/>
      <point x="19.0" y="22.0"/>
      <point x="218.0" y="22.0"/>
      <point x="19.0" y="22.0" type="curve"/>
      <point x="19.0" y="0.0"/>
      <point x="19.0" y="22.0"/>
      <point x="19.0" y="0.0" type="curve"/>
      <point x="85.0" y="0.0"/>
      <point x="151.0" y="0.0"/>
      <point x="218.0" y="0.0" type="curve"/>
    </contour>
    <contour>
      <point x="228.0" y="0.0"/>
      <point x="204.0" y="0.0"/>
      <point x="228.0" y="0.0" type="curve"/>
      <point x="228.0" y="241.0"/>
      <point x="228.0" y="481.0"/>
      <point x="228.0" y="722.0" type="curve"/>
      <point x="204.0" y="722.0"/>
      <point x="228.0" y="722.0"/>
      <point x="204.0" y="722.0" type="curve"/>
      <point x="204.0" y="481.0"/>
      <point x="204.0" y="241.0"/>
      <point x="204.0" y="0.0" type="curve"/>
    </contour>
    <contour>
      <point x="217.0" y="855.0" type="move" name="top"/>
    </contour>
    <contour>
      <point x="224.0" y="9.0" type="move" name="bottom"/>
    </contour>
  </outline>
</glyph>
<glyph name="K" format="1">
  <advance width="1020"/>
  <unicode hex="004B"/>
  <outline>
    <contour>
      <point x="802.0" y="22.0"/>
      <point x="800.0" y="0.0"/>
      <point x="802.0" y="22.0" type="curve"/>
      <point x="603.0" y="22.0"/>
      <point x="802.0" y="22.0"/>
      <point x="603.0" y="22.0" type="curve"/>
      <point x="603.0" y="0.0"/>
      <point x="603.0" y="22.0"/>
      <point x="603.0" y="0.0" type="curve"/>
      <point x="669.0" y="0.0"/>
      <point x="734.0" y="0.0"/>
      <point x="800.0" y="0.0" type="curve"/>
    </contour>
    <contour>
      <point x="771.0" y="722.0"/>
      <point x="771.0" y="700.0"/>
      <point x="771.0" y="722.0" type="curve"/>
      <point x="704.0" y="722.0"/>
      <point x="638.0" y="722.0"/>
      <point x="572.0" y="722.0" type="curve"/>
      <point x="572.0" y="700.0"/>
      <point x="572.0" y="722.0"/>
      <point x="572.0" y="700.0" type="curve"/>
      <point x="771.0" y="700.0"/>
      <point x="572.0" y="700.0"/>
      <point x="771.0" y="700.0" type="curve"/>
    </contour>
    <contour>
      <point x="802.0" y="0.0"/>
      <point x="802.0" y="22.0"/>
      <point x="802.0" y="0.0" type="curve"/>
      <point x="868.0" y="0.0"/>
      <point x="934.0" y="0.0"/>
      <point x="1001.0" y="0.0" type="curve"/>
      <point x="1001.0" y="22.0"/>
      <point x="1001.0" y="0.0"/>
      <point x="1001.0" y="22.0" type="curve"/>
      <point x="802.0" y="22.0"/>
      <point x="1001.0" y="22.0"/>
      <point x="802.0" y="22.0" type="curve"/>
    </contour>
    <contour>
      <point x="771.0" y="700.0"/>
      <point x="771.0" y="722.0"/>
      <point x="771.0" y="700.0" type="curve"/>
      <point x="970.0" y="700.0"/>
      <point x="771.0" y="700.0"/>
      <point x="970.0" y="700.0" type="curve"/>
      <point x="970.0" y="722.0"/>
      <point x="970.0" y="700.0"/>
      <point x="970.0" y="722.0" type="curve"/>
      <point x="903.0" y="722.0"/>
      <point x="837.0" y="722.0"/>
      <point x="771.0" y="722.0" type="curve"/>
    </contour>
    <contour>
      <point x="228.0" y="722.0"/>
      <point x="228.0" y="700.0"/>
      <point x="228.0" y="722.0" type="curve"/>
      <point x="162.0" y="722.0"/>
      <point x="96.0" y="722.0"/>
      <point x="29.0" y="722.0" type="curve"/>
      <point x="29.0" y="700.0"/>
      <point x="29.0" y="722.0"/>
      <point x="29.0" y="700.0" type="curve"/>
      <point x="228.0" y="700.0"/>
      <point x="29.0" y="700.0"/>
      <point x="228.0" y="700.0" type="curve"/>
    </contour>
    <contour>
      <point x="228.0" y="700.0"/>
      <point x="228.0" y="722.0"/>
      <point x="228.0" y="700.0" type="curve"/>
      <point x="428.0" y="700.0"/>
      <point x="228.0" y="700.0"/>
      <point x="428.0" y="700.0" type="curve"/>
      <point x="428.0" y="722.0"/>
      <point x="428.0" y="700.0"/>
      <point x="428.0" y="722.0" type="curve"/>
      <point x="361.0" y="722.0"/>
      <point x="295.0" y="722.0"/>
      <point x="228.0" y="722.0" type="curve"/>
    </contour>
    <contour>
      <point x="228.0" y="0.0"/>
      <point x="228.0" y="22.0"/>
      <point x="228.0" y="0.0" type="curve"/>
      <point x="295.0" y="0.0"/>
      <point x="228.0" y="0.0"/>
      <point x="428.0" y="0.0" type="curve"/>
      <point x="428.0" y="22.0"/>
      <point x="428.0" y="0.0"/>
      <point x="428.0" y="22.0" type="curve"/>
      <point x="228.0" y="22.0"/>
      <point x="428.0" y="22.0"/>
      <point x="228.0" y="22.0" type="curve"/>
    </contour>
    <contour>
      <point x="228.0" y="22.0"/>
      <point x="228.0" y="0.0"/>
      <point x="228.0" y="22.0" type="curve"/>
      <point x="29.0" y="22.0"/>
      <point x="228.0" y="22.0"/>
      <point x="29.0" y="22.0" type="curve"/>
      <point x="29.0" y="0.0"/>
      <point x="29.0" y="22.0"/>
      <point x="29.0" y="0.0" type="curve"/>
      <point x="96.0" y="0.0"/>
      <point x="162.0" y="0.0"/>
      <point x="228.0" y="0.0" type="curve"/>
    </contour>
    <contour>
      <point x="779.0" y="722.0"/>
      <point x="815.0" y="722.0"/>
      <point x="775.0" y="722.0" type="curve"/>
      <point x="593.0" y="608.0"/>
      <point x="410.0" y="494.0"/>
      <point x="228.0" y="380.0" type="curve"/>
      <point x="262.0" y="380.0"/>
      <point x="232.0" y="380.0"/>
      <point x="266.0" y="380.0" type="curve"/>
      <point x="450.0" y="494.0"/>
      <point x="634.0" y="608.0"/>
      <point x="819.0" y="722.0" type="curve"/>
    </contour>
    <contour>
      <point x="241.0" y="0.0"/>
      <point x="216.0" y="0.0"/>
      <point x="241.0" y="0.0" type="curve"/>
      <point x="241.0" y="0.0"/>
      <point x="241.0" y="722.0"/>
      <point x="241.0" y="722.0" type="curve"/>
      <point x="216.0" y="722.0"/>
      <point x="241.0" y="722.0"/>
      <point x="216.0" y="722.0" type="curve"/>
      <point x="216.0" y="481.0"/>
      <point x="216.0" y="241.0"/>
      <point x="216.0" y="0.0" type="curve"/>
    </contour>
    <contour>
      <point x="847.0" y="0.0"/>
      <point x="810.0" y="0.0"/>
      <point x="851.0" y="0.0" type="curve"/>
      <point x="656.0" y="126.0"/>
      <point x="461.0" y="254.0"/>
      <point x="266.0" y="380.0" type="curve"/>
      <point x="232.0" y="380.0"/>
      <point x="262.0" y="380.0"/>
      <point x="228.0" y="380.0" type="curve"/>
      <point x="420.0" y="253.0"/>
      <point x="614.0" y="127.0"/>
      <point x="806.0" y="0.0" type="curve"/>
    </contour>
    <contour>
      <point x="537.0" y="14.0" type="move" name="bottom"/>
    </contour>
  </outline>
</glyph>
<glyph name="L" format="1">
  <advance width="832"/>
  <unicode hex="004C"/>
  <outline>
    <contour>
      <point x="809.0" y="11.0"/>
      <point x="787.0" y="11.0"/>
      <point x="809.0" y="11.0" type="curve"/>
      <point x="809.0" y="131.0"/>
      <point x="809.0" y="11.0"/>
      <point x="809.0" y="131.0" type="curve"/>
      <point x="787.0" y="131.0"/>
      <point x="809.0" y="131.0"/>
      <point x="787.0" y="131.0" type="curve"/>
      <point x="787.0" y="11.0"/>
      <point x="787.0" y="131.0"/>
      <point x="787.0" y="11.0" type="curve"/>
    </contour>
    <contour>
      <point x="239.0" y="22.0"/>
      <point x="239.0" y="0.0"/>
      <point x="239.0" y="22.0" type="curve"/>
      <point x="40.0" y="22.0"/>
      <point x="239.0" y="22.0"/>
      <point x="40.0" y="22.0" type="curve"/>
      <point x="40.0" y="0.0"/>
      <point x="40.0" y="22.0"/>
      <point x="40.0" y="0.0" type="curve"/>
      <point x="106.0" y="0.0"/>
      <point x="173.0" y="0.0"/>
      <point x="239.0" y="0.0" type="curve"/>
    </contour>
    <contour>
      <point x="239.0" y="722.0"/>
      <point x="239.0" y="700.0"/>
      <point x="239.0" y="722.0" type="curve"/>
      <point x="173.0" y="722.0"/>
      <point x="106.0" y="722.0"/>
      <point x="40.0" y="722.0" type="curve"/>
      <point x="40.0" y="700.0"/>
      <point x="40.0" y="722.0"/>
      <point x="40.0" y="700.0" type="curve"/>
      <point x="239.0" y="700.0"/>
      <point x="40.0" y="700.0"/>
      <point x="239.0" y="700.0" type="curve"/>
    </contour>
    <contour>
      <point x="239.0" y="700.0"/>
      <point x="239.0" y="722.0"/>
      <point x="239.0" y="700.0" type="curve"/>
      <point x="438.0" y="700.0"/>
      <point x="239.0" y="700.0"/>
      <point x="438.0" y="700.0" type="curve"/>
      <point x="438.0" y="722.0"/>
      <point x="438.0" y="700.0"/>
      <point x="438.0" y="722.0" type="curve"/>
      <point x="372.0" y="722.0"/>
      <point x="305.0" y="722.0"/>
      <point x="239.0" y="722.0" type="curve"/>
    </contour>
    <contour>
      <point x="253.0" y="0.0"/>
      <point x="228.0" y="0.0"/>
      <point x="253.0" y="0.0" type="curve"/>
      <point x="253.0" y="241.0"/>
      <point x="253.0" y="481.0"/>
      <point x="253.0" y="722.0" type="curve"/>
      <point x="228.0" y="722.0"/>
      <point x="253.0" y="722.0"/>
      <point x="228.0" y="722.0" type="curve"/>
      <point x="228.0" y="481.0"/>
      <point x="228.0" y="241.0"/>
      <point x="228.0" y="0.0" type="curve"/>
    </contour>
    <contour>
      <point x="239.0" y="0.0"/>
      <point x="239.0" y="22.0"/>
      <point x="239.0" y="0.0" type="curve"/>
      <point x="429.0" y="0.0"/>
      <point x="619.0" y="0.0"/>
      <point x="809.0" y="0.0" type="curve"/>
      <point x="809.0" y="22.0"/>
      <point x="809.0" y="0.0"/>
      <point x="809.0" y="22.0" type="curve"/>
      <point x="619.0" y="22.0"/>
      <point x="429.0" y="22.0"/>
      <point x="239.0" y="22.0" type="curve"/>
    </contour>
    <contour>
      <point x="241.0" y="854.0" type="move" name="top"/>
    </contour>
    <contour>
      <point x="466.0" y="14.0" type="move" name="bottom"/>
    </contour>
  </outline>
</glyph>
<glyph name="M" format="1">
  <advance width="1370"/>
  <unicode hex="004D"/>
  <outline>
    <contour>
      <point x="1152.0" y="0.0"/>
      <point x="1152.0" y="22.0"/>
      <point x="1152.0" y="0.0" type="curve"/>
      <point x="1219.0" y="0.0"/>
      <point x="1285.0" y="0.0"/>
      <point x="1351.0" y="0.0" type="curve"/>
      <point x="1351.0" y="22.0"/>
      <point x="1351.0" y="0.0"/>
      <point x="1351.0" y="22.0" type="curve"/>
      <point x="1152.0" y="22.0"/>
      <point x="1351.0" y="22.0"/>
      <point x="1152.0" y="22.0" type="curve"/>
    </contour>
    <contour>
      <point x="1152.0" y="22.0"/>
      <point x="1152.0" y="0.0"/>
      <point x="1152.0" y="22.0" type="curve"/>
      <point x="953.0" y="22.0"/>
      <point x="1152.0" y="22.0"/>
      <point x="953.0" y="22.0" type="curve"/>
      <point x="953.0" y="0.0"/>
      <point x="953.0" y="22.0"/>
      <point x="953.0" y="0.0" type="curve"/>
      <point x="1020.0" y="0.0"/>
      <point x="1086.0" y="0.0"/>
      <point x="1152.0" y="0.0" type="curve"/>
    </contour>
    <contour>
      <point x="222.0" y="22.0"/>
      <point x="222.0" y="0.0"/>
      <point x="222.0" y="22.0" type="curve"/>
      <point x="23.0" y="22.0"/>
      <point x="222.0" y="22.0"/>
      <point x="23.0" y="22.0" type="curve"/>
      <point x="23.0" y="0.0"/>
      <point x="23.0" y="22.0"/>
      <point x="23.0" y="0.0" type="curve"/>
      <point x="89.0" y="0.0"/>
      <point x="156.0" y="0.0"/>
      <point x="222.0" y="0.0" type="curve"/>
    </contour>
    <contour>
      <point x="302.0" y="722.0"/>
      <point x="302.0" y="700.0"/>
      <point x="302.0" y="722.0" type="curve"/>
      <point x="235.0" y="722.0"/>
      <point x="169.0" y="722.0"/>
      <point x="103.0" y="722.0" type="curve"/>
      <point x="103.0" y="700.0"/>
      <point x="103.0" y="722.0"/>
      <point x="103.0" y="700.0" type="curve"/>
      <point x="302.0" y="700.0"/>
      <point x="103.0" y="700.0"/>
      <point x="302.0" y="700.0" type="curve"/>
    </contour>
    <contour>
      <point x="1070.0" y="700.0"/>
      <point x="1070.0" y="722.0"/>
      <point x="1070.0" y="700.0" type="curve"/>
      <point x="1269.0" y="700.0"/>
      <point x="1070.0" y="700.0"/>
      <point x="1269.0" y="700.0" type="curve"/>
      <point x="1269.0" y="722.0"/>
      <point x="1269.0" y="700.0"/>
      <point x="1269.0" y="722.0" type="curve"/>
      <point x="1203.0" y="722.0"/>
      <point x="1136.0" y="722.0"/>
      <point x="1070.0" y="722.0" type="curve"/>
    </contour>
    <contour>
      <point x="222.0" y="0.0"/>
      <point x="222.0" y="22.0"/>
      <point x="222.0" y="0.0" type="curve"/>
      <point x="288.0" y="0.0"/>
      <point x="222.0" y="0.0"/>
      <point x="421.0" y="0.0" type="curve"/>
      <point x="421.0" y="22.0"/>
      <point x="421.0" y="0.0"/>
      <point x="421.0" y="22.0" type="curve"/>
      <point x="222.0" y="22.0"/>
      <point x="421.0" y="22.0"/>
      <point x="222.0" y="22.0" type="curve"/>
    </contour>
    <contour>
      <point x="1163.0" y="0.0"/>
      <point x="1139.0" y="0.0"/>
      <point x="1163.0" y="0.0" type="curve"/>
      <point x="1135.0" y="241.0"/>
      <point x="1107.0" y="481.0"/>
      <point x="1080.0" y="722.0" type="curve"/>
      <point x="1058.0" y="722.0"/>
      <point x="1080.0" y="722.0"/>
      <point x="1058.0" y="722.0" type="curve"/>
      <point x="1085.0" y="481.0"/>
      <point x="1112.0" y="241.0"/>
      <point x="1139.0" y="0.0" type="curve"/>
    </contour>
    <contour>
      <point x="233.0" y="0.0"/>
      <point x="209.0" y="0.0"/>
      <point x="233.0" y="0.0" type="curve"/>
      <point x="259.0" y="241.0"/>
      <point x="284.0" y="481.0"/>
      <point x="310.0" y="722.0" type="curve"/>
      <point x="288.0" y="722.0"/>
      <point x="310.0" y="722.0"/>
      <point x="288.0" y="722.0" type="curve"/>
      <point x="262.0" y="481.0"/>
      <point x="235.0" y="241.0"/>
      <point x="209.0" y="0.0" type="curve"/>
    </contour>
    <contour>
      <point x="693.0" y="0.0"/>
      <point x="671.0" y="0.0"/>
      <point x="695.0" y="0.0" type="curve"/>
      <point x="570.0" y="241.0"/>
      <point x="444.0" y="481.0"/>
      <point x="315.0" y="722.0" type="curve"/>
      <point x="293.0" y="722.0"/>
      <point x="313.0" y="722.0"/>
      <point x="291.0" y="722.0" type="curve"/>
      <point x="417.0" y="481.0"/>
      <point x="543.0" y="241.0"/>
      <point x="669.0" y="0.0" type="curve"/>
    </contour>
    <contour>
      <point x="703.0" y="0.0"/>
      <point x="680.0" y="0.0"/>
      <point x="705.0" y="0.0" type="curve"/>
      <point x="829.0" y="241.0"/>
      <point x="953.0" y="481.0"/>
      <point x="1077.0" y="722.0" type="curve"/>
      <point x="1055.0" y="722.0"/>
      <point x="1075.0" y="722.0"/>
      <point x="1053.0" y="722.0" type="curve"/>
      <point x="926.0" y="481.0"/>
      <point x="803.0" y="241.0"/>
      <point x="678.0" y="0.0" type="curve"/>
    </contour>
  </outline>
</glyph>
<glyph name="N" format="1">
  <advance width="1171"/>
  <unicode hex="004E"/>
  <outline>
    <contour>
      <point x="227.0" y="722.0"/>
      <point x="227.0" y="700.0"/>
      <point x="227.0" y="722.0" type="curve"/>
      <point x="161.0" y="722.0"/>
      <point x="94.0" y="722.0"/>
      <point x="28.0" y="722.0" type="curve"/>
      <point x="28.0" y="700.0"/>
      <point x="28.0" y="722.0"/>
      <point x="28.0" y="700.0" type="curve"/>
      <point x="227.0" y="700.0"/>
      <point x="28.0" y="700.0"/>
      <point x="227.0" y="700.0" type="curve"/>
    </contour>
    <contour>
      <point x="956.0" y="700.0"/>
      <point x="956.0" y="722.0"/>
      <point x="956.0" y="700.0" type="curve"/>
      <point x="1155.0" y="700.0"/>
      <point x="956.0" y="700.0"/>
      <point x="1155.0" y="700.0" type="curve"/>
      <point x="1155.0" y="722.0"/>
      <point x="1155.0" y="700.0"/>
      <point x="1155.0" y="722.0" type="curve"/>
      <point x="1089.0" y="722.0"/>
      <point x="1022.0" y="722.0"/>
      <point x="956.0" y="722.0" type="curve"/>
    </contour>
    <contour>
      <point x="956.0" y="722.0"/>
      <point x="956.0" y="700.0"/>
      <point x="956.0" y="722.0" type="curve"/>
      <point x="890.0" y="722.0"/>
      <point x="823.0" y="722.0"/>
      <point x="757.0" y="722.0" type="curve"/>
      <point x="757.0" y="700.0"/>
      <point x="757.0" y="722.0"/>
      <point x="757.0" y="700.0" type="curve"/>
      <point x="956.0" y="700.0"/>
      <point x="757.0" y="700.0"/>
      <point x="956.0" y="700.0" type="curve"/>
    </contour>
    <contour>
      <point x="226.0" y="22.0"/>
      <point x="226.0" y="0.0"/>
      <point x="226.0" y="22.0" type="curve"/>
      <point x="27.0" y="22.0"/>
      <point x="226.0" y="22.0"/>
      <point x="27.0" y="22.0" type="curve"/>
      <point x="26.0" y="0.0"/>
      <point x="27.0" y="22.0"/>
      <point x="26.0" y="0.0" type="curve"/>
      <point x="93.0" y="0.0"/>
      <point x="159.0" y="0.0"/>
      <point x="226.0" y="0.0" type="curve"/>
    </contour>
    <contour>
      <point x="226.0" y="0.0"/>
      <point x="226.0" y="22.0"/>
      <point x="226.0" y="0.0" type="curve"/>
      <point x="292.0" y="0.0"/>
      <point x="226.0" y="0.0"/>
      <point x="425.0" y="0.0" type="curve"/>
      <point x="425.0" y="22.0"/>
      <point x="425.0" y="0.0"/>
      <point x="425.0" y="22.0" type="curve"/>
      <point x="226.0" y="22.0"/>
      <point x="425.0" y="22.0"/>
      <point x="226.0" y="22.0" type="curve"/>
    </contour>
    <contour>
      <point x="962.0" y="0.0"/>
      <point x="937.0" y="0.0"/>
      <point x="966.0" y="0.0" type="curve"/>
      <point x="725.0" y="241.0"/>
      <point x="484.0" y="481.0"/>
      <point x="244.0" y="722.0" type="curve"/>
      <point x="214.0" y="722.0"/>
      <point x="240.0" y="722.0"/>
      <point x="210.0" y="722.0" type="curve"/>
      <point x="451.0" y="481.0"/>
      <point x="692.0" y="241.0"/>
      <point x="933.0" y="0.0" type="curve"/>
    </contour>
    <contour>
      <point x="942.0" y="722.0"/>
      <point x="967.0" y="722.0"/>
      <point x="942.0" y="722.0" type="curve"/>
      <point x="942.0" y="481.0"/>
      <point x="942.0" y="241.0"/>
      <point x="942.0" y="0.0" type="curve"/>
      <point x="967.0" y="0.0"/>
      <point x="942.0" y="0.0"/>
      <point x="967.0" y="0.0" type="curve"/>
      <point x="967.0" y="241.0"/>
      <point x="967.0" y="481.0"/>
      <point x="967.0" y="722.0" type="curve"/>
    </contour>
    <contour>
      <point x="238.0" y="0.0"/>
      <point x="213.0" y="0.0"/>
      <point x="238.0" y="0.0" type="curve"/>
      <point x="238.0" y="241.0"/>
      <point x="238.0" y="481.0"/>
      <point x="238.0" y="722.0" type="curve"/>
      <point x="213.0" y="722.0"/>
      <point x="238.0" y="722.0"/>
      <point x="213.0" y="722.0" type="curve"/>
      <point x="213.0" y="481.0"/>
      <point x="213.0" y="241.0"/>
      <point x="213.0" y="0.0" type="curve"/>
    </contour>
    <contour>
      <point x="580" y="855" type="move" name="top"/>
    </contour>
    <contour>
      <point x="586" y="14" type="move" name="bottom"/>
    </contour>
  </outline>
</glyph>
<glyph name="O" format="1">
  <advance width="1041"/>
  <unicode hex="004F"/>
  <outline>
    <contour>
      <point x="167.35" y="360.002222222"/>
      <point x="143.15" y="360.002222222"/>
      <point x="167.35" y="360.002222222" type="curve"/>
      <point x="167.35" y="575.547340941"/>
      <point x="321.0" y="705.0"/>
      <point x="544.0" y="705.0" type="curve"/>
      <point x="768.0" y="705.0"/>
      <point x="923.45" y="578.118303516"/>
      <point x="923.45" y="362.995555556" type="curve"/>
      <point x="923.45" y="147.456181739"/>
      <point x="770.0" y="18.0"/>
      <point x="547.0" y="18.0" type="curve"/>
      <point x="322.0" y="18.0"/>
      <point x="167.35" y="143.978507114"/>
      <point x="167.35" y="360.002222222" type="curve"/>
      <point x="143.15" y="360.002222222"/>
      <point x="167.35" y="360.002222222"/>
      <point x="143.15" y="360.002222222" type="curve"/>
      <point x="143.15" y="128.927712475"/>
      <point x="307.608988697" y="-5.0"/>
      <point x="545.525" y="-5.0" type="curve"/>
      <point x="784.207614155" y="-5.0"/>
      <point x="947.65" y="131.165325334"/>
      <point x="947.65" y="362.995555556" type="curve"/>
      <point x="947.65" y="593.091153168"/>
      <point x="783.232236894" y="727.0"/>
      <point x="545.15" y="727.0" type="curve"/>
      <point x="306.407153428" y="727.0"/>
      <point x="143.15" y="590.797706239"/>
      <point x="143.15" y="360.002222222" type="curve"/>
    </contour>
    <contour>
      <point x="546" y="855" type="move" name="top"/>
    </contour>
  </outline>
</glyph>
<glyph name="P" format="1">
  <advance width="772"/>
  <unicode hex="0050"/>
  <outline>
    <contour>
      <point x="234.0" y="722.0"/>
      <point x="234.0" y="700.0"/>
      <point x="234.0" y="722.0" type="curve"/>
      <point x="168.0" y="722.0"/>
      <point x="101.0" y="722.0"/>
      <point x="35.0" y="722.0" type="curve"/>
      <point x="35.0" y="700.0"/>
      <point x="35.0" y="722.0"/>
      <point x="35.0" y="700.0" type="curve"/>
      <point x="234.0" y="700.0"/>
      <point x="35.0" y="700.0"/>
      <point x="234.0" y="700.0" type="curve"/>
    </contour>
    <contour>
      <point x="234.0" y="22.0"/>
      <point x="234.0" y="0.0"/>
      <point x="234.0" y="22.0" type="curve"/>
      <point x="35.0" y="22.0"/>
      <point x="234.0" y="22.0"/>
      <point x="35.0" y="22.0" type="curve"/>
      <point x="35.0" y="0.0"/>
      <point x="35.0" y="22.0"/>
      <point x="35.0" y="0.0" type="curve"/>
      <point x="101.0" y="0.0"/>
      <point x="168.0" y="0.0"/>
      <point x="234.0" y="0.0" type="curve"/>
    </contour>
    <contour>
      <point x="234.0" y="0.0"/>
      <point x="234.0" y="22.0"/>
      <point x="234.0" y="0.0" type="curve"/>
      <point x="300.0" y="0.0"/>
      <point x="234.0" y="0.0"/>
      <point x="433.0" y="0.0" type="curve"/>
      <point x="433.0" y="22.0"/>
      <point x="433.0" y="0.0"/>
      <point x="433.0" y="22.0" type="curve"/>
      <point x="234.0" y="22.0"/>
      <point x="433.0" y="22.0"/>
      <point x="234.0" y="22.0" type="curve"/>
    </contour>
    <contour>
      <point x="232.0" y="326.0"/>
      <point x="240.0" y="346.0"/>
      <point x="232.0" y="326.0" type="curve"/>
      <point x="303.0" y="299.0"/>
      <point x="367.0" y="280.0"/>
      <point x="443.0" y="280.0" type="curve"/>
      <point x="606.0" y="283.0"/>
      <point x="735.0" y="347.0"/>
      <point x="735.0" y="494.0" type="curve"/>
      <point x="735.0" y="654.0"/>
      <point x="589.0" y="722.0"/>
      <point x="410.0" y="722.0" type="curve"/>
      <point x="353.0" y="722.0"/>
      <point x="295.0" y="722.0"/>
      <point x="238.0" y="722.0" type="curve"/>
      <point x="238.0" y="700.0"/>
      <point x="238.0" y="722.0"/>
      <point x="238.0" y="700.0" type="curve"/>
      <point x="294.0" y="700.0"/>
      <point x="351.0" y="700.0"/>
      <point x="407.0" y="700.0" type="curve"/>
      <point x="574.0" y="700.0"/>
      <point x="710.0" y="642.0"/>
      <point x="710.0" y="493.0" type="curve"/>
      <point x="710.0" y="360.0"/>
      <point x="592.0" y="302.0"/>
      <point x="446.0" y="302.0" type="curve"/>
      <point x="368.0" y="302.0"/>
      <point x="312.0" y="318.0"/>
      <point x="240.0" y="346.0" type="curve"/>
    </contour>
    <contour>
      <point x="245.0" y="0.0"/>
      <point x="220.0" y="0.0"/>
      <point x="245.0" y="0.0" type="curve"/>
      <point x="245.0" y="241.0"/>
      <point x="245.0" y="481.0"/>
      <point x="245.0" y="722.0" type="curve"/>
      <point x="220.0" y="722.0"/>
      <point x="245.0" y="722.0"/>
      <point x="220.0" y="722.0" type="curve"/>
      <point x="220.0" y="481.0"/>
      <point x="220.0" y="241.0"/>
      <point x="220.0" y="0.0" type="curve"/>
    </contour>
  </outline>
</glyph>
<glyph name="R" format="1">
  <advance width="1046"/>
  <unicode hex="0052"/>
  <outline>
    <contour>
      <point x="832.0" y="0.0"/>
      <point x="832.0" y="22.0"/>
      <point x="832.0" y="0.0" type="curve"/>
      <point x="898.0" y="0.0"/>
      <point x="963.0" y="0.0"/>
      <point x="1030.0" y="0.0" type="curve"/>
      <point x="1030.0" y="22.0"/>
      <point x="1030.0" y="0.0"/>
      <point x="1030.0" y="22.0" type="curve"/>
      <point x="831.0" y="22.0"/>
      <point x="1031.0" y="22.0"/>
      <point x="832.0" y="22.0" type="curve"/>
    </contour>
    <contour>
      <point x="223.0" y="722.0"/>
      <point x="223.0" y="700.0"/>
      <point x="223.0" y="722.0" type="curve"/>
      <point x="157.0" y="722.0"/>
      <point x="90.0" y="722.0"/>
      <point x="24.0" y="722.0" type="curve"/>
      <point x="24.0" y="700.0"/>
      <point x="24.0" y="722.0"/>
      <point x="24.0" y="700.0" type="curve"/>
      <point x="223.0" y="700.0"/>
      <point x="24.0" y="700.0"/>
      <point x="223.0" y="700.0" type="curve"/>
    </contour>
    <contour>
      <point x="223.0" y="22.0"/>
      <point x="223.0" y="0.0"/>
      <point x="223.0" y="22.0" type="curve"/>
      <point x="24.0" y="22.0"/>
      <point x="223.0" y="22.0"/>
      <point x="24.0" y="22.0" type="curve"/>
      <point x="24.0" y="0.0"/>
      <point x="24.0" y="22.0"/>
      <point x="24.0" y="0.0" type="curve"/>
      <point x="90.0" y="0.0"/>
      <point x="157.0" y="0.0"/>
      <point x="223.0" y="0.0" type="curve"/>
    </contour>
    <contour>
      <point x="223.0" y="0.0"/>
      <point x="223.0" y="22.0"/>
      <point x="223.0" y="0.0" type="curve"/>
      <point x="290.0" y="0.0"/>
      <point x="223.0" y="0.0"/>
      <point x="422.0" y="0.0" type="curve"/>
      <point x="422.0" y="22.0"/>
      <point x="422.0" y="0.0"/>
      <point x="422.0" y="22.0" type="curve"/>
      <point x="223.0" y="22.0"/>
      <point x="422.0" y="22.0"/>
      <point x="223.0" y="22.0" type="curve"/>
    </contour>
    <contour>
      <point x="489.0" y="354.0"/>
      <point x="516.0" y="354.0"/>
      <point x="487.0" y="354.0" type="curve"/>
      <point x="602.0" y="236.0"/>
      <point x="717.0" y="118.0"/>
      <point x="832.0" y="0.0" type="curve"/>
      <point x="862.0" y="0.0"/>
      <point x="834.0" y="0.0"/>
      <point x="864.0" y="0.0" type="curve"/>
      <point x="748.0" y="118.0"/>
      <point x="633.0" y="236.0"/>
      <point x="518.0" y="354.0" type="curve"/>
    </contour>
    <contour>
      <point x="237.0" y="0.0"/>
      <point x="212.0" y="0.0"/>
      <point x="237.0" y="0.0" type="curve"/>
      <point x="237.0" y="241.0"/>
      <point x="237.0" y="481.0"/>
      <point x="237.0" y="722.0" type="curve"/>
      <point x="212.0" y="722.0"/>
      <point x="237.0" y="722.0"/>
      <point x="212.0" y="722.0" type="curve"/>
      <point x="212.0" y="481.0"/>
      <point x="212.0" y="241.0"/>
      <point x="212.0" y="0.0" type="curve"/>
    </contour>
    <contour>
      <point x="227.0" y="340.0"/>
      <point x="227.0" y="362.0"/>
      <point x="227.0" y="340.0" type="curve"/>
      <point x="304.0" y="340.0"/>
      <point x="381.0" y="340.0"/>
      <point x="457.0" y="340.0" type="curve"/>
      <point x="624.0" y="340.0"/>
      <point x="748.0" y="389.0"/>
      <point x="748.0" y="537.0" type="curve"/>
      <point x="748.0" y="679.0"/>
      <point x="627.0" y="722.0"/>
      <point x="467.0" y="722.0" type="curve"/>
      <point x="387.0" y="722.0"/>
      <point x="307.0" y="722.0"/>
      <point x="227.0" y="722.0" type="curve"/>
      <point x="227.0" y="700.0"/>
      <point x="227.0" y="722.0"/>
      <point x="227.0" y="700.0" type="curve"/>
      <point x="306.0" y="700.0"/>
      <point x="384.0" y="700.0"/>
      <point x="463.0" y="700.0" type="curve"/>
      <point x="611.0" y="700.0"/>
      <point x="724.0" y="664.0"/>
      <point x="724.0" y="535.0" type="curve"/>
      <point x="724.0" y="403.0"/>
      <point x="609.0" y="362.0"/>
      <point x="460.0" y="362.0" type="curve"/>
      <point x="383.0" y="362.0"/>
      <point x="305.0" y="362.0"/>
      <point x="227.0" y="362.0" type="curve"/>
    </contour>
    <contour>
      <point x="436.0" y="855.0" type="move" name="top"/>
    </contour>
    <contour>
      <point x="502.0" y="14.0" type="move" name="bottom"/>
    </contour>
  </outline>
</glyph>
<glyph name="S" format="1">
  <advance width="681"/>
  <unicode hex="0053"/>
  <outline>
    <contour>
      <point x="589.0" y="663.0"/>
      <point x="611.0" y="663.0"/>
      <point x="589.0" y="663.0" type="curve"/>
      <point x="589.0" y="543.0"/>
      <point x="589.0" y="663.0"/>
      <point x="589.0" y="543.0" type="curve"/>
      <point x="611.0" y="543.0"/>
      <point x="589.0" y="543.0"/>
      <point x="611.0" y="543.0" type="curve"/>
      <point x="611.0" y="663.0"/>
      <point x="611.0" y="543.0"/>
      <point x="611.0" y="663.0" type="curve"/>
    </contour>
    <contour>
      <point x="89.0" y="58.0"/>
      <point x="67.0" y="58.0"/>
      <point x="89.0" y="58.0" type="curve"/>
      <point x="89.0" y="178.0"/>
      <point x="89.0" y="58.0"/>
      <point x="89.0" y="178.0" type="curve"/>
      <point x="67.0" y="178.0"/>
      <point x="89.0" y="178.0"/>
      <point x="67.0" y="178.0" type="curve"/>
      <point x="67.0" y="58.0"/>
      <point x="67.0" y="178.0"/>
      <point x="67.0" y="58.0" type="curve"/>
    </contour>
    <contour>
      <point x="67.0" y="58.0"/>
      <point x="80.0" y="78.0"/>
      <point x="67.0" y="58.0" type="curve"/>
      <point x="157.0" y="16.0"/>
      <point x="250.0" y="-5.0"/>
      <point x="348.0" y="-5.0" type="curve"/>
      <point x="509.0" y="-5.0"/>
      <point x="631.0" y="30.0"/>
      <point x="631.0" y="169.0" type="curve"/>
      <point x="631.0" y="304.0"/>
      <point x="501.0" y="334.0"/>
      <point x="367.0" y="382.0" type="curve"/>
      <point x="248.0" y="424.0"/>
      <point x="126.0" y="447.0"/>
      <point x="126.0" y="563.0" type="curve"/>
      <point x="126.0" y="666.0"/>
      <point x="230.0" y="706.0"/>
      <point x="350.0" y="706.0" type="curve"/>
      <point x="444.0" y="706.0"/>
      <point x="514.0" y="684.0"/>
      <point x="600.0" y="646.0" type="curve"/>
      <point x="611.0" y="663.0"/>
      <point x="600.0" y="646.0"/>
      <point x="611.0" y="663.0" type="curve"/>
      <point x="522.0" y="703.0"/>
      <point x="449.0" y="727.0"/>
      <point x="351.0" y="727.0" type="curve"/>
      <point x="216.0" y="727.0"/>
      <point x="102.0" y="679.0"/>
      <point x="102.0" y="562.0" type="curve"/>
      <point x="102.0" y="434.0"/>
      <point x="227.0" y="407.0"/>
      <point x="353.0" y="362.0" type="curve"/>
      <point x="480.0" y="318.0"/>
      <point x="607.0" y="290.0"/>
      <point x="607.0" y="169.0" type="curve"/>
      <point x="607.0" y="43.0"/>
      <point x="495.0" y="19.0"/>
      <point x="349.0" y="19.0" type="curve"/>
      <point x="255.0" y="19.0"/>
      <point x="166.0" y="40.0"/>
      <point x="80.0" y="78.0" type="curve"/>
    </contour>
    <contour>
      <point x="353" y="855" type="move" name="top"/>
    </contour>
    <contour>
      <point x="314" y="9" type="move" name="bottom"/>
    </contour>
  </outline>
</glyph>
<glyph name="T" format="1">
  <advance width="897"/>
  <unicode hex="0054"/>
  <outline>
    <contour>
      <point x="35.1" y="710.222222222"/>
      <point x="56.88" y="710.222222222"/>
      <point x="35.1" y="710.222222222" type="curve"/>
      <point x="35.1" y="590.222222222"/>
      <point x="35.1" y="710.222222222"/>
      <point x="35.1" y="590.222222222" type="curve"/>
      <point x="56.88" y="590.222222222"/>
      <point x="35.1" y="590.222222222"/>
      <point x="56.88" y="590.222222222" type="curve"/>
      <point x="56.88" y="710.222222222"/>
      <point x="56.88" y="590.222222222"/>
      <point x="56.88" y="710.222222222" type="curve"/>
    </contour>
    <contour>
      <point x="850.32" y="710.222222222"/>
      <point x="872.1" y="710.222222222"/>
      <point x="850.32" y="710.222222222" type="curve"/>
      <point x="850.32" y="590.222222222"/>
      <point x="850.32" y="710.222222222"/>
      <point x="850.32" y="590.222222222" type="curve"/>
      <point x="872.1" y="590.222222222"/>
      <point x="850.32" y="590.222222222"/>
      <point x="872.1" y="590.222222222" type="curve"/>
      <point x="872.1" y="710.222222222"/>
      <point x="872.1" y="590.222222222"/>
      <point x="872.1" y="710.222222222" type="curve"/>
    </contour>
    <contour>
      <point x="452.25" y="0.0"/>
      <point x="452.25" y="21.56"/>
      <point x="452.25" y="0.0" type="curve"/>
      <point x="518.5993365" y="0.0"/>
      <point x="584.9506635" y="0.0"/>
      <point x="651.3" y="0.0" type="curve"/>
      <point x="651.3" y="21.56"/>
      <point x="651.3" y="0.0"/>
      <point x="651.3" y="21.56" type="curve"/>
      <point x="452.25" y="21.56"/>
      <point x="651.3" y="21.56"/>
      <point x="452.25" y="21.56" type="curve"/>
    </contour>
    <contour>
      <point x="452.25" y="21.56"/>
      <point x="452.25" y="0.0"/>
      <point x="452.25" y="21.56" type="curve"/>
      <point x="253.2" y="21.56"/>
      <point x="452.25" y="21.56"/>
      <point x="253.2" y="21.56" type="curve"/>
      <point x="253.2" y="0.0"/>
      <point x="253.2" y="21.56"/>
      <point x="253.2" y="0.0" type="curve"/>
      <point x="319.5493365" y="-8.12518190498e-15"/>
      <point x="385.9006635" y="8.12518190498e-15"/>
      <point x="452.25" y="0.0" type="curve"/>
    </contour>
    <contour>
      <point x="465.7" y="0.0"/>
      <point x="441.5" y="1.45213821436e-15"/>
      <point x="465.7" y="0.0" type="curve"/>
      <point x="465.7" y="236.6643"/>
      <point x="465.7" y="473.3357"/>
      <point x="465.7" y="710.0" type="curve"/>
      <point x="441.5" y="710.0"/>
      <point x="465.7" y="710.0"/>
      <point x="441.5" y="710.0" type="curve"/>
      <point x="441.5" y="473.3357"/>
      <point x="441.5" y="236.6643"/>
      <point x="441.5" y="1.45213821436e-15" type="curve"/>
    </contour>
    <contour>
      <point x="35.1" y="698.364222222"/>
      <point x="35.1" y="722.080222222"/>
      <point x="35.1" y="698.364222222" type="curve"/>
      <point x="314.09721" y="698.364222222"/>
      <point x="593.10279" y="698.364222222"/>
      <point x="872.1" y="698.364222222" type="curve"/>
      <point x="872.1" y="722.080222222"/>
      <point x="872.1" y="698.364222222"/>
      <point x="872.1" y="722.080222222" type="curve"/>
      <point x="593.10279" y="722.080222222"/>
      <point x="314.09721" y="722.080222222"/>
      <point x="35.1" y="722.080222222" type="curve"/>
    </contour>
    <contour>
      <point x="450.0" y="854.0" type="move" name="top"/>
    </contour>
    <contour>
      <point x="452.0" y="8.0" type="move" name="bottom"/>
    </contour>
  </outline>
</glyph>
<glyph name="U" format="1">
  <advance width="1118"/>
  <unicode hex="0055"/>
  <outline>
    <contour>
      <point x="894.0" y="700.0"/>
      <point x="894.0" y="722.0"/>
      <point x="894.0" y="700.0" type="curve"/>
      <point x="1093.0" y="700.0"/>
      <point x="894.0" y="700.0"/>
      <point x="1093.0" y="700.0" type="curve"/>
      <point x="1093.0" y="722.0"/>
      <point x="1093.0" y="700.0"/>
      <point x="1093.0" y="722.0" type="curve"/>
      <point x="1027.0" y="722.0"/>
      <point x="960.0" y="722.0"/>
      <point x="894.0" y="722.0" type="curve"/>
    </contour>
    <contour>
      <point x="894.0" y="722.0"/>
      <point x="894.0" y="700.0"/>
      <point x="894.0" y="722.0" type="curve"/>
      <point x="827.0" y="722.0"/>
      <point x="761.0" y="722.0"/>
      <point x="695.0" y="722.0" type="curve"/>
      <point x="695.0" y="700.0"/>
      <point x="695.0" y="722.0"/>
      <point x="695.0" y="700.0" type="curve"/>
      <point x="894.0" y="700.0"/>
      <point x="695.0" y="700.0"/>
      <point x="894.0" y="700.0" type="curve"/>
    </contour>
    <contour>
      <point x="219.0" y="722.0"/>
      <point x="219.0" y="700.0"/>
      <point x="219.0" y="722.0" type="curve"/>
      <point x="152.0" y="722.0"/>
      <point x="86.0" y="722.0"/>
      <point x="20.0" y="722.0" type="curve"/>
      <point x="20.0" y="700.0"/>
      <point x="20.0" y="722.0"/>
      <point x="20.0" y="700.0" type="curve"/>
      <point x="219.0" y="700.0"/>
      <point x="20.0" y="700.0"/>
      <point x="219.0" y="700.0" type="curve"/>
    </contour>
    <contour>
      <point x="219.0" y="700.0"/>
      <point x="219.0" y="722.0"/>
      <point x="219.0" y="700.0" type="curve"/>
      <point x="418.0" y="700.0"/>
      <point x="219.0" y="700.0"/>
      <point x="418.0" y="700.0" type="curve"/>
      <point x="418.0" y="722.0"/>
      <point x="418.0" y="700.0"/>
      <point x="418.0" y="722.0" type="curve"/>
      <point x="352.0" y="722.0"/>
      <point x="285.0" y="722.0"/>
      <point x="219.0" y="722.0" type="curve"/>
    </contour>
    <contour>
      <point x="218.0" y="721.0"/>
      <point x="213.0" y="721.0"/>
      <point x="204.0" y="721.0" type="curve"/>
      <point x="204.0" y="540.0"/>
      <point x="204.0" y="452.0"/>
      <point x="204.0" y="271.0" type="curve"/>
      <point x="204.0" y="68.0"/>
      <point x="338.0" y="-5.0"/>
      <point x="558.0" y="-5.0" type="curve"/>
      <point x="774.0" y="-5.0"/>
      <point x="906.0" y="65.0"/>
      <point x="906.0" y="263.0" type="curve"/>
      <point x="906.0" y="447.0"/>
      <point x="906.0" y="537.0"/>
      <point x="906.0" y="721.0" type="curve"/>
      <point x="897.0" y="721.0"/>
      <point x="892.0" y="721.0"/>
      <point x="883.0" y="721.0" type="curve"/>
      <point x="883.0" y="535.0"/>
      <point x="883.0" y="445.0"/>
      <point x="883.0" y="259.0" type="curve"/>
      <point x="883.0" y="84.0"/>
      <point x="759.0" y="19.0"/>
      <point x="560.0" y="19.0" type="curve"/>
      <point x="353.0" y="19.0"/>
      <point x="227.0" y="85.0"/>
      <point x="227.0" y="275.0" type="curve"/>
      <point x="227.0" y="454.0"/>
      <point x="227.0" y="542.0"/>
      <point x="227.0" y="721.0" type="curve"/>
    </contour>
    <contour>
      <point x="553.0" y="855.0" type="move" name="top"/>
    </contour>
    <contour>
      <point x="561.0" y="4.0" type="move" name="bottom"/>
    </contour>
  </outline>
</glyph>
<glyph name="V" format="1">
  <advance width="1155"/>
  <unicode hex="0056"/>
  <outline>
    <contour>
      <point x="947.0" y="722.0"/>
      <point x="947.0" y="700.0"/>
      <point x="947.0" y="722.0" type="curve"/>
      <point x="879.0" y="722.0"/>
      <point x="811.0" y="722.0"/>
      <point x="743.0" y="722.0" type="curve"/>
      <point x="743.0" y="700.0"/>
      <point x="743.0" y="722.0"/>
      <point x="743.0" y="700.0" type="curve"/>
      <point x="947.0" y="700.0"/>
      <point x="743.0" y="700.0"/>
      <point x="947.0" y="700.0" type="curve"/>
    </contour>
    <contour>
      <point x="216.0" y="722.0"/>
      <point x="216.0" y="700.0"/>
      <point x="216.0" y="722.0" type="curve"/>
      <point x="149.0" y="722.0"/>
      <point x="83.0" y="722.0"/>
      <point x="16.0" y="722.0" type="curve"/>
      <point x="16.0" y="700.0"/>
      <point x="16.0" y="722.0"/>
      <point x="16.0" y="700.0" type="curve"/>
      <point x="216.0" y="700.0"/>
      <point x="16.0" y="700.0"/>
      <point x="216.0" y="700.0" type="curve"/>
    </contour>
    <contour>
      <point x="947.0" y="700.0"/>
      <point x="947.0" y="722.0"/>
      <point x="947.0" y="700.0" type="curve"/>
      <point x="1146.0" y="700.0"/>
      <point x="947.0" y="700.0"/>
      <point x="1146.0" y="700.0" type="curve"/>
      <point x="1146.0" y="722.0"/>
      <point x="1146.0" y="700.0"/>
      <point x="1146.0" y="722.0" type="curve"/>
      <point x="1080.0" y="722.0"/>
      <point x="1014.0" y="722.0"/>
      <point x="947.0" y="722.0" type="curve"/>
    </contour>
    <contour>
      <point x="216.0" y="700.0"/>
      <point x="216.0" y="722.0"/>
      <point x="216.0" y="700.0" type="curve"/>
      <point x="420.0" y="700.0"/>
      <point x="216.0" y="700.0"/>
      <point x="420.0" y="700.0" type="curve"/>
      <point x="420.0" y="722.0"/>
      <point x="420.0" y="700.0"/>
      <point x="420.0" y="722.0" type="curve"/>
      <point x="352.0" y="722.0"/>
      <point x="284.0" y="722.0"/>
      <point x="216.0" y="722.0" type="curve"/>
    </contour>
    <contour>
      <point x="950.0" y="722.0"/>
      <point x="977.0" y="722.0"/>
      <point x="950.0" y="722.0" type="curve"/>
      <point x="825.0" y="481.0"/>
      <point x="700.0" y="241.0"/>
      <point x="575.0" y="0.0" type="curve"/>
      <point x="602.0" y="0.0"/>
      <point x="575.0" y="0.0"/>
      <point x="602.0" y="0.0" type="curve"/>
      <point x="727.0" y="241.0"/>
      <point x="852.0" y="481.0"/>
      <point x="977.0" y="722.0" type="curve"/>
    </contour>
    <contour>
      <point x="187.0" y="722.0"/>
      <point x="214.0" y="722.0"/>
      <point x="186.0" y="722.0" type="curve"/>
      <point x="313.0" y="481.0"/>
      <point x="440.0" y="241.0"/>
      <point x="567.0" y="0.0" type="curve"/>
      <point x="594.0" y="0.0"/>
      <point x="568.0" y="0.0"/>
      <point x="595.0" y="0.0" type="curve"/>
      <point x="468.0" y="241.0"/>
      <point x="341.0" y="481.0"/>
      <point x="215.0" y="722.0" type="curve"/>
    </contour>
  </outline>
</glyph>
<glyph name="X" format="1">
  <advance width="1085"/>
  <unicode hex="0058"/>
  <outline>
    <contour>
      <point x="213.0" y="0.0"/>
      <point x="213.0" y="22.0"/>
      <point x="213.0" y="0.0" type="curve"/>
      <point x="280.0" y="0.0"/>
      <point x="213.0" y="0.0"/>
      <point x="412.0" y="0.0" type="curve"/>
      <point x="412.0" y="22.0"/>
      <point x="412.0" y="0.0"/>
      <point x="412.0" y="22.0" type="curve"/>
      <point x="213.0" y="22.0"/>
      <point x="412.0" y="22.0"/>
      <point x="213.0" y="22.0" type="curve"/>
    </contour>
    <contour>
      <point x="213.0" y="22.0"/>
      <point x="213.0" y="0.0"/>
      <point x="213.0" y="22.0" type="curve"/>
      <point x="14.0" y="22.0"/>
      <point x="213.0" y="22.0"/>
      <point x="14.0" y="22.0" type="curve"/>
      <point x="14.0" y="0.0"/>
      <point x="14.0" y="22.0"/>
      <point x="14.0" y="0.0" type="curve"/>
      <point x="81.0" y="0.0"/>
      <point x="147.0" y="0.0"/>
      <point x="213.0" y="0.0" type="curve"/>
    </contour>
    <contour>
      <point x="867.0" y="0.0"/>
      <point x="867.0" y="22.0"/>
      <point x="867.0" y="0.0" type="curve"/>
      <point x="933.0" y="0.0"/>
      <point x="1000.0" y="0.0"/>
      <point x="1066.0" y="0.0" type="curve"/>
      <point x="1066.0" y="22.0"/>
      <point x="1066.0" y="0.0"/>
      <point x="1066.0" y="22.0" type="curve"/>
      <point x="867.0" y="22.0"/>
      <point x="1066.0" y="22.0"/>
      <point x="867.0" y="22.0" type="curve"/>
    </contour>
    <contour>
      <point x="867.0" y="22.0"/>
      <point x="867.0" y="0.0"/>
      <point x="867.0" y="22.0" type="curve"/>
      <point x="668.0" y="22.0"/>
      <point x="867.0" y="22.0"/>
      <point x="668.0" y="22.0" type="curve"/>
      <point x="668.0" y="0.0"/>
      <point x="668.0" y="22.0"/>
      <point x="668.0" y="0.0" type="curve"/>
      <point x="734.0" y="0.0"/>
      <point x="801.0" y="0.0"/>
      <point x="867.0" y="0.0" type="curve"/>
    </contour>
    <contour>
      <point x="832.0" y="700.0"/>
      <point x="832.0" y="722.0"/>
      <point x="832.0" y="700.0" type="curve"/>
      <point x="1031.0" y="700.0"/>
      <point x="832.0" y="700.0"/>
      <point x="1031.0" y="700.0" type="curve"/>
      <point x="1031.0" y="722.0"/>
      <point x="1031.0" y="700.0"/>
      <point x="1031.0" y="722.0" type="curve"/>
      <point x="965.0" y="722.0"/>
      <point x="898.0" y="722.0"/>
      <point x="832.0" y="722.0" type="curve"/>
    </contour>
    <contour>
      <point x="832.0" y="722.0"/>
      <point x="832.0" y="700.0"/>
      <point x="832.0" y="722.0" type="curve"/>
      <point x="766.0" y="722.0"/>
      <point x="699.0" y="722.0"/>
      <point x="633.0" y="722.0" type="curve"/>
      <point x="633.0" y="700.0"/>
      <point x="633.0" y="722.0"/>
      <point x="633.0" y="700.0" type="curve"/>
      <point x="832.0" y="700.0"/>
      <point x="633.0" y="700.0"/>
      <point x="832.0" y="700.0" type="curve"/>
    </contour>
    <contour>
      <point x="254.0" y="722.0"/>
      <point x="254.0" y="700.0"/>
      <point x="254.0" y="722.0" type="curve"/>
      <point x="188.0" y="722.0"/>
      <point x="121.0" y="722.0"/>
      <point x="55.0" y="722.0" type="curve"/>
      <point x="55.0" y="700.0"/>
      <point x="55.0" y="722.0"/>
      <point x="55.0" y="700.0" type="curve"/>
      <point x="254.0" y="700.0"/>
      <point x="55.0" y="700.0"/>
      <point x="254.0" y="700.0" type="curve"/>
    </contour>
    <contour>
      <point x="254.0" y="700.0"/>
      <point x="254.0" y="722.0"/>
      <point x="254.0" y="700.0" type="curve"/>
      <point x="453.0" y="700.0"/>
      <point x="254.0" y="700.0"/>
      <point x="453.0" y="700.0" type="curve"/>
      <point x="453.0" y="722.0"/>
      <point x="453.0" y="700.0"/>
      <point x="453.0" y="722.0" type="curve"/>
      <point x="387.0" y="722.0"/>
      <point x="320.0" y="722.0"/>
      <point x="254.0" y="722.0" type="curve"/>
    </contour>
    <contour>
      <point x="845.0" y="722.0"/>
      <point x="874.0" y="722.0"/>
      <point x="845.0" y="722.0" type="curve"/>
      <point x="621.0" y="481.0"/>
      <point x="396.0" y="241.0"/>
      <point x="172.0" y="0.0" type="curve"/>
      <point x="204.0" y="0.0"/>
      <point x="172.0" y="0.0"/>
      <point x="204.0" y="0.0" type="curve"/>
      <point x="427.0" y="241.0"/>
      <point x="650.0" y="481.0"/>
      <point x="874.0" y="722.0" type="curve"/>
    </contour>
    <contour>
      <point x="216.0" y="722.0"/>
      <point x="245.0" y="722.0"/>
      <point x="216.0" y="722.0" type="curve"/>
      <point x="438.0" y="481.0"/>
      <point x="659.0" y="241.0"/>
      <point x="881.0" y="0.0" type="curve"/>
      <point x="911.0" y="0.0"/>
      <point x="881.0" y="0.0"/>
      <point x="911.0" y="0.0" type="curve"/>
      <point x="689.0" y="241.0"/>
      <point x="467.0" y="481.0"/>
      <point x="245.0" y="722.0" type="curve"/>
    </contour>
  </outline>
</glyph>
<glyph name="Y" format="1">
  <advance width="1051"/>
  <unicode hex="0059"/>
  <outline>
    <contour>
      <point x="524.0" y="22.0"/>
      <point x="524.0" y="0.0"/>
      <point x="524.0" y="22.0" type="curve"/>
      <point x="325.0" y="22.0"/>
      <point x="524.0" y="22.0"/>
      <point x="325.0" y="22.0" type="curve"/>
      <point x="325.0" y="0.0"/>
      <point x="325.0" y="22.0"/>
      <point x="325.0" y="0.0" type="curve"/>
      <point x="391.0" y="0.0"/>
      <point x="458.0" y="0.0"/>
      <point x="524.0" y="0.0" type="curve"/>
    </contour>
    <contour>
      <point x="524.0" y="0.0"/>
      <point x="524.0" y="22.0"/>
      <point x="524.0" y="0.0" type="curve"/>
      <point x="590.0" y="0.0"/>
      <point x="657.0" y="0.0"/>
      <point x="723.0" y="0.0" type="curve"/>
      <point x="723.0" y="22.0"/>
      <point x="723.0" y="0.0"/>
      <point x="723.0" y="22.0" type="curve"/>
      <point x="524.0" y="22.0"/>
      <point x="723.0" y="22.0"/>
      <point x="524.0" y="22.0" type="curve"/>
    </contour>
    <contour>
      <point x="823.0" y="722.0"/>
      <point x="823.0" y="700.0"/>
      <point x="823.0" y="722.0" type="curve"/>
      <point x="756.0" y="722.0"/>
      <point x="690.0" y="722.0"/>
      <point x="624.0" y="722.0" type="curve"/>
      <point x="624.0" y="700.0"/>
      <point x="624.0" y="722.0"/>
      <point x="624.0" y="700.0" type="curve"/>
      <point x="823.0" y="700.0"/>
      <point x="624.0" y="700.0"/>
      <point x="823.0" y="700.0" type="curve"/>
    </contour>
    <contour>
      <point x="243.0" y="722.0"/>
      <point x="243.0" y="700.0"/>
      <point x="243.0" y="722.0" type="curve"/>
      <point x="177.0" y="722.0"/>
      <point x="110.0" y="722.0"/>
      <point x="44.0" y="722.0" type="curve"/>
      <point x="44.0" y="700.0"/>
      <point x="44.0" y="722.0"/>
      <point x="44.0" y="700.0" type="curve"/>
      <point x="243.0" y="700.0"/>
      <point x="44.0" y="700.0"/>
      <point x="243.0" y="700.0" type="curve"/>
    </contour>
    <contour>
      <point x="243.0" y="700.0"/>
      <point x="243.0" y="722.0"/>
      <point x="243.0" y="700.0" type="curve"/>
      <point x="442.0" y="700.0"/>
      <point x="243.0" y="700.0"/>
      <point x="442.0" y="700.0" type="curve"/>
      <point x="442.0" y="722.0"/>
      <point x="442.0" y="700.0"/>
      <point x="442.0" y="722.0" type="curve"/>
      <point x="376.0" y="722.0"/>
      <point x="309.0" y="722.0"/>
      <point x="243.0" y="722.0" type="curve"/>
    </contour>
    <contour>
      <point x="823.0" y="700.0"/>
      <point x="823.0" y="722.0"/>
      <point x="823.0" y="700.0" type="curve"/>
      <point x="1022.0" y="700.0"/>
      <point x="823.0" y="700.0"/>
      <point x="1022.0" y="700.0" type="curve"/>
      <point x="1022.0" y="722.0"/>
      <point x="1022.0" y="700.0"/>
      <point x="1022.0" y="722.0" type="curve"/>
      <point x="955.0" y="722.0"/>
      <point x="889.0" y="722.0"/>
      <point x="823.0" y="722.0" type="curve"/>
    </contour>
    <contour>
      <point x="194.0" y="722.0"/>
      <point x="220.0" y="722.0"/>
      <point x="194.0" y="722.0" type="curve"/>
      <point x="299.0" y="594.0"/>
      <point x="405.0" y="465.0"/>
      <point x="511.0" y="337.0" type="curve"/>
      <point x="537.0" y="337.0"/>
      <point x="511.0" y="337.0"/>
      <point x="537.0" y="337.0" type="curve"/>
      <point x="431.0" y="465.0"/>
      <point x="326.0" y="594.0"/>
      <point x="220.0" y="722.0" type="curve"/>
    </contour>
    <contour>
      <point x="846.0" y="722.0"/>
      <point x="872.0" y="722.0"/>
      <point x="846.0" y="722.0" type="curve"/>
      <point x="734.0" y="594.0"/>
      <point x="622.0" y="465.0"/>
      <point x="511.0" y="337.0" type="curve"/>
      <point x="537.0" y="337.0"/>
      <point x="511.0" y="337.0"/>
      <point x="537.0" y="337.0" type="curve"/>
      <point x="649.0" y="465.0"/>
      <point x="760.0" y="594.0"/>
      <point x="872.0" y="722.0" type="curve"/>
    </contour>
    <contour>
      <point x="537.0" y="0.0"/>
      <point x="511.0" y="0.0"/>
      <point x="537.0" y="0.0" type="curve"/>
      <point x="537.0" y="115.0"/>
      <point x="537.0" y="231.0"/>
      <point x="537.0" y="346.0" type="curve"/>
      <point x="511.0" y="346.0"/>
      <point x="537.0" y="346.0"/>
      <point x="511.0" y="346.0" type="curve"/>
      <point x="511.0" y="231.0"/>
      <point x="511.0" y="115.0"/>
      <point x="511.0" y="0.0" type="curve"/>
    </contour>
    <contour>
      <point x="522" y="855" type="move" name="top"/>
    </contour>
  </outline>
</glyph>
<glyph name="bracketleft" format="1">
  <advance width="315"/>
  <unicode hex="005B"/>
  <outline>
    <contour>
      <point x="268.0" y="771.0"/>
      <point x="268.0" y="747.0"/>
      <point x="268.0" y="771.0" type="curve"/>
      <point x="199.0" y="771.0"/>
      <point x="130.0" y="771.0"/>
      <point x="61.0" y="771.0" type="curve"/>
      <point x="60.0" y="771.0"/>
      <point x="61.0" y="771.0"/>
      <point x="58.0" y="771.0" type="curve"/>
      <point x="58.0" y="769.0"/>
      <point x="58.0" y="767.0"/>
      <point x="58.0" y="765.0" type="curve"/>
      <point x="58.0" y="470.0"/>
      <point x="58.0" y="175.0"/>
      <point x="58.0" y="-120.0" type="curve"/>
      <point x="58.0" y="-121.0"/>
      <point x="58.0" y="-123.0"/>
      <point x="58.0" y="-124.0" type="curve"/>
      <point x="59.0" y="-124.0"/>
      <point x="59.0" y="-124.0"/>
      <point x="60.0" y="-124.0" type="curve"/>
      <point x="129.0" y="-124.0"/>
      <point x="198.0" y="-124.0"/>
      <point x="268.0" y="-124.0" type="curve"/>
      <point x="268.0" y="-100.0"/>
      <point x="268.0" y="-124.0"/>
      <point x="268.0" y="-100.0" type="curve"/>
      <point x="198.0" y="-100.0"/>
      <point x="129.0" y="-100.0"/>
      <point x="60.0" y="-100.0" type="curve"/>
      <point x="83.0" y="-100.0"/>
      <point x="60.0" y="-100.0"/>
      <point x="83.0" y="-100.0" type="curve"/>
      <point x="83.0" y="-120.0"/>
      <point x="83.0" y="-100.0"/>
      <point x="83.0" y="-120.0" type="curve"/>
      <point x="83.0" y="175.0"/>
      <point x="83.0" y="470.0"/>
      <point x="83.0" y="765.0" type="curve"/>
      <point x="83.0" y="747.0"/>
      <point x="83.0" y="765.0"/>
      <point x="83.0" y="747.0" type="curve"/>
      <point x="61.0" y="747.0"/>
      <point x="83.0" y="747.0"/>
      <point x="61.0" y="747.0" type="curve"/>
      <point x="130.0" y="747.0"/>
      <point x="199.0" y="747.0"/>
      <point x="268.0" y="747.0" type="curve"/>
    </contour>
  </outline>
</glyph>
<glyph name="backslash" format="1">
  <advance width="677"/>
  <unicode hex="005C"/>
  <outline>
    <contour>
      <point x="633.0" y="-68.0"/>
      <point x="608.0" y="-68.0"/>
      <point x="633.0" y="-68.0" type="curve"/>
      <point x="457.0" y="236.0"/>
      <point x="281.0" y="540.0"/>
      <point x="104.0" y="844.0" type="curve"/>
      <point x="79.0" y="844.0"/>
      <point x="104.0" y="844.0"/>
      <point x="79.0" y="844.0" type="curve"/>
      <point x="255.0" y="540.0"/>
      <point x="432.0" y="236.0"/>
      <point x="608.0" y="-68.0" type="curve"/>
    </contour>
  </outline>
</glyph>
<glyph name="bracketright" format="1">
  <advance width="328"/>
  <unicode hex="005D"/>
  <outline>
    <contour>
      <point x="56.0" y="747.0"/>
      <point x="56.0" y="771.0"/>
      <point x="56.0" y="747.0" type="curve"/>
      <point x="125.0" y="747.0"/>
      <point x="193.0" y="747.0"/>
      <point x="262.0" y="747.0" type="curve"/>
      <point x="259.0" y="750.0"/>
      <point x="255.0" y="753.0"/>
      <point x="252.0" y="756.0" type="curve"/>
      <point x="248.0" y="759.0"/>
      <point x="244.0" y="762.0"/>
      <point x="241.0" y="765.0" type="curve"/>
      <point x="241.0" y="470.0"/>
      <point x="241.0" y="175.0"/>
      <point x="241.0" y="-120.0" type="curve"/>
      <point x="245.0" y="-117.0"/>
      <point x="249.0" y="-113.0"/>
      <point x="253.0" y="-109.0" type="curve"/>
      <point x="257.0" y="-107.0"/>
      <point x="260.0" y="-103.0"/>
      <point x="264.0" y="-100.0" type="curve"/>
      <point x="194.0" y="-100.0"/>
      <point x="125.0" y="-100.0"/>
      <point x="56.0" y="-100.0" type="curve"/>
      <point x="56.0" y="-124.0"/>
      <point x="56.0" y="-100.0"/>
      <point x="56.0" y="-124.0" type="curve"/>
      <point x="125.0" y="-124.0"/>
      <point x="194.0" y="-124.0"/>
      <point x="264.0" y="-124.0" type="curve"/>
      <point x="265.0" y="-124.0"/>
      <point x="264.0" y="-124.0"/>
      <point x="265.0" y="-124.0" type="curve"/>
      <point x="265.0" y="-120.0"/>
      <point x="265.0" y="-124.0"/>
      <point x="265.0" y="-120.0" type="curve"/>
      <point x="265.0" y="175.0"/>
      <point x="265.0" y="470.0"/>
      <point x="265.0" y="765.0" type="curve"/>
      <point x="265.0" y="771.0"/>
      <point x="265.0" y="765.0"/>
      <point x="265.0" y="771.0" type="curve"/>
      <point x="262.0" y="771.0"/>
      <point x="265.0" y="771.0"/>
      <point x="262.0" y="771.0" type="curve"/>
      <point x="193.0" y="771.0"/>
      <point x="125.0" y="771.0"/>
      <point x="56.0" y="771.0" type="curve"/>
    </contour>
  </outline>
</glyph>
<glyph name="underscore" format="1">
  <advance width="857"/>
  <unicode hex="005F"/>
  <outline>
    <contour>
      <point x="114.75" y="-209.533333333"/>
      <point x="114.75" y="-188.753333333"/>
      <point x="114.75" y="-209.533333333" type="curve"/>
      <point x="421.646931" y="-209.533333333"/>
      <point x="728.553069" y="-209.533333333"/>
      <point x="1035.45" y="-209.533333333" type="curve"/>
      <point x="1035.45" y="-188.753333333"/>
      <point x="1035.45" y="-209.533333333"/>
      <point x="1035.45" y="-188.753333333" type="curve"/>
      <point x="728.553069" y="-188.753333333"/>
      <point x="421.646931" y="-188.753333333"/>
      <point x="114.75" y="-188.753333333" type="curve"/>
    </contour>
  </outline>
</glyph>
<glyph name="grave" format="1">
  <advance width="400"/>
  <unicode hex="0060"/>
  <outline>
    <contour>
      <point x="389.1" y="591.0"/>
      <point x="363.0" y="591.0"/>
      <point x="394.0" y="591.0" type="curve"/>
      <point x="320.0" y="646.0"/>
      <point x="246.0" y="702.0"/>
      <point x="171.0" y="757.0" type="curve"/>
      <point x="140.0" y="757.0"/>
      <point x="166.35" y="757.0"/>
      <point x="134.85" y="757.0" type="curve"/>
      <point x="209.0992575" y="701.66722"/>
      <point x="283.3507425" y="646.33278"/>
      <point x="357.6" y="591.0" type="curve"/>
    </contour>
    <contour>
      <point x="305.0" y="600.0" type="move" name="_top"/>
    </contour>
  </outline>
</glyph>
<glyph name="c" format="1">
  <advance width="711"/>
  <unicode hex="0063"/>
  <outline>
    <contour>
      <point x="587.0" y="473.0"/>
      <point x="609.0" y="473.0"/>
      <point x="587.0" y="473.0" type="curve"/>
      <point x="587.0" y="353.0"/>
      <point x="587.0" y="473.0"/>
      <point x="587.0" y="353.0" type="curve"/>
      <point x="609.0" y="353.0"/>
      <point x="587.0" y="353.0"/>
      <point x="609.0" y="353.0" type="curve"/>
      <point x="609.0" y="473.0"/>
      <point x="609.0" y="353.0"/>
      <point x="609.0" y="473.0" type="curve"/>
    </contour>
    <contour>
      <point x="609.0" y="473.0"/>
      <point x="595.0" y="458.0"/>
      <point x="609.0" y="473.0" type="curve"/>
      <point x="546.0" y="511.0"/>
      <point x="470.0" y="538.0"/>
      <point x="393.0" y="538.0" type="curve"/>
      <point x="205.0" y="538.0"/>
      <point x="79.0" y="450.0"/>
      <point x="79.0" y="267.0" type="curve"/>
      <point x="79.0" y="84.0"/>
      <point x="202.0" y="-5.0"/>
      <point x="391.0" y="-5.0" type="curve"/>
      <point x="476.0" y="-5.0"/>
      <point x="561.0" y="25.0"/>
      <point x="624.0" y="82.0" type="curve"/>
      <point x="607.0" y="98.0"/>
      <point x="624.0" y="82.0"/>
      <point x="607.0" y="98.0" type="curve"/>
      <point x="547.0" y="43.0"/>
      <point x="470.0" y="17.0"/>
      <point x="391.0" y="17.0" type="curve"/>
      <point x="220.0" y="17.0"/>
      <point x="103.0" y="97.0"/>
      <point x="103.0" y="267.0" type="curve"/>
      <point x="103.0" y="437.0"/>
      <point x="220.0" y="516.0"/>
      <point x="391.0" y="516.0" type="curve"/>
      <point x="463.0" y="516.0"/>
      <point x="534.0" y="494.0"/>
      <point x="595.0" y="458.0" type="curve"/>
    </contour>
    <contour>
      <point x="386" y="10" type="move" name="bottom"/>
    </contour>
    <contour>
      <point x="392" y="669" type="move" name="top"/>
    </contour>
  </outline>
</glyph>
<glyph name="d" format="1">
  <advance width="985"/>
  <unicode hex="0064"/>
  <outline>
    <contour>
      <point x="718.2" y="799.989873418"/>
      <point x="718.2" y="778.429873418"/>
      <point x="718.2" y="799.989873418" type="curve"/>
      <point x="651.850663371" y="799.989873418"/>
      <point x="585.499336629" y="800.0"/>
      <point x="519.15" y="800.0" type="curve"/>
      <point x="519.15" y="778.44"/>
      <point x="519.15" y="800.0"/>
      <point x="519.15" y="778.44" type="curve"/>
      <point x="718.2" y="778.429873418"/>
      <point x="519.15" y="778.44"/>
      <point x="718.2" y="778.429873418" type="curve"/>
    </contour>
    <contour>
      <point x="719.55" y="-0.0101265822785"/>
      <point x="719.55" y="21.5498734177"/>
      <point x="719.55" y="-0.0101265822785" type="curve"/>
      <point x="785.899336629" y="-0.0101265822785"/>
      <point x="852.250663371" y="0.0"/>
      <point x="918.6" y="0.0" type="curve"/>
      <point x="918.6" y="21.56"/>
      <point x="918.6" y="0.0"/>
      <point x="918.6" y="21.56" type="curve"/>
      <point x="719.55" y="21.5498734177"/>
      <point x="918.6" y="21.56"/>
      <point x="719.55" y="21.5498734177" type="curve"/>
    </contour>
    <contour>
      <point x="726.15" y="448.055877193"/>
      <point x="711.85" y="431.885877193"/>
      <point x="726.15" y="448.055877193" type="curve"/>
      <point x="647.748117263" y="511.495193631"/>
      <point x="563.0" y="538.0"/>
      <point x="458.0" y="538.0" type="curve"/>
      <point x="272.0" y="538.0"/>
      <point x="132.35" y="441.357185071"/>
      <point x="132.35" y="263.967081871" type="curve"/>
      <point x="132.35" y="87.8898784058"/>
      <point x="275.0" y="-5.0"/>
      <point x="462.0" y="-5.0" type="curve"/>
      <point x="573.0" y="-5.0"/>
      <point x="652.22314424" y="31.909608585"/>
      <point x="726.15" y="118.881251462" type="curve"/>
      <point x="711.85" y="133.973251462"/>
      <point x="726.15" y="118.881251462"/>
      <point x="711.85" y="133.973251462" type="curve"/>
      <point x="639.230090321" y="53.027162708"/>
      <point x="566.0" y="17.0"/>
      <point x="461.0" y="17.0" type="curve"/>
      <point x="288.0" y="17.0"/>
      <point x="156.55" y="101.9756414"/>
      <point x="156.55" y="265.045081871" type="curve"/>
      <point x="156.55" y="428.607998348"/>
      <point x="287.0" y="516.0"/>
      <point x="459.0" y="516.0" type="curve"/>
      <point x="558.0" y="516.0"/>
      <point x="642.189601842" y="490.523939612"/>
      <point x="711.85" y="431.885877193" type="curve"/>
    </contour>
    <contour>
      <point x="731.525" y="0.0"/>
      <point x="706.225" y="1.51814449683e-15"/>
      <point x="731.525" y="0.0" type="curve"/>
      <point x="731.525" y="266.664"/>
      <point x="731.525" y="533.336"/>
      <point x="731.525" y="800.0" type="curve"/>
      <point x="706.225" y="800.0"/>
      <point x="731.525" y="800.0"/>
      <point x="706.225" y="800.0" type="curve"/>
      <point x="706.225" y="533.336"/>
      <point x="706.225" y="266.664"/>
      <point x="706.225" y="1.51814449683e-15" type="curve"/>
    </contour>
  </outline>
</glyph>
<glyph name="e" format="1">
  <advance width="706"/>
  <unicode hex="0065"/>
  <outline>
    <contour>
      <point x="96.0" y="273.0"/>
      <point x="96.0" y="295.0"/>
      <point x="96.0" y="273.0" type="curve"/>
      <point x="272.0" y="273.0"/>
      <point x="448.0" y="273.0"/>
      <point x="624.0" y="273.0" type="curve"/>
      <point x="624.0" y="273.0"/>
      <point x="624.0" y="273.0"/>
      <point x="624.0" y="273.0" type="curve"/>
      <point x="624.0" y="276.0"/>
      <point x="624.0" y="273.0"/>
      <point x="624.0" y="276.0" type="curve"/>
      <point x="624.0" y="285.0"/>
      <point x="624.0" y="294.0"/>
      <point x="624.0" y="303.0" type="curve"/>
      <point x="624.0" y="461.369565217"/>
      <point x="521.0" y="538.0"/>
      <point x="361.0" y="538.0" type="curve"/>
      <point x="190.0" y="538.0"/>
      <point x="83.0" y="451.313492063"/>
      <point x="83.0" y="281.0" type="curve"/>
      <point x="83.0" y="91.6903914591"/>
      <point x="204.0" y="-5.0"/>
      <point x="394.0" y="-5.0" type="curve"/>
      <point x="486.0" y="-5.0"/>
      <point x="546.141121561" y="16.5932811814"/>
      <point x="622.0" y="74.0" type="curve"/>
      <point x="607.0" y="90.0"/>
      <point x="622.0" y="74.0"/>
      <point x="607.0" y="90.0" type="curve"/>
      <point x="536.165992081" y="37.6444289294"/>
      <point x="480.0" y="17.0"/>
      <point x="394.0" y="17.0" type="curve"/>
      <point x="219.0" y="17.0"/>
      <point x="107.0" y="106.698841699"/>
      <point x="107.0" y="281.0" type="curve"/>
      <point x="107.0" y="436.304347826"/>
      <point x="204.0" y="516.0"/>
      <point x="359.0" y="516.0" type="curve"/>
      <point x="505.0" y="516.0"/>
      <point x="601.0" y="448.398058252"/>
      <point x="601.0" y="305.0" type="curve"/>
      <point x="601.0" y="295.0"/>
      <point x="601.0" y="286.0"/>
      <point x="601.0" y="276.0" type="curve"/>
      <point x="605.0" y="279.0"/>
      <point x="609.0" y="282.0"/>
      <point x="613.0" y="285.0" type="curve"/>
      <point x="617.0" y="288.0"/>
      <point x="620.0" y="292.0"/>
      <point x="624.0" y="295.0" type="curve"/>
      <point x="448.0" y="295.0"/>
      <point x="272.0" y="295.0"/>
      <point x="96.0" y="295.0" type="curve"/>
    </contour>
    <contour>
      <point x="361.0" y="669.0" type="move" name="top"/>
    </contour>
    <contour>
      <point x="415.0" y="9.0" type="move" name="bottom"/>
    </contour>
  </outline>
</glyph>
<glyph name="f" format="1">
  <advance width="649"/>
  <unicode hex="0066"/>
  <outline>
    <contour>
      <point x="594.0" y="772.0"/>
      <point x="616.0" y="772.0"/>
      <point x="594.0" y="772.0" type="curve"/>
      <point x="594.0" y="652.0"/>
      <point x="594.0" y="772.0"/>
      <point x="594.0" y="652.0" type="curve"/>
      <point x="616.0" y="652.0"/>
      <point x="594.0" y="652.0"/>
      <point x="616.0" y="652.0" type="curve"/>
      <point x="616.0" y="772.0"/>
      <point x="616.0" y="652.0"/>
      <point x="616.0" y="772.0" type="curve"/>
    </contour>
    <contour>
      <point x="288.0" y="0.0"/>
      <point x="288.0" y="22.0"/>
      <point x="288.0" y="0.0" type="curve"/>
      <point x="354.0" y="0.0"/>
      <point x="421.0" y="0.0"/>
      <point x="487.0" y="0.0" type="curve"/>
      <point x="487.0" y="22.0"/>
      <point x="487.0" y="0.0"/>
      <point x="487.0" y="22.0" type="curve"/>
      <point x="288.0" y="22.0"/>
      <point x="487.0" y="22.0"/>
      <point x="288.0" y="22.0" type="curve"/>
    </contour>
    <contour>
      <point x="288.0" y="22.0"/>
      <point x="288.0" y="0.0"/>
      <point x="288.0" y="22.0" type="curve"/>
      <point x="89.0" y="22.0"/>
      <point x="288.0" y="22.0"/>
      <point x="89.0" y="22.0" type="curve"/>
      <point x="89.0" y="0.0"/>
      <point x="89.0" y="22.0"/>
      <point x="89.0" y="0.0" type="curve"/>
      <point x="155.0" y="0.0"/>
      <point x="222.0" y="0.0"/>
      <point x="288.0" y="0.0" type="curve"/>
    </contour>
    <contour>
      <point x="38.0" y="487.0"/>
      <point x="38.0" y="509.0"/>
      <point x="38.0" y="487.0" type="curve"/>
      <point x="38.0" y="487.0"/>
      <point x="607.0" y="487.0"/>
      <point x="607.0" y="487.0" type="curve"/>
      <point x="607.0" y="509.0"/>
      <point x="607.0" y="487.0"/>
      <point x="607.0" y="509.0" type="curve"/>
      <point x="607.0" y="509.0"/>
      <point x="38.0" y="509.0"/>
      <point x="38.0" y="509.0" type="curve"/>
    </contour>
    <contour>
      <point x="300.0" y="0.0"/>
      <point x="276.0" y="0.0"/>
      <point x="300.0" y="0.0" type="curve"/>
      <point x="300.0" y="0.0"/>
      <point x="300.0" y="640.0"/>
      <point x="300.0" y="640.0" type="curve"/>
      <point x="300.0" y="735.0"/>
      <point x="372.0" y="783.0"/>
      <point x="473.0" y="783.0" type="curve"/>
      <point x="519.0" y="783.0"/>
      <point x="564.0" y="770.0"/>
      <point x="606.0" y="755.0" type="curve"/>
      <point x="616.0" y="772.0"/>
      <point x="606.0" y="755.0"/>
      <point x="616.0" y="772.0" type="curve"/>
      <point x="569.919762774" y="789.408089619"/>
      <point x="521.0" y="805.0"/>
      <point x="473.0" y="805.0" type="curve"/>
      <point x="359.0" y="805.0"/>
      <point x="276.0" y="750.0"/>
      <point x="276.0" y="640.0" type="curve"/>
      <point x="276.0" y="640.0"/>
      <point x="276.0" y="0.0"/>
      <point x="276.0" y="0.0" type="curve"/>
    </contour>
  </outline>
</glyph>
<glyph name="g" format="1">
  <advance width="729"/>
  <unicode hex="0067"/>
  <outline>
    <contour>
      <point x="128" y="357" type="curve"/>
      <point x="128" y="290"/>
      <point x="164" y="246"/>
      <point x="218" y="219" type="curve"/>
      <point x="169" y="196"/>
      <point x="134" y="164"/>
      <point x="134" y="109" type="curve"/>
      <point x="134" y="59"/>
      <point x="160" y="30"/>
      <point x="201" y="14" type="curve"/>
      <point x="126" y="-13"/>
      <point x="69" y="-55"/>
      <point x="69" y="-135" type="curve"/>
      <point x="69" y="-272"/>
      <point x="211" y="-304"/>
      <point x="370" y="-304" type="curve"/>
      <point x="539" y="-304"/>
      <point x="698" y="-287"/>
      <point x="695" y="-142" type="curve"/>
      <point x="695" y="1"/>
      <point x="535" y="-2"/>
      <point x="373" y="8" type="curve"/>
      <point x="264" y="13"/>
      <point x="158" y="16"/>
      <point x="158" y="112" type="curve"/>
      <point x="158" y="161"/>
      <point x="193" y="189"/>
      <point x="239" y="210" type="curve"/>
      <point x="277" y="195"/>
      <point x="324" y="189"/>
      <point x="373" y="189" type="curve"/>
      <point x="509" y="189"/>
      <point x="621" y="240"/>
      <point x="621" y="362" type="curve"/>
      <point x="621" y="405"/>
      <point x="607" y="439"/>
      <point x="584" y="466" type="curve"/>
      <point x="639" y="487"/>
      <point x="694" y="509"/>
      <point x="749" y="530" type="curve"/>
      <point x="737" y="550" type="line"/>
      <point x="681" y="528"/>
      <point x="624" y="505"/>
      <point x="567" y="482" type="curve"/>
      <point x="523" y="520"/>
      <point x="455" y="538"/>
      <point x="378" y="538" type="curve"/>
      <point x="240" y="538"/>
      <point x="128" y="481"/>
    </contour>
    <contour>
      <point x="371" y="-283" type="curve"/>
      <point x="226" y="-283"/>
      <point x="93" y="-251"/>
      <point x="93" y="-134" type="curve"/>
      <point x="93" y="-58"/>
      <point x="153" y="-20"/>
      <point x="227" y="5" type="curve"/>
      <point x="268" y="-6"/>
      <point x="318" y="-10"/>
      <point x="369" y="-13" type="curve"/>
      <point x="520" y="-23"/>
      <point x="673" y="-16"/>
      <point x="673" y="-144" type="curve"/>
      <point x="673" y="-266"/>
      <point x="526" y="-283"/>
    </contour>
    <contour>
      <point x="153" y="358" type="curve"/>
      <point x="153" y="466"/>
      <point x="255" y="517"/>
      <point x="378" y="517" type="curve"/>
      <point x="499" y="517"/>
      <point x="597" y="469"/>
      <point x="597" y="361" type="curve"/>
      <point x="597" y="257"/>
      <point x="497" y="210"/>
      <point x="375" y="210" type="curve"/>
      <point x="256" y="210"/>
      <point x="153" y="252"/>
    </contour>
    <contour>
      <point x="380" y="668" type="move" name="top"/>
    </contour>
  </outline>
</glyph>
<glyph name="h" format="1">
  <advance width="935"/>
  <unicode hex="0068"/>
  <outline>
    <contour>
      <point x="725.0" y="0.0"/>
      <point x="725.0" y="22.0"/>
      <point x="725.0" y="0.0" type="curve"/>
      <point x="791.0" y="0.0"/>
      <point x="858.0" y="0.0"/>
      <point x="924.0" y="0.0" type="curve"/>
      <point x="924.0" y="22.0"/>
      <point x="924.0" y="0.0"/>
      <point x="924.0" y="22.0" type="curve"/>
      <point x="725.0" y="22.0"/>
      <point x="924.0" y="22.0"/>
      <point x="725.0" y="22.0" type="curve"/>
    </contour>
    <contour>
      <point x="224.0" y="0.0"/>
      <point x="224.0" y="22.0"/>
      <point x="224.0" y="0.0" type="curve"/>
      <point x="286.0" y="0.0"/>
      <point x="224.0" y="0.0"/>
      <point x="410.0" y="0.0" type="curve"/>
      <point x="410.0" y="22.0"/>
      <point x="410.0" y="0.0"/>
      <point x="410.0" y="22.0" type="curve"/>
      <point x="224.0" y="22.0"/>
      <point x="410.0" y="22.0"/>
      <point x="224.0" y="22.0" type="curve"/>
    </contour>
    <contour>
      <point x="224.0" y="800.0"/>
      <point x="224.0" y="778.0"/>
      <point x="224.0" y="800.0" type="curve"/>
      <point x="158.0" y="800.0"/>
      <point x="91.0" y="800.0"/>
      <point x="25.0" y="800.0" type="curve"/>
      <point x="25.0" y="778.0"/>
      <point x="25.0" y="800.0"/>
      <point x="25.0" y="778.0" type="curve"/>
      <point x="224.0" y="778.0"/>
      <point x="25.0" y="778.0"/>
      <point x="224.0" y="778.0" type="curve"/>
    </contour>
    <contour>
      <point x="224.0" y="22.0"/>
      <point x="224.0" y="0.0"/>
      <point x="224.0" y="22.0" type="curve"/>
      <point x="25.0" y="22.0"/>
      <point x="224.0" y="22.0"/>
      <point x="25.0" y="22.0" type="curve"/>
      <point x="25.0" y="0.0"/>
      <point x="25.0" y="22.0"/>
      <point x="25.0" y="0.0" type="curve"/>
      <point x="91.0" y="0.0"/>
      <point x="158.0" y="0.0"/>
      <point x="224.0" y="0.0" type="curve"/>
    </contour>
    <contour>
      <point x="725.0" y="22.0"/>
      <point x="725.0" y="0.0"/>
      <point x="725.0" y="22.0" type="curve"/>
      <point x="539.0" y="22.0"/>
      <point x="725.0" y="22.0"/>
      <point x="539.0" y="22.0" type="curve"/>
      <point x="539.0" y="0.0"/>
      <point x="539.0" y="22.0"/>
      <point x="539.0" y="0.0" type="curve"/>
      <point x="601.0" y="0.0"/>
      <point x="663.0" y="0.0"/>
      <point x="725.0" y="0.0" type="curve"/>
    </contour>
    <contour>
      <point x="231.0" y="354.0"/>
      <point x="219.0" y="365.0"/>
      <point x="231.0" y="354.0" type="curve"/>
      <point x="282.282833755" y="457.591324185"/>
      <point x="393.0" y="516.0"/>
      <point x="508.0" y="516.0" type="curve"/>
      <point x="634.0" y="516.0"/>
      <point x="714.0" y="461.441176471"/>
      <point x="714.0" y="341.0" type="curve"/>
      <point x="714.0" y="228.0"/>
      <point x="714.0" y="114.0"/>
      <point x="714.0" y="0.0" type="curve"/>
      <point x="738.0" y="0.0"/>
      <point x="714.0" y="0.0"/>
      <point x="738.0" y="0.0" type="curve"/>
      <point x="738.0" y="115.0"/>
      <point x="738.0" y="229.0"/>
      <point x="738.0" y="344.0" type="curve"/>
      <point x="738.0" y="477.439153439"/>
      <point x="650.0" y="538.0"/>
      <point x="511.0" y="538.0" type="curve"/>
      <point x="386.0" y="538.0"/>
      <point x="265.158260091" y="480.908519785"/>
      <point x="219.0" y="365.0" type="curve"/>
    </contour>
    <contour>
      <point x="236.0" y="0.0"/>
      <point x="212.0" y="0.0"/>
      <point x="236.0" y="0.0" type="curve"/>
      <point x="236.0" y="267.0"/>
      <point x="236.0" y="533.0"/>
      <point x="236.0" y="800.0" type="curve"/>
      <point x="212.0" y="800.0"/>
      <point x="236.0" y="800.0"/>
      <point x="212.0" y="800.0" type="curve"/>
      <point x="212.0" y="533.0"/>
      <point x="212.0" y="267.0"/>
      <point x="212.0" y="0.0" type="curve"/>
    </contour>
  </outline>
</glyph>
<glyph name="i" format="1">
  <advance width="409"/>
  <unicode hex="0069"/>
  <outline>
    <contour>
      <point x="215.0" y="22.0"/>
      <point x="215.0" y="0.0"/>
      <point x="215.0" y="22.0" type="curve"/>
      <point x="16.0" y="22.0"/>
      <point x="215.0" y="22.0"/>
      <point x="16.0" y="22.0" type="curve"/>
      <point x="16.0" y="0.0"/>
      <point x="16.0" y="22.0"/>
      <point x="16.0" y="0.0" type="curve"/>
      <point x="83.0" y="0.0"/>
      <point x="149.0" y="0.0"/>
      <point x="215.0" y="0.0" type="curve"/>
    </contour>
    <contour>
      <point x="215.0" y="0.0"/>
      <point x="215.0" y="22.0"/>
      <point x="215.0" y="0.0" type="curve"/>
      <point x="277.0" y="0.0"/>
      <point x="339.0" y="0.0"/>
      <point x="401.0" y="0.0" type="curve"/>
      <point x="401.0" y="22.0"/>
      <point x="401.0" y="0.0"/>
      <point x="401.0" y="22.0" type="curve"/>
      <point x="215.0" y="22.0"/>
      <point x="401.0" y="22.0"/>
      <point x="215.0" y="22.0" type="curve"/>
    </contour>
    <contour>
      <point x="215.0" y="533.0"/>
      <point x="215.0" y="511.0"/>
      <point x="215.0" y="533.0" type="curve"/>
      <point x="149.0" y="533.0"/>
      <point x="83.0" y="533.0"/>
      <point x="16.0" y="533.0" type="curve"/>
      <point x="16.0" y="511.0"/>
      <point x="16.0" y="533.0"/>
      <point x="16.0" y="511.0" type="curve"/>
      <point x="215.0" y="511.0"/>
      <point x="16.0" y="511.0"/>
      <point x="215.0" y="511.0" type="curve"/>
    </contour>
    <contour>
      <point x="229.0" y="670.0"/>
      <point x="200.0" y="670.0"/>
      <point x="229.0" y="670.0" type="curve"/>
      <point x="229.0" y="679.0"/>
      <point x="222.4375" y="684.0"/>
      <point x="214.0" y="684.0" type="curve"/>
      <point x="205.384615385" y="684.0"/>
      <point x="200.0" y="678.0"/>
      <point x="200.0" y="670.0" type="curve"/>
      <point x="229.0" y="670.0"/>
      <point x="200.0" y="670.0"/>
      <point x="229.0" y="670.0" type="curve"/>
      <point x="229.0" y="661.0"/>
      <point x="222.4375" y="657.0"/>
      <point x="214.0" y="657.0" type="curve"/>
      <point x="205.384615385" y="657.0"/>
      <point x="200.0" y="662.0"/>
      <point x="200.0" y="670.0" type="curve"/>
    </contour>
    <contour>
      <point x="229.0" y="0.0"/>
      <point x="203.0" y="0.0"/>
      <point x="229.0" y="0.0" type="curve"/>
      <point x="229.0" y="178.0"/>
      <point x="229.0" y="355.0"/>
      <point x="229.0" y="533.0" type="curve"/>
      <point x="203.0" y="533.0"/>
      <point x="229.0" y="533.0"/>
      <point x="203.0" y="533.0" type="curve"/>
      <point x="203.0" y="355.0"/>
      <point x="203.0" y="178.0"/>
      <point x="203.0" y="0.0" type="curve"/>
    </contour>
    <contour>
      <point x="215.0" y="669.0" type="move" name="top"/>
    </contour>
    <contour>
      <point x="221.0" y="14.0" type="move" name="bottom"/>
    </contour>
  </outline>
</glyph>
<glyph name="j" format="1">
  <advance width="363"/>
  <unicode hex="006A"/>
  <outline>
    <contour>
      <point x="290.25" y="533.0"/>
      <point x="290.25" y="511.44"/>
      <point x="290.25" y="533.0" type="curve"/>
      <point x="223.9006635" y="533.0"/>
      <point x="157.5493365" y="533.0"/>
      <point x="91.2" y="533.0" type="curve"/>
      <point x="91.2" y="511.44"/>
      <point x="91.2" y="533.0"/>
      <point x="91.2" y="511.44" type="curve"/>
      <point x="290.25" y="511.44"/>
      <point x="91.2" y="511.44"/>
      <point x="290.25" y="511.44" type="curve"/>
    </contour>
    <contour>
      <point x="307.87" y="670.0"/>
      <point x="279.38" y="670.0"/>
      <point x="307.87" y="670.0" type="curve"/>
      <point x="307.87" y="679.366827218"/>
      <point x="301.177952527" y="684.4601"/>
      <point x="291.6" y="684.4601" type="curve"/>
      <point x="283.502800335" y="684.4601"/>
      <point x="279.38" y="678.247896763"/>
      <point x="279.38" y="670.0" type="curve"/>
      <point x="307.87" y="670.0"/>
      <point x="279.38" y="670.0"/>
      <point x="307.87" y="670.0" type="curve"/>
      <point x="307.87" y="660.702205176"/>
      <point x="301.152346966" y="656.5399"/>
      <point x="291.6" y="656.5399" type="curve"/>
      <point x="283.574986531" y="656.5399"/>
      <point x="279.38" y="661.867809163"/>
      <point x="279.38" y="670.0" type="curve"/>
    </contour>
    <contour>
      <point x="55.0" y="-301.0"/>
      <point x="58.0" y="-279.0"/>
      <point x="54.0" y="-301.0" type="curve"/>
      <point x="65.0" y="-301.0"/>
      <point x="79.0" y="-304.0"/>
      <point x="94.0" y="-304.0" type="curve"/>
      <point x="209.0" y="-304.0"/>
      <point x="304.0" y="-253.0"/>
      <point x="304.0" y="-142.0" type="curve"/>
      <point x="304.0" y="83.0"/>
      <point x="303.7" y="308.020473224"/>
      <point x="303.7" y="533.015495399" type="curve"/>
      <point x="279.5" y="533.015495399"/>
      <point x="303.7" y="533.015495399"/>
      <point x="279.5" y="533.015495399" type="curve"/>
      <point x="279.5" y="308.020473224"/>
      <point x="280.0" y="83.0"/>
      <point x="280.0" y="-142.0" type="curve"/>
      <point x="280.0" y="-238.0"/>
      <point x="196.0" y="-282.0"/>
      <point x="94.0" y="-282.0" type="curve"/>
      <point x="82.0" y="-282.0"/>
      <point x="66.0" y="-280.0"/>
      <point x="58.0" y="-279.0" type="curve"/>
    </contour>
  </outline>
</glyph>
<glyph name="k" format="1">
  <advance width="964"/>
  <unicode hex="006B"/>
  <outline>
    <contour>
      <point x="218.0" y="22.0"/>
      <point x="218.0" y="0.0"/>
      <point x="218.0" y="22.0" type="curve"/>
      <point x="19.0" y="22.0"/>
      <point x="218.0" y="22.0"/>
      <point x="19.0" y="22.0" type="curve"/>
      <point x="19.0" y="0.0"/>
      <point x="19.0" y="22.0"/>
      <point x="19.0" y="0.0" type="curve"/>
      <point x="85.0" y="0.0"/>
      <point x="151.0" y="0.0"/>
      <point x="218.0" y="0.0" type="curve"/>
    </contour>
    <contour>
      <point x="725.0" y="0.0"/>
      <point x="725.0" y="22.0"/>
      <point x="725.0" y="0.0" type="curve"/>
      <point x="791.0" y="0.0"/>
      <point x="858.0" y="0.0"/>
      <point x="924.0" y="0.0" type="curve"/>
      <point x="924.0" y="22.0"/>
      <point x="924.0" y="0.0"/>
      <point x="924.0" y="22.0" type="curve"/>
      <point x="725.0" y="22.0"/>
      <point x="924.0" y="22.0"/>
      <point x="725.0" y="22.0" type="curve"/>
    </contour>
    <contour>
      <point x="690.0" y="511.0"/>
      <point x="690.0" y="533.0"/>
      <point x="690.0" y="511.0" type="curve"/>
      <point x="871.0" y="511.0"/>
      <point x="690.0" y="511.0"/>
      <point x="871.0" y="511.0" type="curve"/>
      <point x="871.0" y="533.0"/>
      <point x="871.0" y="511.0"/>
      <point x="871.0" y="533.0" type="curve"/>
      <point x="811.0" y="533.0"/>
      <point x="750.0" y="533.0"/>
      <point x="690.0" y="533.0" type="curve"/>
    </contour>
    <contour>
      <point x="218.0" y="0.0"/>
      <point x="218.0" y="22.0"/>
      <point x="218.0" y="0.0" type="curve"/>
      <point x="279.0" y="0.0"/>
      <point x="218.0" y="0.0"/>
      <point x="401.0" y="0.0" type="curve"/>
      <point x="401.0" y="22.0"/>
      <point x="401.0" y="0.0"/>
      <point x="401.0" y="22.0" type="curve"/>
      <point x="218.0" y="22.0"/>
      <point x="401.0" y="22.0"/>
      <point x="218.0" y="22.0" type="curve"/>
    </contour>
    <contour>
      <point x="690.0" y="533.0"/>
      <point x="690.0" y="511.0"/>
      <point x="690.0" y="533.0" type="curve"/>
      <point x="628.0" y="533.0"/>
      <point x="566.0" y="533.0"/>
      <point x="504.0" y="533.0" type="curve"/>
      <point x="504.0" y="511.0"/>
      <point x="504.0" y="533.0"/>
      <point x="504.0" y="511.0" type="curve"/>
      <point x="690.0" y="511.0"/>
      <point x="504.0" y="511.0"/>
      <point x="690.0" y="511.0" type="curve"/>
    </contour>
    <contour>
      <point x="221.0" y="800.0"/>
      <point x="221.0" y="778.0"/>
      <point x="221.0" y="800.0" type="curve"/>
      <point x="154.0" y="800.0"/>
      <point x="88.0" y="800.0"/>
      <point x="21.0" y="800.0" type="curve"/>
      <point x="21.0" y="778.0"/>
      <point x="21.0" y="800.0"/>
      <point x="21.0" y="778.0" type="curve"/>
      <point x="221.0" y="778.0"/>
      <point x="21.0" y="778.0"/>
      <point x="221.0" y="778.0" type="curve"/>
    </contour>
    <contour>
      <point x="231.0" y="0.0"/>
      <point x="207.0" y="0.0"/>
      <point x="231.0" y="0.0" type="curve"/>
      <point x="231.0" y="0.0"/>
      <point x="231.0" y="800.0"/>
      <point x="231.0" y="800.0" type="curve"/>
      <point x="207.0" y="800.0"/>
      <point x="231.0" y="800.0"/>
      <point x="207.0" y="800.0" type="curve"/>
      <point x="207.0" y="533.0"/>
      <point x="207.0" y="267.0"/>
      <point x="207.0" y="0.0" type="curve"/>
    </contour>
    <contour>
      <point x="694.0" y="533.0"/>
      <point x="736.0" y="533.0"/>
      <point x="694.0" y="533.0" type="curve"/>
      <point x="536.0" y="447.0"/>
      <point x="378.0" y="361.0"/>
      <point x="220.0" y="275.0" type="curve"/>
      <point x="263.0" y="275.0"/>
      <point x="220.0" y="275.0"/>
      <point x="263.0" y="275.0" type="curve"/>
      <point x="420.0" y="361.0"/>
      <point x="578.0" y="447.0"/>
      <point x="736.0" y="533.0" type="curve"/>
    </contour>
    <contour>
      <point x="772.0" y="0.0"/>
      <point x="725.0" y="0.0"/>
      <point x="772.0" y="0.0" type="curve"/>
      <point x="602.0" y="92.0"/>
      <point x="432.0" y="183.0"/>
      <point x="263.0" y="275.0" type="curve"/>
      <point x="220.0" y="275.0"/>
      <point x="263.0" y="275.0"/>
      <point x="220.0" y="275.0" type="curve"/>
      <point x="389.0" y="182.0"/>
      <point x="556.0" y="91.0"/>
      <point x="725.0" y="0.0" type="curve"/>
    </contour>
    <contour>
      <point x="502" y="14" type="move" name="bottom"/>
    </contour>
  </outline>
</glyph>
<glyph name="l" format="1">
  <advance width="436"/>
  <unicode hex="006C"/>
  <outline>
    <contour>
      <point x="223.0" y="22.0"/>
      <point x="223.0" y="0.0"/>
      <point x="223.0" y="22.0" type="curve"/>
      <point x="24.0" y="22.0"/>
      <point x="223.0" y="22.0"/>
      <point x="24.0" y="22.0" type="curve"/>
      <point x="24.0" y="0.0"/>
      <point x="24.0" y="22.0"/>
      <point x="24.0" y="0.0" type="curve"/>
      <point x="91.0" y="0.0"/>
      <point x="157.0" y="0.0"/>
      <point x="223.0" y="0.0" type="curve"/>
    </contour>
    <contour>
      <point x="226.0" y="800.0"/>
      <point x="226.0" y="778.0"/>
      <point x="226.0" y="800.0" type="curve"/>
      <point x="160.0" y="800.0"/>
      <point x="93.0" y="800.0"/>
      <point x="27.0" y="800.0" type="curve"/>
      <point x="27.0" y="778.0"/>
      <point x="27.0" y="800.0"/>
      <point x="27.0" y="778.0" type="curve"/>
      <point x="226.0" y="778.0"/>
      <point x="27.0" y="778.0"/>
      <point x="226.0" y="778.0" type="curve"/>
    </contour>
    <contour>
      <point x="223.0" y="0.0"/>
      <point x="223.0" y="22.0"/>
      <point x="223.0" y="0.0" type="curve"/>
      <point x="290.0" y="0.0"/>
      <point x="356.0" y="0.0"/>
      <point x="423.0" y="0.0" type="curve"/>
      <point x="423.0" y="22.0"/>
      <point x="423.0" y="0.0"/>
      <point x="423.0" y="22.0" type="curve"/>
      <point x="223.0" y="22.0"/>
      <point x="423.0" y="22.0"/>
      <point x="223.0" y="22.0" type="curve"/>
    </contour>
    <contour>
      <point x="234.0" y="0.0"/>
      <point x="210.0" y="0.0"/>
      <point x="234.0" y="0.0" type="curve"/>
      <point x="234.0" y="267.0"/>
      <point x="234.0" y="533.0"/>
      <point x="234.0" y="800.0" type="curve"/>
      <point x="210.0" y="800.0"/>
      <point x="234.0" y="800.0"/>
      <point x="210.0" y="800.0" type="curve"/>
      <point x="210.0" y="533.0"/>
      <point x="210.0" y="267.0"/>
      <point x="210.0" y="0.0" type="curve"/>
    </contour>
    <contour>
      <point x="223.0" y="916.0" type="move" name="top"/>
    </contour>
    <contour>
      <point x="225.0" y="14.0" type="move" name="bottom"/>
    </contour>
  </outline>
</glyph>
<glyph name="m" format="1">
  <advance width="1339"/>
  <unicode hex="006D"/>
  <outline>
    <contour>
      <point x="666.0" y="0.0"/>
      <point x="666.0" y="22.0"/>
      <point x="666.0" y="0.0" type="curve"/>
      <point x="838.0" y="0.0"/>
      <point x="666.0" y="0.0"/>
      <point x="838.0" y="0.0" type="curve"/>
      <point x="838.0" y="22.0"/>
      <point x="838.0" y="0.0"/>
      <point x="838.0" y="22.0" type="curve"/>
      <point x="666.0" y="22.0"/>
      <point x="838.0" y="22.0"/>
      <point x="666.0" y="22.0" type="curve"/>
    </contour>
    <contour>
      <point x="666.0" y="22.0"/>
      <point x="666.0" y="0.0"/>
      <point x="666.0" y="22.0" type="curve"/>
      <point x="494.0" y="22.0"/>
      <point x="666.0" y="22.0"/>
      <point x="494.0" y="22.0" type="curve"/>
      <point x="494.0" y="0.0"/>
      <point x="494.0" y="22.0"/>
      <point x="494.0" y="0.0" type="curve"/>
      <point x="666.0" y="0.0"/>
      <point x="494.0" y="0.0"/>
      <point x="666.0" y="0.0" type="curve"/>
    </contour>
    <contour>
      <point x="1116.0" y="0.0"/>
      <point x="1116.0" y="22.0"/>
      <point x="1116.0" y="0.0" type="curve"/>
      <point x="1182.0" y="0.0"/>
      <point x="1249.0" y="0.0"/>
      <point x="1315.0" y="0.0" type="curve"/>
      <point x="1315.0" y="22.0"/>
      <point x="1315.0" y="0.0"/>
      <point x="1315.0" y="22.0" type="curve"/>
      <point x="1116.0" y="22.0"/>
      <point x="1315.0" y="22.0"/>
      <point x="1116.0" y="22.0" type="curve"/>
    </contour>
    <contour>
      <point x="218.0" y="22.0"/>
      <point x="218.0" y="0.0"/>
      <point x="218.0" y="22.0" type="curve"/>
      <point x="19.0" y="22.0"/>
      <point x="218.0" y="22.0"/>
      <point x="19.0" y="22.0" type="curve"/>
      <point x="19.0" y="0.0"/>
      <point x="19.0" y="22.0"/>
      <point x="19.0" y="0.0" type="curve"/>
      <point x="85.0" y="0.0"/>
      <point x="152.0" y="0.0"/>
      <point x="218.0" y="0.0" type="curve"/>
    </contour>
    <contour>
      <point x="218.0" y="0.0"/>
      <point x="218.0" y="22.0"/>
      <point x="218.0" y="0.0" type="curve"/>
      <point x="275.0" y="0.0"/>
      <point x="218.0" y="0.0"/>
      <point x="390.0" y="0.0" type="curve"/>
      <point x="390.0" y="22.0"/>
      <point x="390.0" y="0.0"/>
      <point x="390.0" y="22.0" type="curve"/>
      <point x="218.0" y="22.0"/>
      <point x="390.0" y="22.0"/>
      <point x="218.0" y="22.0" type="curve"/>
    </contour>
    <contour>
      <point x="218.0" y="533.0"/>
      <point x="218.0" y="511.0"/>
      <point x="218.0" y="533.0" type="curve"/>
      <point x="152.0" y="533.0"/>
      <point x="85.0" y="533.0"/>
      <point x="19.0" y="533.0" type="curve"/>
      <point x="19.0" y="511.0"/>
      <point x="19.0" y="533.0"/>
      <point x="19.0" y="511.0" type="curve"/>
      <point x="218.0" y="511.0"/>
      <point x="19.0" y="511.0"/>
      <point x="218.0" y="511.0" type="curve"/>
    </contour>
    <contour>
      <point x="1116.0" y="22.0"/>
      <point x="1116.0" y="0.0"/>
      <point x="1116.0" y="22.0" type="curve"/>
      <point x="944.0" y="22.0"/>
      <point x="1116.0" y="22.0"/>
      <point x="944.0" y="22.0" type="curve"/>
      <point x="944.0" y="0.0"/>
      <point x="944.0" y="22.0"/>
      <point x="944.0" y="0.0" type="curve"/>
      <point x="1001.0" y="0.0"/>
      <point x="1059.0" y="0.0"/>
      <point x="1116.0" y="0.0" type="curve"/>
    </contour>
    <contour>
      <point x="673.0" y="354.0"/>
      <point x="661.0" y="365.0"/>
      <point x="673.0" y="354.0" type="curve"/>
      <point x="723.26692886" y="457.611424792"/>
      <point x="809.0" y="516.0"/>
      <point x="921.0" y="516.0" type="curve"/>
      <point x="1043.0" y="516.0"/>
      <point x="1102.0" y="463.5"/>
      <point x="1102.0" y="341.0" type="curve"/>
      <point x="1102.0" y="228.0"/>
      <point x="1102.0" y="114.0"/>
      <point x="1102.0" y="0.0" type="curve"/>
      <point x="1127.0" y="0.0"/>
      <point x="1102.0" y="0.0"/>
      <point x="1127.0" y="0.0" type="curve"/>
      <point x="1127.0" y="115.0"/>
      <point x="1127.0" y="229.0"/>
      <point x="1127.0" y="344.0" type="curve"/>
      <point x="1127.0" y="478.465608466"/>
      <point x="1061.0" y="538.0"/>
      <point x="926.0" y="538.0" type="curve"/>
      <point x="804.0" y="538.0"/>
      <point x="706.136638608" y="479.893261913"/>
      <point x="661.0" y="365.0" type="curve"/>
    </contour>
    <contour>
      <point x="225.0" y="354.0"/>
      <point x="213.0" y="365.0"/>
      <point x="225.0" y="354.0" type="curve"/>
      <point x="276.287717495" y="458.626943689"/>
      <point x="360.0" y="516.0"/>
      <point x="472.0" y="516.0" type="curve"/>
      <point x="593.0" y="516.0"/>
      <point x="654.0" y="463.5"/>
      <point x="654.0" y="341.0" type="curve"/>
      <point x="654.0" y="228.0"/>
      <point x="654.0" y="114.0"/>
      <point x="654.0" y="0.0" type="curve"/>
      <point x="678.0" y="0.0"/>
      <point x="654.0" y="0.0"/>
      <point x="678.0" y="0.0" type="curve"/>
      <point x="678.0" y="115.0"/>
      <point x="678.0" y="229.0"/>
      <point x="678.0" y="344.0" type="curve"/>
      <point x="678.0" y="478.465608466"/>
      <point x="613.0" y="538.0"/>
      <point x="478.0" y="538.0" type="curve"/>
      <point x="355.0" y="538.0"/>
      <point x="259.158260091" y="480.908519785"/>
      <point x="213.0" y="365.0" type="curve"/>
    </contour>
    <contour>
      <point x="230.0" y="0.0"/>
      <point x="206.0" y="0.0"/>
      <point x="230.0" y="0.0" type="curve"/>
      <point x="230.0" y="178.0"/>
      <point x="230.0" y="355.0"/>
      <point x="230.0" y="533.0" type="curve"/>
      <point x="206.0" y="533.0"/>
      <point x="230.0" y="533.0"/>
      <point x="206.0" y="533.0" type="curve"/>
      <point x="206.0" y="355.0"/>
      <point x="206.0" y="178.0"/>
      <point x="206.0" y="0.0" type="curve"/>
    </contour>
  </outline>
</glyph>
<glyph name="n" format="1">
  <advance width="938"/>
  <unicode hex="006E"/>
  <outline>
    <contour>
      <point x="225.0" y="354.0"/>
      <point x="213.0" y="365.0"/>
      <point x="225.0" y="354.0" type="curve"/>
      <point x="276.282833755" y="457.591324185"/>
      <point x="385.0" y="516.0"/>
      <point x="500.0" y="516.0" type="curve"/>
      <point x="626.0" y="516.0"/>
      <point x="708.0" y="461.441176471"/>
      <point x="708.0" y="341.0" type="curve"/>
      <point x="708.0" y="228.0"/>
      <point x="708.0" y="114.0"/>
      <point x="708.0" y="0.0" type="curve"/>
      <point x="733.0" y="0.0"/>
      <point x="708.0" y="0.0"/>
      <point x="733.0" y="0.0" type="curve"/>
      <point x="733.0" y="115.0"/>
      <point x="733.0" y="229.0"/>
      <point x="733.0" y="344.0" type="curve"/>
      <point x="733.0" y="477.439153439"/>
      <point x="644.0" y="538.0"/>
      <point x="505.0" y="538.0" type="curve"/>
      <point x="380.0" y="538.0"/>
      <point x="259.158260091" y="480.908519785"/>
      <point x="213.0" y="365.0" type="curve"/>
    </contour>
    <contour>
      <point x="719.0" y="0.0"/>
      <point x="719.0" y="22.0"/>
      <point x="719.0" y="0.0" type="curve"/>
      <point x="785.0" y="0.0"/>
      <point x="852.0" y="0.0"/>
      <point x="918.0" y="0.0" type="curve"/>
      <point x="918.0" y="22.0"/>
      <point x="918.0" y="0.0"/>
      <point x="918.0" y="22.0" type="curve"/>
      <point x="719.0" y="22.0"/>
      <point x="918.0" y="22.0"/>
      <point x="719.0" y="22.0" type="curve"/>
    </contour>
    <contour>
      <point x="218.0" y="22.0"/>
      <point x="218.0" y="0.0"/>
      <point x="218.0" y="22.0" type="curve"/>
      <point x="19.0" y="22.0"/>
      <point x="218.0" y="22.0"/>
      <point x="19.0" y="22.0" type="curve"/>
      <point x="19.0" y="0.0"/>
      <point x="19.0" y="22.0"/>
      <point x="19.0" y="0.0" type="curve"/>
      <point x="86.0" y="0.0"/>
      <point x="152.0" y="0.0"/>
      <point x="218.0" y="0.0" type="curve"/>
    </contour>
    <contour>
      <point x="218.0" y="0.0"/>
      <point x="218.0" y="22.0"/>
      <point x="218.0" y="0.0" type="curve"/>
      <point x="280.0" y="0.0"/>
      <point x="218.0" y="0.0"/>
      <point x="404.0" y="0.0" type="curve"/>
      <point x="404.0" y="22.0"/>
      <point x="404.0" y="0.0"/>
      <point x="404.0" y="22.0" type="curve"/>
      <point x="218.0" y="22.0"/>
      <point x="404.0" y="22.0"/>
      <point x="218.0" y="22.0" type="curve"/>
    </contour>
    <contour>
      <point x="230.0" y="0.0"/>
      <point x="206.0" y="0.0"/>
      <point x="230.0" y="0.0" type="curve"/>
      <point x="230.0" y="178.0"/>
      <point x="230.0" y="355.0"/>
      <point x="230.0" y="533.0" type="curve"/>
      <point x="206.0" y="533.0"/>
      <point x="230.0" y="533.0"/>
      <point x="206.0" y="533.0" type="curve"/>
      <point x="206.0" y="355.0"/>
      <point x="206.0" y="178.0"/>
      <point x="206.0" y="0.0" type="curve"/>
    </contour>
    <contour>
      <point x="218.0" y="533.0"/>
      <point x="218.0" y="511.0"/>
      <point x="218.0" y="533.0" type="curve"/>
      <point x="152.0" y="533.0"/>
      <point x="86.0" y="533.0"/>
      <point x="19.0" y="533.0" type="curve"/>
      <point x="19.0" y="511.0"/>
      <point x="19.0" y="533.0"/>
      <point x="19.0" y="511.0" type="curve"/>
      <point x="218.0" y="511.0"/>
      <point x="19.0" y="511.0"/>
      <point x="218.0" y="511.0" type="curve"/>
    </contour>
    <contour>
      <point x="719.0" y="22.0"/>
      <point x="719.0" y="0.0"/>
      <point x="719.0" y="22.0" type="curve"/>
      <point x="534.0" y="22.0"/>
      <point x="719.0" y="22.0"/>
      <point x="534.0" y="22.0" type="curve"/>
      <point x="534.0" y="0.0"/>
      <point x="534.0" y="22.0"/>
      <point x="534.0" y="0.0" type="curve"/>
      <point x="595.0" y="0.0"/>
      <point x="657.0" y="0.0"/>
      <point x="719.0" y="0.0" type="curve"/>
    </contour>
    <contour>
      <point x="473.0" y="669.0" type="move" name="top"/>
    </contour>
    <contour>
      <point x="502.0" y="14.0" type="move" name="bottom"/>
    </contour>
  </outline>
</glyph>
<glyph name="o" format="1">
  <advance width="680"/>
  <unicode hex="006F"/>
  <outline>
    <contour>
      <point x="60.0" y="268.0" type="curve"/>
      <point x="60.0" y="430.0"/>
      <point x="170.0" y="517.0"/>
      <point x="334.0" y="517.0" type="curve"/>
      <point x="504.0" y="517.0"/>
      <point x="617.0" y="429.0"/>
      <point x="617.0" y="266.0" type="curve"/>
      <point x="617.0" y="104.0"/>
      <point x="506.0" y="17.0"/>
      <point x="339.0" y="17.0" type="curve"/>
      <point x="170.0" y="17.0"/>
      <point x="60.0" y="106.436781609"/>
      <point x="60.0" y="268.0" type="curve"/>
      <point x="36.0" y="268.0"/>
      <point x="60.0" y="268.0"/>
      <point x="36.0" y="268.0" type="curve"/>
      <point x="36.0" y="92.0"/>
      <point x="156.0" y="-5.0"/>
      <point x="338.0" y="-5.0" type="curve"/>
      <point x="521.0" y="-5.0"/>
      <point x="642.0" y="90.0"/>
      <point x="642.0" y="266.0" type="curve"/>
      <point x="642.0" y="442.0"/>
      <point x="519.0" y="538.0"/>
      <point x="335.0" y="538.0" type="curve"/>
      <point x="155.0" y="538.0"/>
      <point x="36.0" y="441.0"/>
      <point x="36.0" y="268.0" type="curve"/>
      <point x="60.0" y="268.0"/>
      <point x="36.0" y="268.0"/>
    </contour>
    <contour>
      <point x="334.0" y="668.0" type="move" name="top"/>
    </contour>
  </outline>
</glyph>
<glyph name="p" format="1">
  <advance width="828"/>
  <unicode hex="0070"/>
  <outline>
    <contour>
      <point x="227.0" y="-278.0"/>
      <point x="227.0" y="-299.0"/>
      <point x="227.0" y="-278.0" type="curve"/>
      <point x="28.0" y="-278.0"/>
      <point x="227.0" y="-278.0"/>
      <point x="28.0" y="-278.0" type="curve"/>
      <point x="28.0" y="-299.0"/>
      <point x="28.0" y="-278.0"/>
      <point x="28.0" y="-299.0" type="curve"/>
      <point x="95.0" y="-299.0"/>
      <point x="161.0" y="-299.0"/>
      <point x="227.0" y="-299.0" type="curve"/>
    </contour>
    <contour>
      <point x="227.0" y="-300.0"/>
      <point x="227.0" y="-279.0"/>
      <point x="227.0" y="-300.0" type="curve"/>
      <point x="289.0" y="-300.0"/>
      <point x="351.0" y="-300.0"/>
      <point x="413.0" y="-300.0" type="curve"/>
      <point x="413.0" y="-278.0"/>
      <point x="413.0" y="-300.0"/>
      <point x="413.0" y="-278.0" type="curve"/>
      <point x="227.0" y="-279.0"/>
      <point x="413.0" y="-278.0"/>
      <point x="227.0" y="-279.0" type="curve"/>
    </contour>
    <contour>
      <point x="229.0" y="533.0"/>
      <point x="229.0" y="512.0"/>
      <point x="229.0" y="533.0" type="curve"/>
      <point x="162.0" y="533.0"/>
      <point x="96.0" y="533.0"/>
      <point x="30.0" y="533.0" type="curve"/>
      <point x="30.0" y="511.0"/>
      <point x="30.0" y="533.0"/>
      <point x="30.0" y="511.0" type="curve"/>
      <point x="229.0" y="512.0"/>
      <point x="30.0" y="511.0"/>
      <point x="229.0" y="512.0" type="curve"/>
    </contour>
    <contour>
      <point x="233.0" y="423.0"/>
      <point x="221.0" y="437.0"/>
      <point x="233.0" y="423.0" type="curve"/>
      <point x="290.0" y="476.0"/>
      <point x="399.0" y="516.0"/>
      <point x="515.0" y="516.0" type="curve"/>
      <point x="671.0" y="516.0"/>
      <point x="782.0" y="426.0"/>
      <point x="782.0" y="276.0" type="curve"/>
      <point x="786.0" y="117.0"/>
      <point x="675.0" y="15.0"/>
      <point x="514.0" y="17.0" type="curve"/>
      <point x="403.0" y="17.0"/>
      <point x="323.0" y="54.0"/>
      <point x="235.0" y="122.0" type="curve"/>
      <point x="220.0" y="111.0"/>
      <point x="235.0" y="122.0"/>
      <point x="220.0" y="111.0" type="curve"/>
      <point x="311.0" y="35.0"/>
      <point x="396.0" y="-5.0"/>
      <point x="514.0" y="-5.0" type="curve"/>
      <point x="687.0" y="-5.0"/>
      <point x="806.0" y="106.0"/>
      <point x="805.0" y="277.0" type="curve"/>
      <point x="805.0" y="440.0"/>
      <point x="683.0" y="538.0"/>
      <point x="516.0" y="538.0" type="curve"/>
      <point x="395.0" y="538.0"/>
      <point x="283.0" y="495.0"/>
      <point x="221.0" y="437.0" type="curve"/>
    </contour>
    <contour>
      <point x="240.0" y="-300.0"/>
      <point x="216.0" y="-300.0"/>
      <point x="240.0" y="-300.0" type="curve"/>
      <point x="240.0" y="-22.0"/>
      <point x="240.0" y="255.0"/>
      <point x="240.0" y="533.0" type="curve"/>
      <point x="216.0" y="533.0"/>
      <point x="240.0" y="533.0"/>
      <point x="216.0" y="533.0" type="curve"/>
      <point x="216.0" y="255.0"/>
      <point x="216.0" y="-22.0"/>
      <point x="216.0" y="-300.0" type="curve"/>
    </contour>
  </outline>
</glyph>
<glyph name="q" format="1">
  <advance width="866"/>
  <unicode hex="0071"/>
  <outline>
    <contour>
      <point x="654.0" y="511.0"/>
      <point x="654.0" y="533.0"/>
      <point x="654.0" y="511.0" type="curve"/>
      <point x="839.0" y="511.0"/>
      <point x="654.0" y="511.0"/>
      <point x="839.0" y="511.0" type="curve"/>
      <point x="839.0" y="533.0"/>
      <point x="839.0" y="511.0"/>
      <point x="839.0" y="533.0" type="curve"/>
      <point x="778.0" y="533.0"/>
      <point x="716.0" y="533.0"/>
      <point x="654.0" y="533.0" type="curve"/>
    </contour>
    <contour>
      <point x="654.0" y="-279.0"/>
      <point x="654.0" y="-300.0"/>
      <point x="654.0" y="-279.0" type="curve"/>
      <point x="455.0" y="-278.0"/>
      <point x="654.0" y="-279.0"/>
      <point x="455.0" y="-278.0" type="curve"/>
      <point x="455.0" y="-300.0"/>
      <point x="455.0" y="-278.0"/>
      <point x="455.0" y="-300.0" type="curve"/>
      <point x="521.0" y="-300.0"/>
      <point x="588.0" y="-300.0"/>
      <point x="654.0" y="-300.0" type="curve"/>
    </contour>
    <contour>
      <point x="654.0" y="-300.0"/>
      <point x="654.0" y="-279.0"/>
      <point x="654.0" y="-300.0" type="curve"/>
      <point x="716.0" y="-300.0"/>
      <point x="778.0" y="-300.0"/>
      <point x="839.0" y="-300.0" type="curve"/>
      <point x="839.0" y="-278.0"/>
      <point x="839.0" y="-300.0"/>
      <point x="839.0" y="-278.0" type="curve"/>
      <point x="654.0" y="-279.0"/>
      <point x="839.0" y="-278.0"/>
      <point x="654.0" y="-279.0" type="curve"/>
    </contour>
    <contour>
      <point x="663.0" y="442.0"/>
      <point x="647.260027608" y="428.943668991"/>
      <point x="660.0" y="444.0" type="curve"/>
      <point x="578.0" y="503.0"/>
      <point x="469.0" y="538.0"/>
      <point x="364.0" y="538.0" type="curve"/>
      <point x="188.0" y="538.0"/>
      <point x="67.0" y="436.141263941"/>
      <point x="67.0" y="264.0" type="curve"/>
      <point x="67.0" y="92.4490566038"/>
      <point x="192.0" y="-5.0"/>
      <point x="368.0" y="-5.0" type="curve"/>
      <point x="479.0" y="-5.0"/>
      <point x="584.715951472" y="41.6089474283"/>
      <point x="658.0" y="121.0" type="curve"/>
      <point x="642.357560321" y="135.439175088"/>
      <point x="663.0" y="126.0"/>
      <point x="648.0" y="140.0" type="curve"/>
      <point x="573.666337337" y="59.5567212274"/>
      <point x="474.0" y="17.0"/>
      <point x="368.0" y="17.0" type="curve"/>
      <point x="208.0" y="17.0"/>
      <point x="92.0" y="107.459016393"/>
      <point x="92.0" y="265.0" type="curve"/>
      <point x="92.0" y="423.0"/>
      <point x="204.0" y="516.0"/>
      <point x="365.0" y="516.0" type="curve"/>
      <point x="465.0" y="516.0"/>
      <point x="568.0" y="481.0"/>
      <point x="650.0" y="427.0" type="curve"/>
    </contour>
    <contour>
      <point x="665.0" y="-300.0"/>
      <point x="639.0" y="-300.0"/>
      <point x="665.0" y="-300.0" type="curve"/>
      <point x="665.0" y="-22.0"/>
      <point x="665.0" y="255.0"/>
      <point x="665.0" y="533.0" type="curve"/>
      <point x="639.0" y="533.0"/>
      <point x="665.0" y="533.0"/>
      <point x="639.0" y="533.0" type="curve"/>
      <point x="639.0" y="255.0"/>
      <point x="639.0" y="-22.0"/>
      <point x="639.0" y="-300.0" type="curve"/>
    </contour>
  </outline>
</glyph>
<glyph name="r" format="1">
  <advance width="568"/>
  <unicode hex="0072"/>
  <outline>
    <contour>
      <point x="223.0" y="0.0"/>
      <point x="223.0" y="22.0"/>
      <point x="223.0" y="0.0" type="curve"/>
      <point x="285.0" y="0.0"/>
      <point x="347.0" y="0.0"/>
      <point x="409.0" y="0.0" type="curve"/>
      <point x="409.0" y="22.0"/>
      <point x="409.0" y="0.0"/>
      <point x="409.0" y="22.0" type="curve"/>
      <point x="223.0" y="22.0"/>
      <point x="409.0" y="22.0"/>
      <point x="223.0" y="22.0" type="curve"/>
    </contour>
    <contour>
      <point x="223.0" y="22.0"/>
      <point x="223.0" y="0.0"/>
      <point x="223.0" y="22.0" type="curve"/>
      <point x="24.0" y="22.0"/>
      <point x="223.0" y="22.0"/>
      <point x="24.0" y="22.0" type="curve"/>
      <point x="24.0" y="0.0"/>
      <point x="24.0" y="22.0"/>
      <point x="24.0" y="0.0" type="curve"/>
      <point x="90.0" y="0.0"/>
      <point x="157.0" y="0.0"/>
      <point x="223.0" y="0.0" type="curve"/>
    </contour>
    <contour>
      <point x="222.0" y="533.0"/>
      <point x="222.0" y="511.0"/>
      <point x="222.0" y="533.0" type="curve"/>
      <point x="155.0" y="533.0"/>
      <point x="89.0" y="533.0"/>
      <point x="23.0" y="533.0" type="curve"/>
      <point x="23.0" y="511.0"/>
      <point x="23.0" y="533.0"/>
      <point x="23.0" y="511.0" type="curve"/>
      <point x="222.0" y="511.0"/>
      <point x="23.0" y="511.0"/>
      <point x="222.0" y="511.0" type="curve"/>
    </contour>
    <contour>
      <point x="235.0" y="0.0"/>
      <point x="211.0" y="0.0"/>
      <point x="235.0" y="0.0" type="curve"/>
      <point x="235.0" y="178.0"/>
      <point x="235.0" y="355.0"/>
      <point x="235.0" y="533.0" type="curve"/>
      <point x="211.0" y="533.0"/>
      <point x="235.0" y="533.0"/>
      <point x="211.0" y="533.0" type="curve"/>
      <point x="211.0" y="355.0"/>
      <point x="211.0" y="178.0"/>
      <point x="211.0" y="0.0" type="curve"/>
    </contour>
    <contour>
      <point x="234.431349948" y="395.016835781"/>
      <point x="217.0" y="408.0"/>
      <point x="229.0" y="392.0" type="curve"/>
      <point x="316.0" y="506.0"/>
      <point x="426.0" y="516.0"/>
      <point x="559.0" y="516.0" type="curve"/>
      <point x="559.0" y="538.0"/>
      <point x="559.0" y="516.0"/>
      <point x="559.0" y="538.0" type="curve"/>
      <point x="420.0" y="538.0"/>
      <point x="299.0" y="524.0"/>
      <point x="222.0" y="411.0" type="curve"/>
    </contour>
    <contour>
      <point x="279" y="668" type="move" name="top"/>
    </contour>
    <contour>
      <point x="292" y="14" type="move" name="bottom"/>
    </contour>
  </outline>
</glyph>
<glyph name="s" format="1">
  <advance width="561"/>
  <unicode hex="0073"/>
  <outline>
    <contour>
      <point x="66.0" y="52.0"/>
      <point x="81.0" y="71.0"/>
      <point x="68.0" y="51.0" type="curve"/>
      <point x="151.044842257" y="19.133955878"/>
      <point x="226.47826087" y="-5.0"/>
      <point x="311.0" y="-5.0" type="curve"/>
      <point x="434.0" y="-5.0"/>
      <point x="527.0" y="28.1428571429"/>
      <point x="527.0" y="140.0" type="curve"/>
      <point x="526.0" y="253.0"/>
      <point x="419.0" y="259.0"/>
      <point x="301.0" y="287.0" type="curve"/>
      <point x="205.496216019" y="309.116665764"/>
      <point x="121.0" y="329.0"/>
      <point x="121.0" y="414.0" type="curve"/>
      <point x="121.0" y="496.0"/>
      <point x="193.436363636" y="516.0"/>
      <point x="287.0" y="516.0" type="curve"/>
      <point x="356.0" y="516.0"/>
      <point x="439.809056225" y="494.582802273"/>
      <point x="488.0" y="471.0" type="curve"/>
      <point x="499.0" y="490.0"/>
      <point x="488.0" y="471.0"/>
      <point x="499.0" y="490.0" type="curve"/>
      <point x="447.86097856" y="514.546730291"/>
      <point x="360.0" y="538.0"/>
      <point x="288.0" y="538.0" type="curve"/>
      <point x="180.430851064" y="538.0"/>
      <point x="99.0" y="511.0"/>
      <point x="99.0" y="414.0" type="curve"/>
      <point x="99.0" y="313.0"/>
      <point x="186.479647107" y="291.122724739"/>
      <point x="293.0" y="266.0" type="curve"/>
      <point x="400.0" y="239.0"/>
      <point x="504.0" y="238.0"/>
      <point x="504.0" y="140.0" type="curve"/>
      <point x="504.0" y="43.0593220339"/>
      <point x="421.0" y="17.0"/>
      <point x="315.0" y="17.0" type="curve"/>
      <point x="232.495934959" y="17.0"/>
      <point x="160.981558855" y="41.1363543134"/>
      <point x="79.0" y="72.0" type="curve"/>
    </contour>
    <contour>
      <point x="477.0" y="490.0"/>
      <point x="499.0" y="490.0"/>
      <point x="477.0" y="490.0" type="curve"/>
      <point x="477.0" y="370.0"/>
      <point x="477.0" y="490.0"/>
      <point x="477.0" y="370.0" type="curve"/>
      <point x="499.0" y="370.0"/>
      <point x="477.0" y="370.0"/>
      <point x="499.0" y="370.0" type="curve"/>
      <point x="499.0" y="490.0"/>
      <point x="499.0" y="370.0"/>
      <point x="499.0" y="490.0" type="curve"/>
    </contour>
    <contour>
      <point x="87.0" y="51.0"/>
      <point x="66.0" y="51.0"/>
      <point x="87.0" y="51.0" type="curve"/>
      <point x="87.0" y="171.0"/>
      <point x="87.0" y="51.0"/>
      <point x="87.0" y="171.0" type="curve"/>
      <point x="66.0" y="171.0"/>
      <point x="87.0" y="171.0"/>
      <point x="66.0" y="171.0" type="curve"/>
      <point x="66.0" y="51.0"/>
      <point x="66.0" y="171.0"/>
      <point x="66.0" y="51.0" type="curve"/>
    </contour>
    <contour>
      <point x="289.0" y="669.0" type="move" name="top"/>
    </contour>
    <contour>
      <point x="286.0" y="3.0" type="move" name="bottom"/>
    </contour>
  </outline>
</glyph>
<glyph name="t" format="1">
  <advance width="619"/>
  <unicode hex="0074"/>
  <outline>
    <contour>
      <point x="58.05" y="476.035873418"/>
      <point x="58.05" y="497.595873418"/>
      <point x="58.05" y="476.035873418" type="curve"/>
      <point x="58.05" y="476.035873418"/>
      <point x="585.9" y="476.035873418"/>
      <point x="585.9" y="476.035873418" type="curve"/>
      <point x="585.9" y="497.595873418"/>
      <point x="585.9" y="476.035873418"/>
      <point x="585.9" y="497.595873418" type="curve"/>
      <point x="585.9" y="497.595873418"/>
      <point x="58.05" y="497.595873418"/>
      <point x="58.05" y="497.595873418" type="curve"/>
    </contour>
    <contour>
      <point x="555.0" y="48.0"/>
      <point x="563.938799796" y="28.1360004539"/>
      <point x="555.0" y="48.0" type="curve"/>
      <point x="506.538339222" y="28.8172592756"/>
      <point x="472.0" y="17.0"/>
      <point x="421.0" y="17.0" type="curve"/>
      <point x="331.0" y="17.0"/>
      <point x="278.05" y="53.8371466836"/>
      <point x="278.05" y="144.541873418" type="curve"/>
      <point x="278.05" y="144.541873418"/>
      <point x="278.05" y="651.007873418"/>
      <point x="278.05" y="651.007873418" type="curve"/>
      <point x="253.85" y="636.993873418"/>
      <point x="278.05" y="651.007873418"/>
      <point x="253.85" y="636.993873418" type="curve"/>
      <point x="253.85" y="636.993873418"/>
      <point x="253.85" y="143.463873418"/>
      <point x="253.85" y="143.463873418" type="curve"/>
      <point x="253.85" y="42.2846735339"/>
      <point x="317.337240498" y="-5.01012658228"/>
      <point x="418.75" y="-5.01012658228" type="curve"/>
      <point x="474.066768303" y="-5.01012658228"/>
      <point x="511.0" y="9.0"/>
      <point x="564.0" y="28.0" type="curve"/>
    </contour>
    <contour>
      <point x="402" y="2" type="move" name="bottom"/>
    </contour>
  </outline>
</glyph>
<glyph name="u" format="1">
  <advance width="927"/>
  <unicode hex="0075"/>
  <outline>
    <contour>
      <point x="709" y="533"/>
      <point x="709" y="511"/>
      <point x="709" y="533" type="curve"/>
      <point x="643" y="533"/>
      <point x="576" y="533"/>
      <point x="510" y="533" type="curve"/>
      <point x="510" y="511"/>
      <point x="510" y="533"/>
      <point x="510" y="511" type="curve"/>
      <point x="709" y="511"/>
      <point x="510" y="511"/>
      <point x="709" y="511" type="curve"/>
    </contour>
    <contour>
      <point x="216" y="533"/>
      <point x="216" y="511"/>
      <point x="216" y="533" type="curve"/>
      <point x="150" y="533"/>
      <point x="83" y="533"/>
      <point x="17" y="533" type="curve"/>
      <point x="17" y="511"/>
      <point x="17" y="533"/>
      <point x="17" y="511" type="curve"/>
      <point x="216" y="511"/>
      <point x="17" y="511"/>
      <point x="216" y="511" type="curve"/>
    </contour>
    <contour>
      <point x="709" y="0"/>
      <point x="709" y="22"/>
      <point x="709" y="0" type="curve"/>
      <point x="771" y="0"/>
      <point x="833" y="0"/>
      <point x="894" y="0" type="curve"/>
      <point x="894" y="22"/>
      <point x="894" y="0"/>
      <point x="894" y="22" type="curve"/>
      <point x="709" y="22"/>
      <point x="894" y="22"/>
      <point x="709" y="22" type="curve"/>
    </contour>
    <contour>
      <point x="721" y="0"/>
      <point x="697" y="0"/>
      <point x="721" y="0" type="curve"/>
      <point x="721" y="178"/>
      <point x="721" y="355"/>
      <point x="721" y="533" type="curve"/>
      <point x="697" y="533"/>
      <point x="721" y="533"/>
      <point x="697" y="533" type="curve"/>
      <point x="697" y="355"/>
      <point x="697" y="178"/>
      <point x="697" y="0" type="curve"/>
    </contour>
    <contour>
      <point x="700" y="162"/>
      <point x="718" y="152"/>
      <point x="701" y="163" type="curve"/>
      <point x="645" y="80"/>
      <point x="548" y="17"/>
      <point x="446" y="17" type="curve"/>
      <point x="315" y="17"/>
      <point x="228" y="64"/>
      <point x="228" y="187" type="curve"/>
      <point x="228" y="302"/>
      <point x="228" y="418"/>
      <point x="228" y="533" type="curve"/>
      <point x="204" y="533"/>
      <point x="228" y="533"/>
      <point x="204" y="533" type="curve"/>
      <point x="204" y="417"/>
      <point x="204" y="301"/>
      <point x="204" y="185" type="curve"/>
      <point x="204" y="48"/>
      <point x="299" y="-5"/>
      <point x="443" y="-5" type="curve"/>
      <point x="554" y="-5"/>
      <point x="660" y="62"/>
      <point x="717" y="151" type="curve"/>
    </contour>
    <contour>
      <point x="446.0" y="668.0" type="move" name="top"/>
    </contour>
    <contour>
      <point x="714.0" y="12.0" type="move" name="bottom"/>
    </contour>
  </outline>
</glyph>
<glyph name="v" format="1">
  <advance width="976"/>
  <unicode hex="0076"/>
  <outline>
    <contour>
      <point x="212.0" y="533.0"/>
      <point x="212.0" y="511.0"/>
      <point x="212.0" y="533.0" type="curve"/>
      <point x="146.0" y="533.0"/>
      <point x="79.0" y="533.0"/>
      <point x="13.0" y="533.0" type="curve"/>
      <point x="13.0" y="511.0"/>
      <point x="13.0" y="533.0"/>
      <point x="13.0" y="511.0" type="curve"/>
      <point x="212.0" y="511.0"/>
      <point x="13.0" y="511.0"/>
      <point x="212.0" y="511.0" type="curve"/>
    </contour>
    <contour>
      <point x="212.0" y="511.0"/>
      <point x="212.0" y="533.0"/>
      <point x="212.0" y="511.0" type="curve"/>
      <point x="411.0" y="511.0"/>
      <point x="212.0" y="511.0"/>
      <point x="411.0" y="511.0" type="curve"/>
      <point x="411.0" y="533.0"/>
      <point x="411.0" y="511.0"/>
      <point x="411.0" y="533.0" type="curve"/>
      <point x="345.0" y="533.0"/>
      <point x="279.0" y="533.0"/>
      <point x="212.0" y="533.0" type="curve"/>
    </contour>
    <contour>
      <point x="764.0" y="533.0"/>
      <point x="764.0" y="511.0"/>
      <point x="764.0" y="533.0" type="curve"/>
      <point x="698.0" y="533.0"/>
      <point x="632.0" y="533.0"/>
      <point x="565.0" y="533.0" type="curve"/>
      <point x="565.0" y="511.0"/>
      <point x="565.0" y="533.0"/>
      <point x="565.0" y="511.0" type="curve"/>
      <point x="764.0" y="511.0"/>
      <point x="565.0" y="511.0"/>
      <point x="764.0" y="511.0" type="curve"/>
    </contour>
    <contour>
      <point x="764.0" y="511.0"/>
      <point x="764.0" y="533.0"/>
      <point x="764.0" y="511.0" type="curve"/>
      <point x="963.0" y="511.0"/>
      <point x="764.0" y="511.0"/>
      <point x="963.0" y="511.0" type="curve"/>
      <point x="963.0" y="533.0"/>
      <point x="963.0" y="511.0"/>
      <point x="963.0" y="533.0" type="curve"/>
      <point x="897.0" y="533.0"/>
      <point x="831.0" y="533.0"/>
      <point x="764.0" y="533.0" type="curve"/>
    </contour>
    <contour>
      <point x="186.0" y="533.0"/>
      <point x="213.0" y="533.0"/>
      <point x="186.0" y="533.0" type="curve"/>
      <point x="279.0" y="355.0"/>
      <point x="373.0" y="178.0"/>
      <point x="466.0" y="0.0" type="curve"/>
      <point x="491.0" y="0.0"/>
      <point x="466.0" y="0.0"/>
      <point x="491.0" y="0.0" type="curve"/>
      <point x="398.0" y="178.0"/>
      <point x="306.0" y="355.0"/>
      <point x="213.0" y="533.0" type="curve"/>
    </contour>
    <contour>
      <point x="766.0" y="533.0"/>
      <point x="791.0" y="533.0"/>
      <point x="766.0" y="533.0" type="curve"/>
      <point x="766.0" y="533.0"/>
      <point x="472.0" y="0.0"/>
      <point x="472.0" y="0.0" type="curve"/>
      <point x="497.0" y="0.0"/>
      <point x="472.0" y="0.0"/>
      <point x="497.0" y="0.0" type="curve"/>
      <point x="595.0" y="178.0"/>
      <point x="693.0" y="355.0"/>
      <point x="791.0" y="533.0" type="curve"/>
    </contour>
  </outline>
</glyph>
<glyph name="x" format="1">
  <advance width="1023"/>
  <unicode hex="0078"/>
  <outline>
    <contour>
      <point x="232.0" y="22.0"/>
      <point x="232.0" y="0.0"/>
      <point x="232.0" y="22.0" type="curve"/>
      <point x="33.0" y="22.0"/>
      <point x="232.0" y="22.0"/>
      <point x="33.0" y="22.0" type="curve"/>
      <point x="33.0" y="0.0"/>
      <point x="33.0" y="22.0"/>
      <point x="33.0" y="0.0" type="curve"/>
      <point x="99.0" y="0.0"/>
      <point x="165.0" y="0.0"/>
      <point x="232.0" y="0.0" type="curve"/>
    </contour>
    <contour>
      <point x="788.0" y="22.0"/>
      <point x="788.0" y="0.0"/>
      <point x="788.0" y="22.0" type="curve"/>
      <point x="589.0" y="22.0"/>
      <point x="788.0" y="22.0"/>
      <point x="589.0" y="22.0" type="curve"/>
      <point x="589.0" y="0.0"/>
      <point x="589.0" y="22.0"/>
      <point x="589.0" y="0.0" type="curve"/>
      <point x="655.0" y="0.0"/>
      <point x="721.0" y="0.0"/>
      <point x="788.0" y="0.0" type="curve"/>
    </contour>
    <contour>
      <point x="788.0" y="0.0"/>
      <point x="788.0" y="22.0"/>
      <point x="788.0" y="0.0" type="curve"/>
      <point x="854.0" y="0.0"/>
      <point x="921.0" y="0.0"/>
      <point x="987.0" y="0.0" type="curve"/>
      <point x="987.0" y="22.0"/>
      <point x="987.0" y="0.0"/>
      <point x="987.0" y="22.0" type="curve"/>
      <point x="788.0" y="22.0"/>
      <point x="987.0" y="22.0"/>
      <point x="788.0" y="22.0" type="curve"/>
    </contour>
    <contour>
      <point x="232.0" y="0.0"/>
      <point x="232.0" y="22.0"/>
      <point x="232.0" y="0.0" type="curve"/>
      <point x="298.0" y="0.0"/>
      <point x="232.0" y="0.0"/>
      <point x="431.0" y="0.0" type="curve"/>
      <point x="431.0" y="22.0"/>
      <point x="431.0" y="0.0"/>
      <point x="431.0" y="22.0" type="curve"/>
      <point x="232.0" y="22.0"/>
      <point x="431.0" y="22.0"/>
      <point x="232.0" y="22.0" type="curve"/>
    </contour>
    <contour>
      <point x="766.0" y="511.0"/>
      <point x="766.0" y="533.0"/>
      <point x="766.0" y="511.0" type="curve"/>
      <point x="965.0" y="511.0"/>
      <point x="766.0" y="511.0"/>
      <point x="965.0" y="511.0" type="curve"/>
      <point x="965.0" y="533.0"/>
      <point x="965.0" y="511.0"/>
      <point x="965.0" y="533.0" type="curve"/>
      <point x="899.0" y="533.0"/>
      <point x="833.0" y="533.0"/>
      <point x="766.0" y="533.0" type="curve"/>
    </contour>
    <contour>
      <point x="259.0" y="533.0"/>
      <point x="259.0" y="511.0"/>
      <point x="259.0" y="533.0" type="curve"/>
      <point x="192.0" y="533.0"/>
      <point x="126.0" y="533.0"/>
      <point x="60.0" y="533.0" type="curve"/>
      <point x="60.0" y="511.0"/>
      <point x="60.0" y="533.0"/>
      <point x="60.0" y="511.0" type="curve"/>
      <point x="259.0" y="511.0"/>
      <point x="60.0" y="511.0"/>
      <point x="259.0" y="511.0" type="curve"/>
    </contour>
    <contour>
      <point x="259.0" y="511.0"/>
      <point x="259.0" y="533.0"/>
      <point x="259.0" y="511.0" type="curve"/>
      <point x="458.0" y="511.0"/>
      <point x="259.0" y="511.0"/>
      <point x="458.0" y="511.0" type="curve"/>
      <point x="458.0" y="533.0"/>
      <point x="458.0" y="511.0"/>
      <point x="458.0" y="533.0" type="curve"/>
      <point x="391.0" y="533.0"/>
      <point x="325.0" y="533.0"/>
      <point x="259.0" y="533.0" type="curve"/>
    </contour>
    <contour>
      <point x="766.0" y="533.0"/>
      <point x="766.0" y="511.0"/>
      <point x="766.0" y="533.0" type="curve"/>
      <point x="700.0" y="533.0"/>
      <point x="633.0" y="533.0"/>
      <point x="567.0" y="533.0" type="curve"/>
      <point x="567.0" y="511.0"/>
      <point x="567.0" y="533.0"/>
      <point x="567.0" y="511.0" type="curve"/>
      <point x="766.0" y="511.0"/>
      <point x="567.0" y="511.0"/>
      <point x="766.0" y="511.0" type="curve"/>
    </contour>
    <contour>
      <point x="821.0" y="0.0"/>
      <point x="788.0" y="0.0"/>
      <point x="821.0" y="0.0" type="curve"/>
      <point x="633.0" y="178.0"/>
      <point x="446.0" y="355.0"/>
      <point x="258.0" y="533.0" type="curve"/>
      <point x="228.0" y="533.0"/>
      <point x="258.0" y="533.0"/>
      <point x="228.0" y="533.0" type="curve"/>
      <point x="415.0" y="355.0"/>
      <point x="602.0" y="178.0"/>
      <point x="788.0" y="0.0" type="curve"/>
    </contour>
    <contour>
      <point x="769.0" y="533.0"/>
      <point x="799.0" y="533.0"/>
      <point x="769.0" y="533.0" type="curve"/>
      <point x="580.0" y="355.0"/>
      <point x="390.0" y="178.0"/>
      <point x="200.0" y="0.0" type="curve"/>
      <point x="233.0" y="0.0"/>
      <point x="200.0" y="0.0"/>
      <point x="233.0" y="0.0" type="curve"/>
      <point x="421.0" y="178.0"/>
      <point x="610.0" y="355.0"/>
      <point x="799.0" y="533.0" type="curve"/>
    </contour>
  </outline>
</glyph>
<glyph name="y" format="1">
  <advance width="998"/>
  <unicode hex="0079"/>
  <outline>
    <contour>
      <point x="261.0" y="-278.0"/>
      <point x="261.0" y="-300.0"/>
      <point x="261.0" y="-278.0" type="curve"/>
      <point x="66.0" y="-278.0"/>
      <point x="261.0" y="-278.0"/>
      <point x="66.0" y="-278.0" type="curve"/>
      <point x="66.0" y="-300.0"/>
      <point x="66.0" y="-278.0"/>
      <point x="66.0" y="-300.0" type="curve"/>
      <point x="131.653266332" y="-300.0"/>
      <point x="196.0" y="-300.0"/>
      <point x="261.0" y="-300.0" type="curve"/>
    </contour>
    <contour>
      <point x="234.0" y="533.0"/>
      <point x="234.0" y="511.0"/>
      <point x="234.0" y="533.0" type="curve"/>
      <point x="168.0" y="533.0"/>
      <point x="102.0" y="533.0"/>
      <point x="35.0" y="533.0" type="curve"/>
      <point x="35.0" y="511.0"/>
      <point x="35.0" y="533.0"/>
      <point x="35.0" y="511.0" type="curve"/>
      <point x="234.0" y="511.0"/>
      <point x="35.0" y="511.0"/>
      <point x="234.0" y="511.0" type="curve"/>
    </contour>
    <contour>
      <point x="234.0" y="511.0"/>
      <point x="234.0" y="533.0"/>
      <point x="234.0" y="511.0" type="curve"/>
      <point x="433.0" y="511.0"/>
      <point x="234.0" y="511.0"/>
      <point x="433.0" y="511.0" type="curve"/>
      <point x="433.0" y="533.0"/>
      <point x="433.0" y="511.0"/>
      <point x="433.0" y="533.0" type="curve"/>
      <point x="367.0" y="533.0"/>
      <point x="301.0" y="533.0"/>
      <point x="234.0" y="533.0" type="curve"/>
    </contour>
    <contour>
      <point x="781.0" y="533.0"/>
      <point x="781.0" y="511.0"/>
      <point x="781.0" y="533.0" type="curve"/>
      <point x="715.0" y="533.0"/>
      <point x="648.0" y="533.0"/>
      <point x="582.0" y="533.0" type="curve"/>
      <point x="582.0" y="511.0"/>
      <point x="582.0" y="533.0"/>
      <point x="582.0" y="511.0" type="curve"/>
      <point x="781.0" y="511.0"/>
      <point x="582.0" y="511.0"/>
      <point x="781.0" y="511.0" type="curve"/>
    </contour>
    <contour>
      <point x="781.0" y="511.0"/>
      <point x="781.0" y="533.0"/>
      <point x="781.0" y="511.0" type="curve"/>
      <point x="980.0" y="511.0"/>
      <point x="781.0" y="511.0"/>
      <point x="980.0" y="511.0" type="curve"/>
      <point x="980.0" y="533.0"/>
      <point x="980.0" y="511.0"/>
      <point x="980.0" y="533.0" type="curve"/>
      <point x="914.0" y="533.0"/>
      <point x="847.0" y="533.0"/>
      <point x="781.0" y="533.0" type="curve"/>
    </contour>
    <contour>
      <point x="508.0" y="72.0"/>
      <point x="485.0" y="77.0"/>
      <point x="508.0" y="77.0" type="curve"/>
      <point x="416.0" y="229.0"/>
      <point x="324.0" y="381.0"/>
      <point x="231.0" y="533.0" type="curve"/>
      <point x="204.0" y="533.0"/>
      <point x="231.0" y="533.0"/>
      <point x="204.0" y="533.0" type="curve"/>
      <point x="298.746686483" y="379.792592069"/>
      <point x="390.253313517" y="225.207407931"/>
      <point x="485.0" y="72.0" type="curve"/>
    </contour>
    <contour>
      <point x="262.0" y="-300.0"/>
      <point x="235.0" y="-300.0"/>
      <point x="262.0" y="-300.0" type="curve"/>
      <point x="445.0" y="-22.0"/>
      <point x="628.0" y="255.0"/>
      <point x="811.0" y="533.0" type="curve"/>
      <point x="784.0" y="533.0"/>
      <point x="811.0" y="533.0"/>
      <point x="784.0" y="533.0" type="curve"/>
      <point x="601.0" y="255.0"/>
      <point x="418.0" y="-22.0"/>
      <point x="235.0" y="-300.0" type="curve"/>
    </contour>
    <contour>
      <point x="492.0" y="670.0" type="move" name="top"/>
    </contour>
  </outline>
</glyph>
<glyph name="z" format="1">
  <advance width="689"/>
  <unicode hex="007A"/>
  <outline>
    <contour>
      <point x="87.0" y="511.0"/>
      <point x="87.0" y="533.0"/>
      <point x="87.0" y="511.0" type="curve"/>
      <point x="253.0" y="511.0"/>
      <point x="419.0" y="511.0"/>
      <point x="585.0" y="511.0" type="curve"/>
      <point x="583.0" y="514.0"/>
      <point x="580.0" y="515.0"/>
      <point x="578.0" y="518.0" type="curve"/>
      <point x="576.0" y="520.0"/>
      <point x="574.0" y="521.0"/>
      <point x="572.0" y="523.0" type="curve"/>
      <point x="568.0" y="520.0"/>
      <point x="565.0" y="516.0"/>
      <point x="561.0" y="512.0" type="curve"/>
      <point x="398.0" y="348.0"/>
      <point x="561.0" y="512.0"/>
      <point x="71.0" y="22.0" type="curve"/>
      <point x="71.0" y="10.0"/>
      <point x="71.0" y="22.0"/>
      <point x="71.0" y="10.0" type="curve"/>
      <point x="71.0" y="0.0"/>
      <point x="71.0" y="10.0"/>
      <point x="71.0" y="0.0" type="curve"/>
      <point x="76.0" y="0.0"/>
      <point x="71.0" y="0.0"/>
      <point x="76.0" y="0.0" type="curve"/>
      <point x="621.0" y="0.0"/>
      <point x="439.0" y="0.0"/>
      <point x="621.0" y="0.0" type="curve"/>
      <point x="621.0" y="22.0"/>
      <point x="621.0" y="0.0"/>
      <point x="621.0" y="22.0" type="curve"/>
      <point x="439.0" y="22.0"/>
      <point x="257.0" y="22.0"/>
      <point x="76.0" y="22.0" type="curve"/>
      <point x="78.0" y="20.0"/>
      <point x="80.0" y="18.0"/>
      <point x="82.0" y="16.0" type="curve"/>
      <point x="84.0" y="14.0"/>
      <point x="88.0" y="12.0"/>
      <point x="90.0" y="10.0" type="curve"/>
      <point x="93.0" y="13.0"/>
      <point x="97.0" y="17.0"/>
      <point x="101.0" y="21.0" type="curve"/>
      <point x="264.0" y="185.0"/>
      <point x="101.0" y="21.0"/>
      <point x="592.0" y="511.0" type="curve"/>
      <point x="592.0" y="523.0"/>
      <point x="592.0" y="511.0"/>
      <point x="592.0" y="523.0" type="curve"/>
      <point x="592.0" y="533.0"/>
      <point x="592.0" y="523.0"/>
      <point x="592.0" y="533.0" type="curve"/>
      <point x="585.0" y="533.0"/>
      <point x="592.0" y="533.0"/>
      <point x="585.0" y="533.0" type="curve"/>
      <point x="419.0" y="533.0"/>
      <point x="253.0" y="533.0"/>
      <point x="87.0" y="533.0" type="curve"/>
    </contour>
    <contour>
      <point x="87.0" y="522.0"/>
      <point x="109.0" y="522.0"/>
      <point x="87.0" y="522.0" type="curve"/>
      <point x="87.0" y="402.0"/>
      <point x="87.0" y="522.0"/>
      <point x="87.0" y="402.0" type="curve"/>
      <point x="109.0" y="402.0"/>
      <point x="87.0" y="402.0"/>
      <point x="109.0" y="402.0" type="curve"/>
      <point x="109.0" y="522.0"/>
      <point x="109.0" y="402.0"/>
      <point x="109.0" y="522.0" type="curve"/>
    </contour>
    <contour>
      <point x="621.0" y="11.0"/>
      <point x="599.0" y="11.0"/>
      <point x="621.0" y="11.0" type="curve"/>
      <point x="621.0" y="131.0"/>
      <point x="621.0" y="11.0"/>
      <point x="621.0" y="131.0" type="curve"/>
      <point x="599.0" y="131.0"/>
      <point x="621.0" y="131.0"/>
      <point x="599.0" y="131.0" type="curve"/>
      <point x="599.0" y="11.0"/>
      <point x="599.0" y="131.0"/>
      <point x="599.0" y="11.0" type="curve"/>
    </contour>
    <contour>
      <point x="339.0" y="669.0" type="move" name="top"/>
    </contour>
  </outline>
</glyph>
